<svg xmlns="http://www.w3.org/2000/svg" width="147.3" height="59.2" viewBox="0 0 147.3 59.2"><path fill="#97ABB5" d="M0 40.3s.6-17.4 3.1-19.7h7.1s-4.6 8.8-3.7 20.1c-4.7-.1-6.5-.4-6.5-.4zM4.8 15.5S12.4 1.7 22.1.4l5.3-.4s-13 6.4-15.9 15c-2.8.2-6.7.5-6.7.5zM18.2 40.1c.4-29 22-39.2 22-39.2H35C15.3 3.6 12.3 37.1 12.1 40.1h6.1zM55.9 20.5S50.1 7.4 43.6 6.8h-3.5s9 5.4 11.4 13.7h4.4zM63.8 20.5S58 7.4 51.5 6.8H48s9 5.4 11.4 13.7h4.4z"/><g fill="#97ABB5"><path d="M50.6 40.4c0 .1.1.2.2.2H52c.1 0 .2-.1.2-.2v-9.8h3.1c.1 0 .2-.1.2-.2v-1c0-.1-.1-.2-.2-.2h-7.8c-.1 0-.2.1-.2.2v1c0 .1.1.2.2.2h3.1v9.8zM56.9 40.7H58c.1 0 .2-.1.2-.2v-5.9c.5-.5 1.4-1.1 2-1.1.8 0 1.1.3 1.1 1.2v5.8c0 .1.1.2.2.2h1.1c.1 0 .2-.1.2-.2v-5.8c0-1.6-.9-2.6-2.5-2.6-.7 0-1.5.3-2.2.9v-3.6c0-.1-.1-.2-.2-.2h-1.1c-.1 0-.2.1-.2.2v11.1c.1.1.2.2.3.2zM68 40.8c1.9 0 2.7-.9 3.3-2v-.2c0-.1-.1-.1-.1-.1l-.9-.4c-.1-.1-.3 0-.3.1-.4.8-1.2 1.2-2 1.2-1.1 0-2-1.1-2.1-2.5h4.9c.1 0 .2-.1.2-.2V36c0-2.4-1.2-3.9-3.3-3.9-2.1 0-3.5 1.7-3.5 4.4.1 3.2 2.1 4.3 3.8 4.3zm-2.1-5.3c.1-.8.5-2 1.9-2 1 0 1.6.8 1.7 2h-3.6zM84.1 40.7c.1 0 .2-.1.2-.2v-1c0-.1-.1-.2-.2-.2h-5v-9.8c0-.1-.1-.2-.2-.2h-1.2c-.1 0-.2.1-.2.2v11.1c0 .1.1.2.2.2h6.4zM88.4 40.8c1.9 0 2.7-.9 3.3-2v-.2c0-.1-.1-.1-.1-.1l-.9-.4c-.1-.1-.3 0-.3.1-.4.8-1.2 1.2-2 1.2-1.2 0-2-1.1-2.1-2.5h4.9c.1 0 .2-.1.2-.2V36c0-2.4-1.2-3.9-3.3-3.9-2.1 0-3.5 1.7-3.5 4.4.1 3.2 2.1 4.3 3.8 4.3zm-2.1-5.3c.1-.8.5-2 1.9-2 1 0 1.6.8 1.7 2h-3.6zM98.8 40.6c0-.1.1-.1 0-.2-.1-.4-.2-.8-.2-1.7v-4c0-1.9-1.6-2.6-3-2.6s-2.6.7-3.2 1.8v.2c0 .1.1.1.1.1l1 .5h.2c.1 0 .1-.1.1-.1.1-.3.5-1.1 1.8-1.1.9 0 1.4.4 1.4 1.2v.3c-3.5.7-4.9 1.6-4.9 3.4 0 1.7 1.3 2.4 2.5 2.4 1.1 0 1.9-.5 2.5-1l.1.6c0 .1.1.2.2.2h1.1c.2.1.2 0 .3 0zm-1.7-4.2v1.8c-.6.7-1.5 1.2-2.2 1.2-.5 0-1.1-.4-1.1-1 0-.9 1.1-1.6 3.3-2zM106.7 40.6c0-.1.1-.1.1-.2-.1-.4-.1-.9-.1-1.4v-9.7c0-.1-.1-.2-.2-.2h-1.1c-.1 0-.2.1-.2.2v3.4c-.5-.4-1.2-.7-1.9-.7-1.3 0-3.4.9-3.4 4.4 0 3.2 1.9 4.4 3.5 4.4.7 0 1.5-.3 2-.7l.1.3c0 .1.1.2.2.2h1c-.1.1 0 0 0 0zm-1.6-6.1v4c-.7.7-1.2.9-1.8.9-1.3 0-2-1.1-2-2.9 0-2 .7-3 2-3 .6 0 1.3.4 1.8 1zM111.7 40.8c1.9 0 2.7-.9 3.3-2v-.2c0-.1-.1-.1-.1-.1l-.9-.4c-.1-.1-.3 0-.3.1-.4.8-1.2 1.2-2 1.2-1.1 0-2-1.1-2.1-2.5h4.9c.1 0 .2-.1.2-.2V36c0-2.4-1.2-3.9-3.3-3.9-2.1 0-3.5 1.7-3.5 4.4.2 3.2 2.1 4.3 3.8 4.3zm-2-5.3c.1-.8.5-2 1.9-2 1 0 1.6.8 1.7 2h-3.6zM116.3 40.7h1.1c.1 0 .2-.1.2-.2v-4.4c.5-1.7 1.2-2.4 2.4-2.4.1 0 .2-.1.2-.2v-1.1c0-.1-.1-.2-.2-.2-1.2 0-1.8.5-2.4 1.2v-.8c0-.1-.1-.2-.2-.2h-1.1c-.1 0-.2.1-.2.2v8c-.1 0 0 .1.2.1zM123.8 35.5c-1-.3-1.7-.5-1.7-1.1 0-.6.4-.9 1.2-.9.7 0 1.3.3 1.9 1 0 0 .1.1.2.1s.1 0 .2-.1l.8-.7c.1-.1.1-.2 0-.3-.6-.9-1.8-1.5-3-1.5-1.7 0-2.8.9-2.8 2.4-.1 1.8 1.5 2.2 2.8 2.6 1.2.3 1.9.6 1.9 1.3 0 .5-.4 1.1-1.5 1.1-.9 0-1.6-.4-2.1-1.1 0-.1-.1-.1-.2-.1h-.2l-.9.7c-.1.1-.1.2 0 .3.8 1 2 1.6 3.4 1.6 1.5 0 3-.8 3-2.6-.1-1.8-1.7-2.3-3-2.7zM131.6 32.1c-.7 0-1.5.3-2.2.9v-3.6c0-.1-.1-.2-.2-.2h-1.1c-.1 0-.2.1-.2.2v11.1c0 .1.1.2.2.2h1.1c.1 0 .2-.1.2-.2v-5.9c.5-.5 1.4-1.1 2-1.1.8 0 1.1.3 1.1 1.2v5.8c0 .1.1.2.2.2h1.1c.1 0 .2-.1.2-.2v-5.8c.2-1.7-.8-2.6-2.4-2.6zM137.8 29h-1.1c-.1 0-.2.1-.2.2v1.3c0 .1.1.2.2.2h1.1c.1 0 .2-.1.2-.2v-1.3c.1-.1 0-.2-.2-.2zM137.8 32.2h-1.1c-.1 0-.2.1-.2.2v8c0 .1.1.2.2.2h1.1c.1 0 .2-.1.2-.2v-8c.1-.1 0-.2-.2-.2zM143.8 32.1c-.6 0-1.4.3-1.9.8v-.4c0-.1-.1-.2-.2-.2h-1.1c-.1 0-.2.1-.2.2v10.9c0 .1.1.2.2.2h1.1c.1 0 .2-.1.2-.2v-3.2c.5.4 1.2.7 1.9.7 1.3 0 3.4-.9 3.4-4.4.1-3.3-1.8-4.4-3.4-4.4zm1.9 4.3c0 2-.7 3-2 3-.5 0-1.2-.4-1.8-1v-4c.7-.7 1.2-.9 1.8-.9 1.3 0 2 1.1 2 2.9zM56 55.3l-1.1-.2c-.1 0-.2.1-.3.2-.4 1.7-1.2 2.5-2.5 2.5-1.8 0-2.9-1.6-2.9-4.4 0-2.8 1-4.4 2.6-4.4 1.4 0 2.1.7 2.5 2.3 0 .1.1.1.1.1h.2l1.1-.3c.1 0 .2-.2.2-.3-.5-2.2-1.9-3.4-4-3.4-2.8 0-4.5 2.2-4.5 5.9 0 3.8 1.6 5.9 4.5 5.9 2.2 0 3.5-1.2 4.1-3.6v-.2c.1-.1 0-.1 0-.1zM60.2 50.5c-2.1 0-3.5 1.7-3.5 4.4s1.4 4.4 3.5 4.4 3.5-1.7 3.5-4.4-1.4-4.4-3.5-4.4zm1.9 4.3c0 1.9-.7 3-1.9 3s-1.9-1.1-1.9-3 .7-3 1.9-3c1.2.1 1.9 1.2 1.9 3zM68.7 50.5c-.7 0-1.5.3-2.2.9v-.5c0-.1-.1-.2-.2-.2h-1.1c-.1 0-.2.1-.2.2v8c0 .1.1.2.2.2h1.1c.1 0 .2-.1.2-.2V53c.5-.5 1.4-1.1 2-1.1.8 0 1.1.3 1.1 1.2v5.8c0 .1.1.2.2.2H71c.1 0 .2-.1.2-.2V53c.1-1.6-.9-2.5-2.5-2.5zM77 47.5h-.2c-.3 0-.5-.1-.8-.1-1.6 0-2.2.7-2.2 2.6v.7h-1.1c-.1 0-.2.1-.2.2v.9c0 .1.1.2.2.2h1.1v6.8c0 .1.1.2.2.2h1.1c.1 0 .2-.1.2-.2V52h1.5c.1 0 .2-.1.2-.2v-.9c0-.1-.1-.2-.2-.2h-1.5v-.9c0-.8.2-.9.8-.9.1 0 .3 0 .5.1h.3c.1 0 .1 0 .2-.1 0 0 .1-.1.1-.2v-1c0-.1-.1-.2-.2-.2zM83.6 56.5c-.1-.1-.3 0-.3.1-.4.8-1.1 1.2-2 1.2-1.2 0-2-1.1-2.1-2.5h4.9c.1 0 .2-.1.2-.2v-.7c0-2.4-1.2-3.9-3.3-3.9-2.1 0-3.5 1.7-3.5 4.4 0 3.2 2 4.4 3.7 4.4 1.9 0 2.7-.9 3.3-2v-.2c0-.1-.1-.1-.1-.1l-.8-.5zm-4.4-2.6c.1-.8.5-2 1.9-2 1 0 1.6.8 1.7 2h-3.6zM89.5 50.5c-1.2 0-1.8.5-2.4 1.2v-.8c0-.1-.1-.2-.2-.2h-1.1c-.1 0-.2.1-.2.2v8c0 .1.1.2.2.2h1.1c.1 0 .2-.1.2-.2v-4.4c.5-1.7 1.2-2.4 2.4-2.4.1 0 .2-.1.2-.2v-1.1c0-.2-.1-.3-.2-.3zM96 56.5c-.1-.1-.3 0-.3.1-.4.8-1.1 1.2-2 1.2-1.1 0-2-1.1-2.1-2.5h4.9c.1 0 .2-.1.2-.2v-.7c0-2.4-1.2-3.9-3.3-3.9-2.1 0-3.5 1.7-3.5 4.4 0 3.2 2 4.4 3.7 4.4 1.9 0 2.7-.9 3.3-2v-.2c0-.1-.1-.1-.1-.1l-.8-.5zm-4.3-2.6c.1-.8.5-2 1.9-2 1 0 1.6.8 1.7 2h-3.6zM102 50.5c-.7 0-1.5.3-2.2.9v-.5c0-.1-.1-.2-.2-.2h-1.1c-.1 0-.2.1-.2.2v8c0 .1.1.2.2.2h1.1c.1 0 .2-.1.2-.2V53c.5-.5 1.4-1.1 2-1.1.8 0 1.1.3 1.1 1.2v5.8c0 .1.1.2.2.2h1.1c.1 0 .2-.1.2-.2V53c.2-1.6-.8-2.5-2.4-2.5zM111.7 56.3c-.1-.1-.2 0-.3.1-.6 1-1 1.3-2 1.3-1.2 0-1.9-1.1-1.9-3s.7-3 1.9-3c1 0 1.5.8 1.7 1.4 0 .1.1.1.1.1h.2l1-.4c.1 0 .1-.1.1-.1v-.2c-.4-1.1-1.2-2.3-3.1-2.3-2.2 0-3.5 1.7-3.5 4.4s1.3 4.4 3.5 4.4c1.7 0 2.5-.8 3.3-2.1v-.2c0-.1-.1-.1-.1-.1l-.9-.3zM119.4 56.5c-.1-.1-.3 0-.3.1-.4.8-1.1 1.2-2 1.2-1.2 0-2-1.1-2.1-2.5h4.9c.1 0 .2-.1.2-.2v-.7c0-2.4-1.2-3.9-3.3-3.9-2.1 0-3.5 1.7-3.5 4.4 0 3.2 2 4.4 3.7 4.4 1.9 0 2.7-.9 3.3-2v-.2c0-.1-.1-.1-.1-.1l-.8-.5zm-4.4-2.6c.1-.8.5-2 1.9-2 1 0 1.6.8 1.7 2H115z"/></g></svg>