<svg xmlns="http://www.w3.org/2000/svg" width="159.3" height="62.4" viewBox="0 0 159.3 62.4"><path fill="#90A4AE" d="M13.5 10.9H14.7v4.5c0 .3-.1.4-.1.4 0 .1-.2.1-.3.1-.3-.1-.3.1-.3.2s.1.3.3.3h1.8c.2 0 .3-.1.3-.3 0-.1 0-.2-.3-.3-.3 0-.4-.2-.4-.4v-4.5H17c.3 0 .4 0 .4.1 0 0 .1.1.1.3 0 .2.2.3.3.3.1 0 .3-.1.3-.3v-.5c0-.3 0-.4-.1-.4-.1-.1-.2-.1-.4-.1H13c-.2 0-.3 0-.3.1-.1.1-.1.2-.1.4 0 .1 0 .3-.1.5 0 .2-.1.3-.1.4 0 .2.1.3.3.3.1 0 .2-.1.3-.3.1-.3.1-.4.2-.4 0-.4.1-.4.3-.4M19.7 10.5c.2 0 .3.1.4.2.1.1.1.2.1.4v3.7c0 .4 0 .6-.1.8 0 .1-.1.2-.1.2h-.2c-.2.1-.2.2-.2.3 0 .1.1.3.3.3H21.9c.1 0 .2 0 .2-.1 0 0 .1-.1.1-.2s0-.2-.3-.3c-.2 0-.3-.1-.4-.2 0-.1-.1-.2-.1-.5V13.4H24.2V15.3c0 .5-.2.5-.3.6-.3 0-.3.2-.3.3 0 .1 0 .1.1.2s.1.1.2.1h1.7c.1 0 .2 0 .2-.1s.1-.1.1-.2 0-.2-.3-.3c-.2 0-.3-.1-.4-.1 0 0-.1-.2-.1-.5V11c0-.1 0-.2.1-.3l.1-.1h.2c.2-.1.2-.2.2-.3 0-.1-.1-.3-.3-.3h-1.7c-.2 0-.3.1-.3.2s0 .2.3.3c.2 0 .3.1.3.2s.1.2.1.5v1.5H21.3V11c0-.2 0-.3.1-.4 0 0 .1-.1.3-.1.2-.1.2-.2.2-.3 0-.1-.1-.3-.3-.3h-1.8c-.2 0-.3.1-.3.3-.1.1-.1.3.2.3M27.7 10.6c.2 0 .3 0 .4.1 0 .1.1.2.1.7v3.9c0 .4-.1.4-.2.4h-.2c-.2.1-.2.2-.2.3 0 .1.1.3.3.3h1.3c.3 0 .8 0 1.3.1h.3c.4 0 .8-.2 1.1-.5.2-.3.4-.5.4-.8 0-.2-.1-.3-.3-.3-.1 0-.2.1-.2.2-.3.4-1 .7-2 .7-.5 0-.6-.1-.6-.1s-.1 0-.1-.3V13.6h1.1c.3 0 .4 0 .4.1.1 0 .1.1.1.3v.1c0 .1.1.2.3.2.1 0 .3-.1.3-.3v-1.4c0-.2-.1-.3-.3-.3-.1 0-.2 0-.3.2 0 .2-.1.3-.1.3l-.2.1h-1.5v-2H29.8c.4 0 .7 0 .9.1.1 0 .2.1.2.2v.5c0 .1.1.1.2.1s.2-.1.3-.2c0-.1 0-.2.1-.4v-.6c0-.2-.1-.3-.3-.3h-2c-.6 0-1 0-1.4-.1h-.3c-.3 0-.4.2-.4.3.3-.1.4.1.6.1M37.2 10.6h.2c.1 0 .2.1.3.2.1.1.2.4.4.8l1.9 4.5c.1.2.2.4.4.4.1 0 .2-.1.3-.3l.9-2.2.9 2.1c.1.2.2.3.3.3.1 0 .3-.1.4-.3l.7-1.6.5-1.2c.1-.3.3-.6.5-1.1.2-.5.4-.8.5-1l.2-.5c0-.1.1-.1.2-.2.2-.1.2-.2.2-.3 0-.2-.1-.3-.3-.3h-1.3c-.2 0-.3.1-.3.3 0 .1.1.2.3.3.2 0 .2.1.2.1s0 .3-.5 1.4c-.3.8-.7 1.7-1 2.5 0 .1-.1.1-.1.2v-.1l-.8-2 .7-1.6c.1-.3.2-.5.2-.5l.1-.1c.2-.1.3-.2.3-.3 0-.1-.1-.3-.3-.3H42c-.2 0-.3.1-.3.3 0 .1 0 .3.3.3.1 0 .1.1.1.1 0 .1-.1.4-.4 1.2l-.3-.7c-.1-.3-.1-.4-.1-.5 0 0 0-.1.1-.1.2-.1.2-.2.2-.3 0-.1-.1-.3-.3-.3h-1.6c-.3 0-.4.2-.4.2 0 .3.4.3.5.3.1 0 .2 0 .2.1 0 0 .1.2.3.5l.7 1.7s0 .1.1.2l-.7 1.6v-.1l-.4-.6c-.1-.2-.3-.6-.4-1-.2-.5-.4-.9-.5-1.1-.3-.6-.3-.8-.3-.9l.1-.1c.1 0 .2-.1.2-.3 0-.2-.1-.3-.3-.3H37.1c-.2 0-.3.1-.3.3.1.2.2.3.4.3M47.5 10.6c.2 0 .3.1.4.2 0 .1.1.2.1.6V15c0 .4-.1.6-.1.6 0 .1-.1.1-.3.1-.3 0-.3.2-.3.3 0 .1.1.3.3.3H49.5c.2 0 .3-.1.3-.3 0-.2-.1-.2-.4-.3-.1 0-.3-.1-.3-.1-.1 0-.1-.1-.1-.2s-.1-.2-.1-.7v-3.2c0-.6.1-.8.2-.9l.2-.1c.2-.1.2-.2.2-.3 0-.1-.1-.3-.3-.3H47.4c-.1 0-.2 0-.2.1-.1 0-.1.1-.1.2.1.2.1.3.4.4M53.8 16.3h.8c.6 0 1.1-.2 1.3-.5.2-.3.3-.5.3-.7 0-.1 0-.1-.1-.2 0 0-.1-.1-.2-.1s-.2 0-.3.2c-.1.2-.3.3-.7.4-.4.1-.8.2-1.3.2h-.5v-4.4c0-.5.2-.6.2-.6h.2c.2-.1.3-.2.3-.3 0-.1-.1-.2-.3-.2h-1.8c-.2 0-.3.1-.3.3 0 0 0 .2.2.3h.2c.2 0 .3.2.3.5v4c0 .3 0 .4-.1.5 0 .1-.2.1-.3.2-.2.1-.2.2-.2.3 0 .1 0 .1.1.2 0 0 .1.1.2.1h.3c.2 0 .5-.1.9-.1.2-.1.5-.1.8-.1M57.7 10.6h.2c.2 0 .3.2.3.5v4c0 .3 0 .4-.1.5 0 .1-.1.1-.3.2-.2.1-.2.2-.2.3 0 .1 0 .1.1.2 0 0 .1.1.2.1h.3c.2 0 .5-.1.9-.1h1.6c.6 0 1.1-.2 1.3-.5.2-.3.3-.5.3-.7 0-.1 0-.1-.1-.2 0 0-.1-.1-.2-.1-.2 0-.2.2-.3.2-.1.2-.3.3-.6.4-.4.1-.8.2-1.3.2h-.5s-.1-.1-.1-.5v-3.9c0-.5.2-.6.2-.6h.2c.2-.1.3-.2.3-.3 0-.1-.1-.2-.3-.2h-1.8c-.2 0-.3.1-.3.3 0 0 0 .1.2.2M63.9 10.6c.3 0 .4.1.4.2s.1.2.1.6V15c0 .4 0 .6-.1.6 0 .1-.1.1-.3.1-.2 0-.3.2-.3.3 0 .1.1.3.3.3H65.9c.2 0 .3-.1.3-.3 0-.2-.1-.2-.4-.3-.1 0-.3-.1-.3-.1-.1 0-.1-.1-.1-.2s-.1-.2-.1-.7v-3.2c0-.6.1-.8.2-.9l.2-.1c.2-.1.2-.2.2-.3 0-.1-.1-.3-.3-.3H63.8c-.1 0-.2 0-.2.1s-.1.1-.1.2c.1.2.1.3.4.4"/><path fill="#90A4AE" d="M68.1 16.3h1.5c.1 0 .2 0 .2-.1 0 0 .1-.1.1-.2s0-.2-.3-.3c-.2-.1-.3-.1-.3-.1v-.2c0-.1 0-.2.2-.6l.3-.6c.1-.2.1-.3.1-.3h2s0 .1.1.2l.2.6c.2.6.3.8.3.8 0 .1 0 .1-.1.1h-.1c-.2 0-.2.2-.2.3 0 .1.1.3.3.3h1.9c.2 0 .3-.1.3-.2s0-.2-.3-.3c-.3-.1-.4-.1-.4-.2 0 0-.1-.1-.3-.6L71.7 10c-.1-.2-.2-.2-.3-.2-.1 0-.2 0-.3.2l-2.5 5-.1.3c-.1.1-.1.2-.2.3l-.1.1H68c-.1 0-.2.1-.2.3 0 .2.1.3.3.3m3.4-3.1c0 .1 0 .1 0 0l-1.3.1h-.1l.7-1.7.7 1.6zM75.5 10.6c.3 0 .4.2.5.4.1.2.2.6.2 1 0 .2 0 .8-.1 1.7l-.1 1.2c0 .4-.1.6-.1.7-.1.1-.2.2-.3.2-.2 0-.2.2-.2.3 0 .1.1.3.3.3h1.7c.2 0 .3-.1.3-.3 0-.2-.3-.3-.4-.3-.1 0-.4-.1-.4-.7v-1l.1-1.4 1.3 2.8.1.2c0 .1.1.2.1.2.1.2.2.3.4.3s.3-.1.3-.3l.1-.2c.1-.1.2-.3.2-.5l.2-.6.6-1.1.4-.8c0-.1.1-.2.2-.3l.1 2.1v.7c0 .3 0 .4-.1.5 0 .1-.1.1-.2.1-.2.1-.2.2-.2.3 0 .1.1.3.3.3h1.6c.2 0 .3-.1.3-.3 0-.2-.3-.3-.4-.3-.2 0-.3-.1-.3-.1s-.1-.1-.1-.4l-.1-2.9v-1c0-.4 0-.6.1-.6 0-.1.1-.1.2-.2h.2c.1 0 .2-.1.2-.3 0-.2-.1-.3-.3-.3h-.8c-.1 0-.2 0-.2.1 0 0-.1.1-.1.2l-2 4.3-1.9-4.1v-.1c-.1-.3-.3-.4-.5-.4h-1.1c-.2 0-.3.1-.3.3 0 .1 0 .3.2.3"/><path fill="#90A4AE" d="M87.6 16.3H89.2s.2 0 .2-.1c0 0 .1-.1.1-.2s0-.2-.3-.3c-.2-.1-.3-.1-.3-.1v-.2c0-.1 0-.2.2-.6l.3-.6c.1-.2.1-.3.1-.3h2s0 .1.1.2l.2.6c.2.6.3.8.3.8 0 .1 0 .1-.1.1h-.1c-.2 0-.2.2-.2.3 0 .1.1.3.3.3h1.9c.2 0 .3-.1.3-.2s0-.2-.3-.3c-.3-.1-.4-.1-.4-.2 0 0-.1-.1-.3-.6L91.3 10c-.1-.2-.2-.2-.3-.2-.1 0-.2.1-.3.2l-2.5 5-.2.3c-.1.1-.1.2-.2.3l-.1.1h-.2c-.1 0-.2.1-.2.3 0 .2.1.3.3.3m2.1-3l.8-1.7.6 1.6v.1H89.7zM96.9 15.8c-.3 0-.3-.1-.4-.1 0 0-.1-.1-.1-.3V12.2l3.5 4 .1.1c.1.1.1.1.2.1s.3-.1.3-.2V11.3c0-.3 0-.4.1-.5 0-.1.1-.1.2-.1s.2-.1.2-.3c0-.2-.1-.2-.3-.2h-1.6c-.2 0-.3.1-.3.3 0 .1 0 .2.3.3.3.1.5.1.5.2.1.1.1.2.2.4v3.4L96 10.5c0-.4-.1-.5-.3-.5H95c-.2 0-.3.1-.3.3 0 .1 0 .2.3.3.2 0 .4.2.5.4.1.3.2.6.2 1.1V15c0 .3 0 .5-.1.6-.1.1-.2.2-.4.3-.2 0-.2.1-.2.2s.1.2.3.2h1.6c.2 0 .3-.1.3-.3 0-.1-.1-.2-.3-.2M103.1 10.6c.2 0 .3.1.4.2 0 .1.1.2.1.5v3.9c0 .4 0 .5-.1.5 0 .1-.1.1-.3.1-.2 0-.3.2-.3.3 0 .1.1.3.3.3h2.5c.7 0 1.3-.2 1.8-.5.4-.3.8-.7 1-1.1.2-.5.4-1 .4-1.6 0-.9-.3-1.6-.9-2.2-.6-.6-1.5-.9-2.8-.9h-2.3c-.2 0-.3.1-.3.3.2 0 .3.2.5.2m2.8 5.1c-.2 0-.3 0-.6-.1-.2 0-.4-.1-.5-.1-.1 0-.1-.1-.1-.2V10.7s.2-.1.7-.1c.6 0 1.1.1 1.5.4.3.2.6.6.8 1 .2.4.3.9.3 1.4 0 .9-.3 1.6-.9 1.9-.4.3-.8.4-1.2.4M114.4 10.6c.2 0 .3 0 .3.1 0 0 .1 0 .1.1.1.1.1.3.1.5v3.9c0 .3 0 .5-.1.5 0 .1-.1.1-.3.1-.2 0-.3.2-.3.3 0 .1 0 .2.1.2h2c.1 0 .2 0 .2-.1s.1-.1.1-.2-.1-.2-.3-.2c-.1 0-.3 0-.3-.1-.1-.1-.1-.2-.1-.4v-1.8h.6c.4 0 .6 0 .8.1h.1s0 .1.1.2c.1.3.2.3.3.3.1 0 .3-.1.3-.3V12.5c0-.1 0-.2-.1-.2 0 0-.1-.1-.2-.1s-.2 0-.3.2c0 .1-.1.2-.2.3-.1 0-.2.1-.5.1h-1.1v-2h1.1l.5.1h.3l.1.2v.2c0 .2.1.3.2.3s.3-.1.3-.4c0-.3 0-.5.1-.7v-.2c0-.2-.1-.3-.3-.3H114.1c-.1 0-.2 0-.3.1 0 .1-.1.1-.1.2.5.1.6.2.7.3M120.3 10.6h.2c.2 0 .3.2.3.5v4c0 .3-.1.4-.1.5 0 .1-.1.1-.3.2-.2.1-.2.2-.2.3 0 .1 0 .1.1.2 0 0 .1.1.2.1h.3c.2 0 .5-.1.9-.1h1.6c.6 0 1.1-.2 1.3-.5.2-.3.3-.5.3-.7 0-.1 0-.1-.1-.2 0 0-.1-.1-.2-.1s-.2 0-.3.2c-.1.2-.3.3-.7.4-.4.1-.8.2-1.3.2h-.5s-.1-.1-.1-.5v-3.9c0-.5.2-.6.2-.6h.2c.2-.1.3-.2.3-.3 0-.1-.1-.2-.3-.2h-1.8c-.2 0-.3.1-.3.3.1 0 .1.1.3.2M129.4 10c-.4 0-.9.1-1.3.3-.4.2-.8.4-1.1.7-.3.3-.5.6-.6 1-.2.4-.2.8-.2 1.2 0 1 .3 1.7.9 2.3.6.6 1.4.9 2.4.9.9 0 1.7-.3 2.3-.9s.9-1.4.9-2.4c0-.9-.3-1.7-.9-2.2-.7-.6-1.5-.9-2.4-.9m.1 5.8c-.7 0-1.2-.3-1.7-.8-.5-.6-.7-1.3-.7-2.1 0-.7.2-1.3.5-1.7.3-.4.8-.6 1.4-.6.7 0 1.3.3 1.8.8s.7 1.2.7 2c0 .7-.2 1.3-.6 1.7-.2.5-.7.7-1.4.7M134.5 10.6h.2c.1 0 .3.1.3.6v3.5c0 .6-.1.8-.1.9 0 .1-.1.2-.3.2-.2 0-.2.2-.2.3 0 .1.1.3.3.3H136.6c.1 0 .2 0 .3-.1 0-.1.1-.1.1-.2s0-.2-.3-.3c-.2 0-.4-.1-.5-.1-.1 0-.1-.1-.1-.2v-2h.5c.1 0 .2 0 .2.1l1.1 1.7c.2.3.4.6.7.7.2.2.5.2.8.2.2 0 .3 0 .5-.1.1 0 .3-.1.3-.3 0-.1-.1-.2-.2-.2h-.1c-.2 0-.6-.3-.9-.8l-1.2-1.8c.6-.4 1-.9 1-1.6 0-.5-.2-1-.6-1.2-.4-.3-.9-.4-1.6-.4H134.6c-.2 0-.3.1-.3.3 0 .3 0 .4.2.5m1.6.1h.2c.4 0 .7.1 1 .4.3.2.4.5.4.9 0 .3-.1.5-.3.7-.2.2-.4.3-.8.3h-.6v-2.1c.1-.1.1-.2.1-.2"/><path fill="#90A4AE" d="M141.2 16.3H142.8c.1 0 .2 0 .2-.1 0 0 .1-.1.1-.2s0-.2-.3-.3c-.2-.1-.3-.1-.3-.1v-.2c0-.1 0-.2.2-.6l.3-.6c.1-.2.1-.3.1-.3h2.1s0 .1.1.2l.2.6c.2.6.3.8.3.8 0 .1 0 .1-.1.1h-.1c-.2 0-.2.2-.2.3 0 .1.1.3.3.3h1.9c.2 0 .3-.1.3-.2s0-.2-.3-.3c-.3-.1-.4-.1-.4-.2 0 0-.1-.1-.3-.6L145 10c-.1-.2-.2-.2-.3-.2-.1 0-.2.1-.3.2l-2.2 4.9-.1.3c-.1.1-.1.2-.2.3l-.1.1h-.2c-.1 0-.2.1-.2.3s-.4.4-.2.4m2-3l.8-1.7.6 1.6v.1H143.2zM24.9 38.2h3.2c.2 0 .4.1.6.1.2 0 .3 0 .4-.1.1-.1.1-.2.1-.3 0-.1-.1-.3-.5-.4-.6-.1-.9-.2-1.1-.5-.2-.3-.3-.8-.3-1.5V25c0-.3.1-.6.2-.9.1-.2.3-.4.4-.4l.4-.1c.3-.1.4-.3.4-.4 0-.2-.1-.4-.4-.4h-.4c-.3 0-.8.1-1.6.1-.5 0-1 0-1.5-.1-.3 0-.6-.1-.8-.1-.4 0-.4.3-.4.3 0 .1 0 .4.4.4.5.1.8.3 1 .6.2.3.3.8.3 1.5v3.7c0 .2 0 .2-.1.2 0 0-.1.1-.5.1h-6.4c-.6 0-.7-.1-.7-.1s-.1-.1-.1-.6v-3.9c0-.5.1-.9.2-1 .1-.2.4-.3.9-.5.4-.1.4-.3.4-.4 0-.1 0-.4-.5-.4H18c-.4.1-.9.1-1.4.1-.7 0-1.4 0-2-.1-.3 0-.5-.1-.7-.1-.3 0-.4.2-.4.4 0 .1.1.4.5.4.6.1 1 .3 1.2.5.2.2.3.7.3 1.3v9.3c0 1-.1 1.7-.2 2.1-.1.3-.3.5-.5.6l-.5.1c-.4.1-.4.3-.4.4 0 .2.1.4.4.4H17.3c.6 0 1.1 0 1.3.1h.6c.2 0 .3 0 .4-.1.1-.1.1-.2.1-.3 0-.1-.1-.4-.6-.4-.6-.1-1-.2-1.2-.5-.2-.3-.3-.8-.3-1.5v-4c0-.4.1-.5.1-.5s.1-.1.7-.1h6.9v4.9c0 1-.3 1.6-1 1.7-.4.1-.5.3-.5.4 0 .1 0 .2.1.3.1.1.2.1.3.1 0 .2.2.2.7.1zM43.9 38.3c1 0 1.9-.4 2.5-1.2.6-.7.8-1.3.8-1.8 0-.4-.3-.5-.4-.5-.1 0-.3.1-.4.3-.8 1.2-2.6 1.8-5.3 1.8-1.1 0-1.5-.1-1.6-.2-.1-.1-.3-.3-.3-1v-4.4c0-.1 0-.2.1-.3.1 0 .2-.1.6-.1h2.4c.6 0 1 .1 1.2.2.2.1.4.4.4.9l.1.3c0 .2.2.4.5.4.1 0 .4 0 .4-.4V32c0-.4-.1-.9-.1-1.3 0-.6 0-1.2.1-1.9v-.3c0-.4-.3-.5-.4-.5-.1 0-.4 0-.4.4-.1.6-.2.8-.3.8 0 .1-.2.2-.7.3-.4.1-1 .1-1.8.1h-2.1s-.1-.1-.1-.5v-4.4c0-.4.1-.6.1-.6s.2-.1.8-.1h1.7c1.1 0 1.9.1 2.3.2.4.1.6.3.7.5.3.3.3.5.3.7v.3c0 .1 0 .2.1.3.1.1.2.2.3.2.2 0 .3-.1.4-.3 0-.1.1-.4.1-.8v-.6c0-.6.1-.8.1-.8v-.3c0-.3-.2-.5-.5-.5h-1.3l-1.4.1h-2.3c-1.4 0-2.7-.1-3.7-.2-.3 0-.6-.1-.7-.1-.6 0-.7.3-.7.5 0 .1 0 .4.5.4.6 0 1 .2 1.2.5.2.3.3 1 .3 2V36c0 .8-.2 1.2-.7 1.4l-.4.1c-.4.1-.4.3-.4.4 0 .1.1.4.5.4.1 0 .3 0 .6-.1.5-.1 1.4-.1 2.7-.1.9 0 2 .1 3.4.2h.8M73.4 25.6l.6-1.3c.1-.3.3-.5.6-.6.4-.1.4-.3.4-.5 0-.3-.2-.4-.4-.4-.1 0-.3 0-.5.1-.3 0-.8.1-1.5.1h-1.5c-.5 0-.5.3-.5.4 0 .3.2.4.6.5.5.1.8.3.8.5s-.2 1-1.2 3.7c-.8 2.1-1.7 4.3-2.6 6.4-.1.3-.2.5-.3.5-.1.2-.2.3-.2.4-.1-.1-.2-.3-.4-.7l-2.1-5.1 1.7-4.1c.4-1 .6-1.3.7-1.4.1-.1.3-.3.5-.3.1 0 .5-.1.5-.5 0-.1 0-.4-.5-.4h-3c-.5 0-.6.2-.6.4 0 .3.2.4.7.5.6.1.6.4.6.5 0 .5-.4 1.7-1.2 3.5 0 0 0 .1-.1.1l-1-2.3c-.2-.6-.4-1-.4-1.3 0-.2.1-.4.4-.5.1 0 .5-.2.5-.5 0-.1-.1-.4-.6-.4h-.5c-.4 0-.8.1-1 .1l-2.1-.1h-.4c-.5 0-.6.2-.6.4 0 .4.5.5 1 .6.3 0 .6.2.7.3.2.2.4.7.8 1.4l1.9 4.4c0 .1.1.2.2.5l.1.1-1.8 4.3-.2.1c0 .1 0 .1-.1.1V35l-.1-.2c0-.1-.1-.2-.2-.5L60 32c-.2-.5-.6-1.4-1.1-2.7-.5-1.3-.9-2.3-1.2-2.8-.6-1.5-.8-2-.8-2.3 0-.2.2-.4.6-.5.3-.1.4-.3.4-.4 0-.3-.2-.4-.5-.4H54.5c-.4 0-.8 0-1.1-.1h-.3c-.5 0-.5.3-.5.4 0 .1 0 .4.4.4l.4.1c.4.1.7.3 1 .7.3.4.6 1 1 2l.3.7L60.2 38c.3.6.5.9.8 1 .3 0 .4-.3.5-.6l2.6-6.1 2.5 5.9c.2.4.4.6.6.6.3 0 .5-.2.7-.7l.2-.3.8-1.7.9-2 1.3-2.9c.3-.6.7-1.6 1.2-2.9.5-1.4.9-2.2 1.1-2.7"/><path fill="#90A4AE" d="M87.7 38.3h.8c1.4 0 2.5-.4 3.2-1.2.5-.6.7-1.2.7-1.7 0-.1 0-.2-.1-.3-.1-.1-.1-.1-.3-.1-.2 0-.3.1-.5.4-.3.5-.9.9-1.8 1.2-1 .3-2.1.5-3.5.5-1.2 0-1.5-.1-1.5-.2-.1-.1-.2-.3-.2-1.4v-9.8c0-1 .3-1.6.8-1.8l.4-.1c.4-.1.5-.3.5-.5 0-.1 0-.3-.4-.3h-.5c-.6 0-1.2.1-1.8.1-.6 0-1.1 0-1.6-.1h-.7c-.5 0-.5.3-.5.4 0 .1.1.3.4.4l.5.1c.7.1 1 .6 1 1.5v10.1c0 .7-.1 1.1-.2 1.4-.1.3-.5.4-.9.6-.4.1-.4.3-.4.4 0 .1 0 .2.1.3.1.1.2.1.3.1.2 0 .4 0 .6-.1.6-.1 1.3-.1 2.2-.1.8 0 1.5 0 2.2.1l1.2.1zM109.6 34.9c-.2 0-.3.1-.4.3-.8 1.2-2.6 1.8-5.3 1.8-1.1 0-1.5-.1-1.6-.2-.2-.1-.3-.5-.3-1v-4.4c0-.1 0-.2.1-.3.1 0 .2-.1.6-.1h2.4c.6 0 1 .1 1.2.2.2.1.4.4.4.9l.1.3c0 .2.2.4.4.4.1 0 .4 0 .4-.4v-.3c0-.4-.1-.9-.1-1.3 0-.6 0-1.2.1-1.9v-.3c0-.3-.2-.5-.4-.5-.1 0-.4.1-.4.4-.1.6-.2.8-.3.8-.1.1-.2.2-.7.3-.4.1-1 .1-1.8.1h-2.1s-.1-.1-.1-.5v-4.4c0-.4.1-.6.1-.6s.2-.1.7-.1h1.7c1.1 0 1.9.1 2.3.2.4.1.6.3.7.5.1.2.1.4.1.6v.3c0 .1 0 .3.1.3.1.1.2.2.3.2.2 0 .3-.1.4-.3 0-.1.1-.4.1-.8v-.6c0-.6.1-.8.1-.8v-.3c0-.3-.2-.5-.5-.5h-1.3l-1.5.1h-2.3c-1.4 0-2.7-.1-3.7-.2-.3 0-.6-.1-.7-.1-.6 0-.7.3-.7.5 0 .1 0 .4.5.4.6 0 1 .2 1.2.5.2.3.3 1 .3 2V36c0 .8-.2 1.2-.7 1.4v.1c-.4.1-.4.3-.4.4 0 .1 0 .4.5.4.2 0 .4 0 .6-.1.5-.1 1.4-.1 2.7-.1.9 0 2 .1 3.4.2h.9c1 0 1.9-.4 2.5-1.2.6-.7.8-1.3.8-1.8 0-.4-.3-.4-.4-.4"/><path fill="#90A4AE" d="M122.6 38.2H124.3c.3 0 .5.1.6.1.4 0 .5-.3.5-.4 0-.2-.1-.3-.5-.4-.8-.1-1.2-.6-1.3-1.3V25.1c0-.4.1-.5.1-.5s.1-.1.5-.1h3c.7 0 1 .1 1.1.2.2.1.3.4.4.9.1.4.3.5.4.5.1 0 .4-.1.4-.5 0-.1 0-.3-.1-.5 0-.2-.1-.5-.1-.9 0-.5-.1-.8-.2-.9-.1-.1-.4-.2-.8-.2h-11.7c-.3 0-.5.1-.6.2-.1.1-.1.4-.1.8 0 .3-.1.7-.2 1.2-.1.4-.1.7-.1.9 0 .4.2.5.4.5.3 0 .4-.4.5-.5.1-.6.3-1 .6-1.2.2-.2.6-.3 1.2-.3h2.9c.3 0 .4.1.4.1s.1.1.1.4V36.3c0 .6-.1 1-.3 1.2-.2.2-.5.3-1 .4-.4 0-.5.2-.5.4 0 .1 0 .4.5.4.1 0 .3 0 .7-.1h.8l.7-.4zM147.8 25c0-.2-.1-.5-.1-.9 0-.5 0-.8-.2-.9-.1-.1-.4-.2-.8-.2H135c-.3 0-.5.1-.6.2-.1.1-.1.4-.1.8 0 .3-.1.7-.2 1.2-.1.4-.1.7-.1.9 0 .4.2.5.4.5s.4-.2.5-.5c.1-.6.3-1 .6-1.2.2-.2.6-.3 1.2-.3h2.9c.3 0 .4.1.4.1s.1.1.1.4V36.2c0 .6-.1 1-.3 1.2-.2.2-.5.3-1 .4-.4 0-.5.2-.5.4 0 .1 0 .4.5.4.1 0 .3 0 .7-.1H142.9c.3 0 .5.1.6.1.4 0 .5-.3.5-.4 0-.2-.1-.3-.5-.4-.8-.1-1.2-.6-1.3-1.3V25.1c0-.4.1-.5.1-.5s.1-.1.5-.1h3c.7 0 1 .1 1.1.2.2.1.3.4.4.9.1.4.3.5.4.5.1 0 .4-.1.4-.5-.2-.2-.2-.4-.3-.6M19.6 44.2h-.3c-.1 0-.4 0-.8.1l-1 .1h-1.7c-1 0-1.7 0-2.1-.1h-.4c-.2 0-.3 0-.4.1-.1.1-.1.1-.1.2s0 .3.3.3.5.1.5.1c.1 0 .2.1.2.3.1.2.2.5.2.9v6.3c0 .5-.1.8-.1.9-.1.1-.2.2-.5.3-.3.1-.4.2-.4.3 0 .1 0 .2.1.2s.1.1.2.1H16.3c.1 0 .2 0 .3-.1.4-.1.4-.1.4-.2s0-.3-.4-.3c-.3 0-.5-.1-.7-.3-.2-.2-.2-.4-.2-.8v-3H16.9c.6 0 1 0 1.3.1.1 0 .2.1.2.1s.1.1.2.4c0 .1.1.5.4.5.1 0 .3-.1.3-.3v-2.3c0-.1 0-.2-.1-.3-.1-.1-.1-.1-.2-.1s-.3 0-.3.3-.1.4-.3.5c-.2.1-.4.2-.8.2h-1.8v-3.1c0-.2 0-.3.1-.4 0 0 .2-.1.9-.1h1l.8.1c.4 0 .5.1.5.1s.1.1.2.4c0 .1.1.3.1.4 0 .3.2.3.3.3.1 0 .4 0 .4-.5s0-.9.1-1.2v-.3c-.2-.1-.4-.2-.6-.2M30 44.1c-.7 0-1.4.1-2.1.4-.7.3-1.3.6-1.7 1.1-.4.4-.8 1-1 1.6-.3.6-.4 1.3-.4 2 0 1.5.5 2.8 1.4 3.7 1 .9 2.2 1.4 3.8 1.4 1.5 0 2.8-.5 3.7-1.5 1-1 1.5-2.3 1.5-3.8s-.5-2.7-1.5-3.6c-1-.8-2.2-1.3-3.7-1.3m.2 9.6c-1.1 0-2.1-.5-2.9-1.4-.8-.9-1.2-2.1-1.2-3.5 0-1.2.3-2.1.9-2.8.6-.7 1.4-1 2.4-1 1.2 0 2.2.5 3 1.3.8.9 1.2 2 1.2 3.4 0 1.2-.3 2.1-1 2.9-.5.7-1.3 1.1-2.4 1.1M50.4 44.3H48.6c-.2 0-.4-.1-.5-.1-.2 0-.3.1-.3.3 0 .1 0 .3.4.3.3 0 .6.2.7.4.1.2.2.6.2 1.2V50c0 1.2-.3 2.1-.8 2.6-.5.6-1.3.9-2.4.9-1.2 0-2-.3-2.5-1-.4-.5-.6-1.3-.6-2.5v-4c0-.5.1-.8.1-.9.1-.1.2-.2.4-.3.3-.1.4-.2.4-.3 0-.1-.1-.3-.3-.3H40.5c-.4 0-.4.3-.4.3 0 .1 0 .3.3.3.4.1.6.2.7.3.1.2.2.5.2.9v4c0 1 .2 1.8.5 2.5.3.6.8 1 1.5 1.3.7.3 1.4.5 2.2.5.7 0 1.4-.1 2-.4.6-.3 1.1-.6 1.5-1.1.5-.7.8-1.7.8-3v-3.5c0-.7.1-1 .1-1.1.1-.2.2-.3.5-.4.2-.1.3-.2.3-.3 0-.1-.2-.2-.3-.2M65.4 44.3h-1.1c-.5 0-.9 0-1.3-.1h-.3c-.3 0-.4.2-.4.3 0 .1 0 .3.4.3.4.1.7.2.9.3.1.1.2.4.3.7l.1 1.6v4.2l-6.4-7.3c-.1-.2-.3-.3-.5-.3H55.9c-.2 0-.3.1-.3.3 0 .1 0 .3.3.3.4.1.8.3 1 .7.2.4.4 1 .4 1.8v4.8c0 .5-.1.8-.2 1-.1.2-.3.3-.7.5-.3.3-.4.5-.4.6 0 .1.1.3.4.3H59c.2 0 .3-.1.3-.3 0-.1 0-.3-.4-.4-.4-.1-.6-.2-.6-.2-.1-.1-.2-.3-.2-.5v-5.6L64 54l.2.2c.1.1.2.1.3.1.2 0 .3-.1.4-.3v-8c0-.5.1-.8.1-.8.1-.1.2-.2.5-.3.3-.1.3-.2.3-.3-.1-.2-.2-.3-.4-.3M75.2 44.2h-.9l-.6.1h-2.2c-.3 0-.4.2-.4.3 0 .1 0 .3.4.3.3 0 .5.1.7.3.1.2.2.5.2.9v6.3c0 .6-.1.9-.1.9-.1.1-.2.2-.5.3-.3.1-.3.2-.3.3 0 .2.1.3.4.3h.4c.4 0 .8-.1 1.3-.1.4 0 1 0 1.6.1h.7c1 0 2-.3 2.9-.8.7-.4 1.3-1 1.7-1.8.4-.8.6-1.6.6-2.5 0-1.4-.5-2.6-1.4-3.5-1.1-.9-2.6-1.4-4.5-1.4m.7 9.4c-.2 0-.6 0-.9-.1-.4-.1-.7-.1-.9-.2-.2-.1-.3-.2-.3-.4v-7.2c0-.3.1-.4.1-.4.1-.1.4-.2 1.3-.2 1 0 1.8.3 2.5.7.6.4 1 1 1.3 1.7.3.7.5 1.5.5 2.3 0 1.5-.5 2.6-1.5 3.3-.6.3-1.3.5-2.1.5M94.9 53.7c-.5-.1-.7-.2-.8-.3-.1-.1-.2-.3-.5-1l-3.2-8.1c-.1-.3-.2-.3-.4-.3s-.3.1-.4.3l-3.6 8-.2.5c-.1.2-.2.4-.4.6l-.3.3H85c-.2 0-.2.2-.2.3 0 .1.1.3.4.3H87.6c.1 0 .2 0 .3-.1 0-.1.1-.1.1-.2s-.1-.3-.4-.3c-.4-.1-.5-.2-.6-.2-.1-.1-.1-.2-.1-.3 0-.2.1-.5.3-1l.5-1c.2-.4.3-.5.3-.5s.1-.1.5-.1h2.9s.1.1.2.4l.4.9c.3.9.4 1.3.4 1.4 0 .2-.1.3-.2.3H92c-.3.1-.3.2-.3.3 0 .2.1.3.4.3H95.1c.3 0 .4-.1.4-.3-.3 0-.3-.2-.6-.2m-4-4.1H88.3s0-.1.1-.2l1.3-3 1.1 2.9.1.3c0-.1 0-.1 0 0M107.5 45.1c0-.3 0-.5-.1-.6-.1-.1-.3-.1-.6-.1h-7.5c-.2 0-.4.1-.5.2-.1.1-.1.3-.1.5s0 .5-.1.8c-.1.3-.1.5-.1.6 0 .2.1.4.3.4.2 0 .3-.1.4-.4.1-.4.2-.6.3-.8.1-.1.4-.2.7-.2h2.1v7.3c0 .3-.1.6-.2.7-.1.1-.3.2-.6.2s-.4.2-.4.3c0 .2.1.3.4.3h3c.3 0 .4-.2.4-.3 0-.1 0-.3-.4-.3-.5-.1-.8-.3-.8-.8V45.5h2.3c.5 0 .6.1.7.1.1 0 .2.2.2.5.1.3.2.4.4.4.1 0 .3-.1.3-.4v-.4c-.1-.2-.1-.3-.1-.6M115.8 53.6c-.3 0-.5-.1-.6-.2-.1-.1-.2-.2-.3-.4-.1-.2-.1-.6-.1-1.2v-5.2c0-1.2.3-1.5.4-1.5l.4-.1c.3-.1.3-.3.3-.3 0-.1-.1-.3-.4-.3h-1.6c-.6 0-1 0-1.3-.1h-.1c-.1 0-.2 0-.3.1-.1.1-.1.1-.1.2s.1.3.4.3c.4.1.6.2.7.3.1.1.2.4.2 1.1v6c0 .7-.1 1-.1 1.1-.1.1-.3.2-.6.3-.3 0-.4.2-.4.3 0 .1.1.3.4.3H115.8c.3 0 .4-.2.4-.3.1-.3-.2-.3-.4-.4M126.6 44.1c-.7 0-1.4.1-2.1.4-.7.3-1.3.6-1.7 1.1-.4.4-.8 1-1 1.6-.3.6-.4 1.3-.4 2 0 1.5.5 2.8 1.4 3.7 1 .9 2.2 1.4 3.8 1.4 1.5 0 2.8-.5 3.7-1.5 1-1 1.5-2.3 1.5-3.8s-.5-2.7-1.5-3.6c-.9-.8-2.2-1.3-3.7-1.3m.3 9.6c-1.1 0-2.1-.5-2.9-1.4-.8-.9-1.2-2.1-1.2-3.5 0-1.2.3-2.1.9-2.8.6-.7 1.4-1 2.4-1 1.2 0 2.2.5 3 1.3.8.9 1.2 2 1.2 3.4 0 1.2-.3 2.1-1 2.9-.5.7-1.4 1.1-2.4 1.1M146.4 44.3h-1.1c-.5 0-1 0-1.3-.1h-.3c-.3 0-.4.2-.4.3 0 .1 0 .3.3.3.4.1.8.2.9.3.1.1.2.4.3.7l.1 1.6v4.2l-6.4-7.3c-.2-.2-.3-.3-.5-.3H136.8c-.2 0-.3.2-.3.3 0 .1 0 .3.3.3.4.1.8.3 1 .7.2.4.4 1 .4 1.8v4.8c0 .5-.1.8-.2 1-.1.2-.3.3-.7.5-.3.1-.3.2-.3.4 0 .1.1.3.4.3h2.6c.2 0 .3-.1.3-.3 0-.1 0-.3-.4-.4-.4-.1-.6-.2-.6-.2-.1-.1-.2-.3-.2-.5v-5.6l5.9 6.7.2.2c.1.1.2.1.3.1.2 0 .3-.1.4-.3V46c0-.5.1-.8.1-.8.1-.1.2-.2.5-.3.3-.1.3-.2.3-.3 0-.1-.1-.3-.4-.3"/><path fill="#90A4AE" d="M159.3 62.4H0V0h159.3v62.4zM1.4 60.9h156.4V1.4H1.4v59.5z"/></svg>