<svg xmlns="http://www.w3.org/2000/svg" width="132" height="34.7" viewBox="0 0 132 34.7"><g fill="#97ABB5"><path d="M2.5 10.8h7.8c2.4 2.2 4.9 4.4 7.7 6.9C28.2 8.6 39.8 2.2 53.5 0 39.3 5.7 26.8 13.8 17 25.7c-4.9-5-9.8-10-14.5-14.9zM18.2 26c2.7 2.8 5.2 5.5 7.7 8.1h9c-4-4.5-7.8-8.8-11.8-13.3-1.6 1.7-3.3 3.4-4.9 5.2zM11.1 21.5C7.4 25.7 3.8 29.7 0 34.1h9.1c2.4-2.5 4.9-5.2 7-7.5-1.7-1.7-3.3-3.4-5-5.1zM47.9 28.2c-.1 0-.1 0 0 0h-.1l-.2.2c-1.3 1.3-2.5 1.9-3.9 1.9-2.5 0-4.4-2.1-4.4-4.8 0-2.7 1.9-4.7 4.2-4.7 1.8 0 2.9.9 3.9 1.9l.2.2h.2l2.7-2.9v-.1l-.2-.2c-1.8-2-3.9-2.9-6.7-2.9-4.9 0-8.7 3.9-8.7 8.8s3.8 8.7 8.7 8.7c3.5 0 5.4-1.6 6.8-3.1l.2-.2v-.1l-2.7-2.7zM59.5 16.8c-4.7 0-8.2 3.8-8.2 8.7 0 5.1 3.6 8.7 8.6 8.7 2.8 0 5.1-1.1 6.8-3.1l.2-.2v-.1l-2.6-2.3h-.1l-.2.2c-1.3 1.3-2.5 1.8-4.1 1.8-2.1 0-3.6-1.2-4.1-3.3h11.6s.1 0 .1-.1v-.4c0-.3.1-.6.1-.9-.1-4.5-2.5-9-8.1-9zm0 3.7c2.7 0 3.4 2.5 3.6 3.4h-7.3c.4-2 1.8-3.4 3.7-3.4zM79.1 16.8c-1.9 0-3.4.7-4.6 2.1v-1.7s0-.1-.1-.1h-4.3s-.1 0-.1.1v16.6s0 .1.1.1h4.3s.1 0 .1-.1v-9.3c0-2.2 1.3-3.6 3.2-3.6 2 0 3 1.3 3 3.5v9.4s0 .1.1.1h4.3s.1 0 .1-.1V23.3c0-4-2.3-6.5-6.1-6.5zM97.9 17.1h-4.2v-4.3s0-.1-.1-.1h-4.3s-.1 0-.1.1v4.3h-1.9s-.1 0-.1.1v3.7s0 .1.1.1h1.9v8c0 3.4 1.7 5.1 5 5.1 1.3 0 2.4-.3 3.5-.9l.2-.1V29.2h-.1l-.4.2c-.7.3-1.4.5-2.1.5-1.1 0-1.6-.5-1.6-1.6V21h4.2s.1 0 .1-.1l-.1-3.8c.1 0 .1 0 0 0zM105.1 17.1h-4.3s-.1 0-.1.1v16.6s0 .1.1.1h4.3s.1 0 .1-.1l-.1-16.7c.1 0 .1 0 0 0zM105.3 11.2h-4.5s-.1 0-.1.1v4.1s0 .1.1.1h4.5s.1 0 .1-.1l-.1-4.2zM124.6 16.9h-4.3s-.1 0-.1.1v1.4c-1.3-1.3-3-2-4.9-2-2.4 0-4.5.9-6 2.7-1.5 1.8-2.2 3.9-2.2 6.3 0 2.6.7 4.8 2.2 6.5 1.5 1.8 3.5 2.7 6.1 2.7 1.9 0 3.5-.6 4.8-1.9V34s0 .1.1.1h4.3s.1 0 .1-.1l-.1-17.1c.1 0 0 0 0 0zm-8.7 13.7c-1.3 0-2.4-.5-3.1-1.4-.8-1-1.2-2.2-1.2-3.6s.4-2.6 1.2-3.6c.8-1 1.8-1.4 3.1-1.4 1.4 0 2.4.5 3.2 1.4.8 1 1.2 2.2 1.2 3.6 0 1.5-.4 2.7-1.2 3.7-.7.9-1.8 1.3-3.2 1.3zM131.9 11h-4.3s-.1 0-.1.1v22.7s0 .1.1.1h4.3s.1 0 .1-.1l-.1-22.8c.1 0 .1 0 0 0z"/></g></svg>