<svg xmlns="http://www.w3.org/2000/svg" width="176.3" height="41.8" viewBox="0 0 176.3 41.8"><g fill="#97ABB5"><path d="M3.8 11.6c.1-.8.1-1.6 0-2.4 0-.2-.1-.4-.2-.6-.2.2-.3.3-.4.5v.1c.5 1.5.1 2.9-.9 4.1-.4.5-1 .8-1.6 1.1-.1.2-.1.4-.2.6 1.6-.4 3-1.8 3.3-3.4zM14.5 39.4c-.4-.9-1.2-1.5-2.2-2.1.6-.4 1.3-.8 1.7-1.2.5-.4.9-1 1.2-1.5.3-.6.6-1.2.8-1.8.3.5.5 1.1.9 1.6 1.4 2 4.2 2.7 6.5 1.2 1.4-.9 2.7-3.1 2.1-5.3-.4-1.4-1.2-2.5-2.5-3.1-.8-.4-1.6-.4-2.5-.4-1.6 0-2.9.7-3.8 2.1-.3.5-.5 1-.8 1.5-.5-2-1.6-3.5-3.4-4.4 2-1.5 3.1-3.3 2.7-5.8-.4-2.6-2-3.9-4.5-4.6 2.1-.8 2.8-1.3 3.9-3.3 1.5 2.9 1.7 2.7 3.6 4.1-.6.6-1.3 1-1.8 1.6-1 1.5-1.3 3.1-.8 4.7.8 2.2 2.3 3.4 4.7 3.6 1.8.1 3.2-.5 4.4-2 1.1-1.4 1.3-3 .9-4.6-.3-1.3-1.2-2.2-2.3-3-.1-.1-.2-.2-.3-.4 1.8-.9 3-2.2 3.6-4.2.5 1.5 1.4 2.5 2.6 3.1 1.3.6 2.7.7 4 .1 2.4-1 3.5-2.7 3.1-5.6-.2-1.9-1.6-3.7-4.7-4.1-.9-.1-1.9.1-2.8.7-1 .7-1.9 1.5-2.3 2.9-.4-1-.8-1.9-1.4-2.6-.2-1.1-1.1-1.6-1.9-2.1 2-1.4 2.8-3 2.8-4.3-.3-.1-.7-.2-1-.2 0 1.8-1 2.9-2.5 3.6-1.3.6-2.6.3-3.7-.4-1-.7-1.7-1.7-1.7-3.1V0c-.4.1-.7.1-1.1.2 0 1.9 1 3.3 2.7 4.3 0 .1-.1.1-.1.2-.1.1-.3.2-.4.2-1.5.7-2.5 1.9-3.1 3.5-.1.2-.2.3-.3.5-1-2.4-3-3.8-5.7-3.4C7.5 5.7 5.4 6.9 5 10c-.1 1 .1 1.9.6 2.8.7 1.4 1.9 2.2 3.6 2.6-.3.1-.4.2-.6.2-1.1.3-2 .9-2.7 1.7-1.2 1.3-1.5 2.9-1.2 4.5.3 1.5 1 2.8 2.4 3.7.1.1.2.2.3.4-1.6.8-2.7 2-3.2 3.7 0 .1-.1.2-.3.4-.3-1.1-.9-1.8-1.6-2.4-.6-.4-1.2-.9-1.9-1 .1.4.2.8.4 1.2 1.7.7 2.8 2.7 2.3 4.7.2.3.4.7.7 1l.3-.6c.2.8.5 1.5.9 2.1.4.5.8.9 1.3 1.3.4.4.9.7 1.4 1l-.1.1c.4.4.9.7 1.3 1 .8-.3 1.7-.3 2.4 0 1.3.5 2.1 1.3 2.5 2.6.5.2 1 .3 1.6.5-.1-.3-.2-.5-.2-.7-.2-.6-.5-1-.7-1.4zm6.4-12.1c2.4-.1 4.1 1.8 4.3 4.1-.3 2.6-1.8 4.3-4.3 4.4-2.5 0-4.2-1.6-4.3-4.1 0-2.5 1.9-4.5 4.3-4.4zM31.8 6.4c2-.1 4.1 2 4 4 0 1.1-.4 2-1.1 2.8-.8.8-1.8 1.3-2.9 1.2-2.5-.1-4-1.7-4.1-4 0-2.4 2.1-4 4.1-4zM25 20.9c0 2.2-1.8 4-4 4-2.1 0-3.8-1.6-4-3.6v-.4c0-2.2 1.8-4 4-4s4 1.8 4 4zM20.9 7.5c1.5 0 2.9 1.2 2.9 2.9 0 1.4-1.1 2.8-2.8 2.8-1.7.1-3-1.3-3-2.8 0-1.5 1.2-2.9 2.9-2.9zm-15 2.8c0-2.2 1.9-3.9 4.1-3.9 1.8-.1 4.3 1.8 4 4 .1 2.6-2.1 4.2-4 4.1-2.5-.1-4-1.9-4.1-4.2zm.5 10.6c.1-1.6 1.6-3.5 3.6-3.6 1.6 0 3.7 1.6 3.6 3.7-.1 1.8-1.4 3.6-3.6 3.5-1.7.2-3.7-1.8-3.6-3.6zm3.7 13.7c-1.8 0-3.2-1.4-3.2-3.2 0-1.8 1.4-3.2 3.2-3.2 1.8 0 3.2 1.4 3.2 3.2 0 1.8-1.5 3.2-3.2 3.2zM4.1 21.7c.3-2.5-1.1-5-3.9-5.7-.1.3-.1.7-.2 1 1.8.5 3 1.9 3.2 3.8.1.7-.2 1.4-.6 2.1-.6 1.1-1.5 1.7-2.6 2 .1.3.1.7.2 1 1.9-.4 3.7-2.1 3.9-4.2zM13.2 3.5c.9-.7 1.5-1.7 1.6-2.9-.2.1-.3.1-.5.2-.5 1.2-1 2.2-2.3 2.8-1.3.7-2.5.6-3.7.2-.2.1-.3.2-.5.3.6.4 1.3.5 2 .6 1.3.1 2.4-.4 3.4-1.2zM30.6 4.8c1.2.3 2.5.1 3.6-.5-.3-.3-.6-.5-1-.7-.5.2-1 .3-1.5.3-1.4-.1-2.5-.7-3.3-1.9-.2-.4-.4-.8-.5-1.2-.4-.1-.7-.2-1.1-.3.1 1.9 1.7 3.8 3.8 4.3zM39.2 17.3c-.6.5-1 1.3-1.3 2-.4 1.3-.3 2.6.3 3.9.5 1 1.2 1.6 2 2.1.4.3.9.4 1.3.4.1-.3.1-.6.2-1-1.8-.4-3-2-3.2-3.6-.1-.8.2-1.6.6-2.3.6-1 1.5-1.7 2.6-1.9-.1-.3-.1-.6-.2-.9-.9.1-1.6.7-2.3 1.3zM37.8 12.8c.6 1.3 1.7 2.2 3.1 2.7.2.1.5.2.7.3-.2-.8-.4-1.6-.7-2.4-1-.6-1.6-1.6-1.8-2.9 0-.2.1-.4.1-.6-.4-.7-.9-1.4-1.4-2-.8 1.7-.7 3.4 0 4.9zM31.9 16.1c-3 0-5 2.3-4.9 4.8 0 2.8 2 4.8 4.8 4.8 2.6.1 5-2.2 4.8-4.8.2-2.3-1.9-4.8-4.7-4.8zm-.1 9.1c-2.2 0-4.4-1.8-4.3-4.4.1-2.4 1.9-4 4.2-4.2 2.7.3 4.4 2.2 4.2 4.3.3 2.2-1.8 4.3-4.1 4.3zM37.9 29.4c-.6 1.3-.5 3 .1 4.1.3-.4.6-.9.9-1.3V32c-.1-1.5.3-3.3 2.1-4.1.2-.5.3-1 .5-1.6-1.5.4-2.8 1.5-3.6 3.1zM34.5 36.3c.4-.3.7-.5 1-.7.9-.9 1.5-1.9 1.7-3.2.4-2-.3-3.8-1.7-5.1-2.3-2.1-5.9-1.9-7.9.5-1 1.1-1.4 2.5-1.3 3.9.1 1.7.9 3.2 2.4 4.2.1.1.2.3.3.3-.7.6-1.4 1.1-1.9 1.7-.5.6-.9 1.5-1.3 2.2-1.6-3.3-4.6-3.8-6.7-3-1.9.8-3.2 2.6-3.2 4.3.4.1.7.2 1.1.2.1-.9.2-1.7.9-2.3.8-.9 1.7-1.4 2.8-1.5 1-.1 1.9.2 2.6.8 1 .8 1.2 1.2 1.6 3 1.6-.3 3.1-.8 4.5-1.4.5-.8 1.3-1.2 2.4-1.4.1 0 .2 0 .2.1 1.1-.7 2.1-1.4 3.1-2.3-.2 0-.5-.1-.6-.3zM31.7 35c-1.9 0-3.6-1.9-3.5-3.7-.1-1.6 1.6-3.6 3.5-3.5 2.3.1 3.3 1.4 3.7 3.5-.2 2.2-1.4 3.7-3.7 3.7zM54.7 17.7h2.1v-5.1h6.3v-1.9h-6.3V7.3h7.1v-2h-9.2zM72.1 5.1c-3.8 0-6.5 2.9-6.5 6.4 0 3.5 2.7 6.4 6.5 6.4s6.5-2.9 6.5-6.4c0-3.5-2.7-6.4-6.5-6.4zm0 10.8c-2.5 0-4.2-2-4.2-4.4 0-2.4 1.7-4.4 4.2-4.4s4.2 2 4.2 4.4-1.7 4.4-4.2 4.4zM91.3 9.2c0-2.4-1.8-3.9-4.6-3.9h-5.5v12.4h2.2v-4.3h2.7l3 4.3h2.6L88.4 13c1.7-.5 2.9-1.7 2.9-3.8zm-7.9 2.2V7.3h3.2c1.6 0 2.6.7 2.6 2.1 0 1.3-1 2.1-2.5 2.1h-3.3zM105.2 11.5c0-3.5-2.7-6.2-6.6-6.2H94v12.4h4.6c3.9 0 6.6-2.7 6.6-6.2zm-9-4.2h2.4c2.6 0 4.3 1.8 4.3 4.2 0 2.4-1.7 4.2-4.3 4.2h-2.4V7.3zM54.7 36.1h1.7v-5.4h6.7v-1.6h-6.7V25h7.5v-1.6h-9.2zM72 23.2c-3.6 0-6.5 2.9-6.5 6.6 0 3.7 2.8 6.5 6.4 6.5 3.6 0 6.5-2.9 6.5-6.6 0-3.7-2.8-6.5-6.4-6.5zm0 11.5c-2.7 0-4.7-2.1-4.7-5 0-2.8 2-4.9 4.7-4.9s4.7 2.1 4.7 5c-.1 2.8-2.1 4.9-4.7 4.9zM89.8 30.8c0 2.5-1.3 3.9-3.6 3.9s-3.6-1.5-3.6-4v-7.3h-1.7v7.3c0 3.4 2 5.5 5.3 5.5s5.3-2.1 5.3-5.6v-7.2h-1.7v7.4zM103.6 33.1l-7.5-9.6-.1-.1h-1.5v12.7h1.6v-9.9l7.8 9.8v.1h1.3V23.4h-1.6zM112.9 23.4h-4.4v12.7h4.4c3.9 0 6.7-2.7 6.7-6.4 0-3.6-2.8-6.3-6.7-6.3zm0 11.1h-2.8V25h2.8c2.9 0 5 2 5 4.8s-2.1 4.7-5 4.7zM127.6 23.3h-1.5l-5.7 12.6-.1.2h1.8l1.5-3.3h6.5l1.4 3.3h1.8l-5.7-12.8zm1.8 8h-5.2l2.6-5.8 2.6 5.8zM133 25h4.1v11.1h1.7V25h4.2v-1.6h-10zM145.5 23.4h1.7v12.7h-1.7zM156.4 23.2c-3.6 0-6.5 2.9-6.5 6.6 0 3.7 2.8 6.5 6.4 6.5 3.6 0 6.5-2.9 6.5-6.6 0-3.7-2.7-6.5-6.4-6.5zm0 11.5c-2.7 0-4.7-2.1-4.7-5 0-2.8 2-4.9 4.7-4.9s4.7 2.1 4.7 5c0 2.8-2 4.9-4.7 4.9zM174.6 23.4v9.7l-7.5-9.6-.1-.1h-1.5v12.7h1.7v-9.9l7.7 9.8v.1h1.4V23.4z"/></g></svg>