<svg xmlns="http://www.w3.org/2000/svg" xmlns:xlink="http://www.w3.org/1999/xlink" width="161.6" height="40" viewBox="0 0 161.6 40"><defs><path id="a" d="M0 0h43.3v40H0z"/></defs><clipPath id="b"><use xlink:href="#a" overflow="visible"/></clipPath><path clip-path="url(#b)" fill="#90A4AE" d="M-.7 21.7V.7c0-.6.1-.7.7-.7h42.6c.6 0 .7.1.7.7V19c-.1.1-.2.3-.3.4-3.1 5.8-7.1 11-11.9 15.5-2.1 1.9-4.1 3.9-6.2 5.8H.5c-1.2 0-1.2 0-1.2-1.3v-5.9c.2-.3.5-.6.7-1 2.6-4.4 5.2-8.8 8.8-12.5 3.4-3.5 7.1-6.7 11.5-9.1 1.9-1 3.9-1.8 6.1-1.9 3.8 0 5.6 2.6 4.9 6-.5 2.4-1.5 4.6-2.7 6.7-2.7 4.4-6.1 8-10.6 10.5-1.2.6-2.6 1-3.9 1.2-1.8.3-3.2-1.1-3.1-2.8.1-.8.3-1.5.6-2.2 1-2.4 2.4-4.4 4.2-6.2 1.1-1 2.3-1.9 3.6-2.7.8-.5 1.9-.7 2.7.1.7.8.4 1.7 0 2.6-1.1 2.2-2.8 4-4.7 5.5-.3.2-.7.2-1.1.2 0-.3-.1-.7 0-1 .2-.7.6-1.3.9-2-.1 0-.2-.1-.3-.1-.4.8-.9 1.6-1.3 2.5-.1.4-.1 1.1.2 1.4.2.2 1 .2 1.3-.1 1.1-.8 2.2-1.6 3.2-2.6 1.4-1.5 2.7-3.1 3.2-5.2.5-2-.8-3.4-2.8-3-.9.2-1.8.6-2.6 1.1-2.4 1.3-4.2 3.2-5.8 5.3-1.7 2.2-2.9 4.5-3.3 7.3-.4 3.2 1.8 5.3 5 4.8 2-.3 3.8-1.1 5.5-2.1C26 30.1 31 24.5 34.6 17.7c1.4-2.6 2.4-5.4 2.6-8.3.1-2-.3-3.9-1.5-5.6C34 1.6 31.7.6 29 .7c-3.2.1-6.1 1.2-8.9 2.7-5.1 2.6-9.7 6-13.6 10C3.9 16 1.7 19-.7 21.7"/><path clip-path="url(#b)" fill-rule="evenodd" clip-rule="evenodd" fill="#90A4AE" d="M30.9 40.7c0-.1 0-.3.1-.4 4.7-4 8.8-8.5 12-13.8 0-.1.1-.1.2-.2v13.6c0 .6-.1.7-.7.7-3.8.1-7.7.1-11.6.1"/><path fill="#97ABB5" d="M59.8 1.4c.5-.3 1.1-.4 1.7-.4.6 0 1.2.1 1.8.4.5.3 1 .7 1.5 1.2s.8 1.3 1.1 2.2c.3.9.4 2 .4 3.2s-.1 2.3-.4 3.2c-.3.9-.6 1.7-1.1 2.2-.5.5-1 .9-1.5 1.2-.6.3-1.1.4-1.8.4-.6 0-1.2-.1-1.8-.4-.5-.3-1.1-.7-1.5-1.2-.5-.5-.8-1.3-1.1-2.2-.3-.9-.4-2-.4-3.2s.1-2.3.4-3.2c.3-.9.6-1.7 1.1-2.2.5-.6 1-.9 1.6-1.2M59.6 8c0 .4 0 .8.1 1.2 0 .4.1.9.2 1.4.1.6.3 1 .6 1.4.3.3.6.5 1 .5s.8-.2 1-.5c.3-.3.5-.8.6-1.4.1-.6.2-1 .2-1.4 0-.4.1-.8.1-1.2 0-.4 0-.8-.1-1.2 0-.4-.1-.9-.2-1.4-.1-.5-.3-1-.6-1.3-.3-.3-.6-.5-1-.5s-.8.2-1 .5c-.3.3-.5.8-.6 1.3-.1.6-.2 1-.2 1.4 0 .3-.1.8-.1 1.2"/><path fill="#97ABB5" d="M71.3 14.7h-2.7V1.2h2.8c.8 0 1.5.1 1.9.2 1.8.5 2.7 1.7 2.7 3.8 0 1.2-.4 2.2-1.1 2.9-.7.7-1.7 1.1-3 1.1h-.6v5.5zm0-11.3V7c1.3.1 2-.5 2-1.8 0-1.2-.5-1.8-1.5-1.8h-.5zM78.2 1.2h5.4v2.5h-2.7v3h2.4v2.5h-2.4v3h2.7v2.5h-5.4zM86.1 1.2h2.6L92 9.4c-.1-.6-.2-1.3-.2-2V1.2h2.7v13.5H92l-3.3-8.2.1 1.5v6.8h-2.7V1.2zM108.2 1.7v2.6c-.7-.6-1.3-.9-1.9-.9-.4 0-.7.1-1 .4-.2.2-.4.6-.4 1s.1.8.4 1.1c.3.3.6.6 1 .9l1.2.9c.4.3.7.7 1 1.3.3.5.4 1.1.4 1.8 0 1.2-.3 2.3-1 3-.7.8-1.6 1.2-2.9 1.2-.9 0-1.7-.2-2.3-.7v-2.5c.7.5 1.4.7 2 .7.4 0 .8-.1 1.1-.4.3-.3.4-.6.4-1.1 0-.2 0-.3-.1-.5 0-.1-.1-.3-.2-.4l-.3-.3-.3-.3c-.1-.1-.2-.1-.4-.3-.2-.1-.3-.2-.4-.3-.9-.6-1.5-1.2-1.9-1.7-.4-.6-.6-1.3-.6-2.3 0-1.1.3-2.1.9-2.8.6-.8 1.5-1.1 2.6-1.1s1.9.2 2.7.7M113.9 1.4c.5-.3 1.1-.4 1.8-.4.6 0 1.2.1 1.8.4.5.3 1.1.7 1.5 1.2.5.5.8 1.3 1.1 2.2.3.9.4 2 .4 3.2s-.1 2.3-.4 3.2c-.3.9-.6 1.7-1.1 2.2-.5.5-1 .9-1.5 1.2-.5.3-1.1.4-1.8.4-.6 0-1.2-.1-1.8-.4-.5-.3-1.1-.7-1.5-1.2-.5-.5-.8-1.3-1.1-2.2-.3-.9-.4-2-.4-3.2s.1-2.3.4-3.2c.3-.9.6-1.7 1.1-2.2.4-.6.9-.9 1.5-1.2m-.1 6.6c0 .4 0 .8.1 1.2 0 .4.1.9.2 1.4.1.6.3 1 .6 1.4.3.3.6.5 1 .5s.8-.2 1-.5c.3-.3.5-.8.6-1.4.1-.6.2-1 .2-1.4 0-.4.1-.8.1-1.2 0-.4 0-.8-.1-1.2 0-.4-.1-.9-.2-1.4-.1-.5-.3-1-.6-1.3-.3-.3-.6-.5-1-.5s-.8.2-1 .5c-.3.3-.5.8-.6 1.3-.1.6-.2 1-.2 1.4-.1.3-.1.8-.1 1.2M129.5 1.3v2.5c-.4-.1-.7-.1-1-.1-1.1 0-1.9.4-2.5 1.2-.6.8-.9 1.8-.9 3 0 .7.1 1.4.3 2.1.2.7.6 1.2 1.1 1.7.5.5 1.2.7 1.9.7.3 0 .6-.1 1-.2v2.5c-.4.2-.8.2-1.2.2-1.2 0-2.3-.3-3.2-1-.9-.7-1.6-1.6-2.1-2.6-.4-1-.7-2.2-.7-3.4 0-1.1.2-2.2.7-3.2.5-1 1.1-1.9 2.1-2.5.9-.7 2-1 3.1-1 .4-.1.9-.1 1.4.1"/><path fill="#97ABB5" d="M131.7 1.2h2.7v13.5h-2.7zM137.2 1.2h5.4v2.5h-2.8v3h2.4v2.5h-2.4v3h2.8v2.5h-5.4zM144.4 1.2h6.9v2.5h-2.1v11h-2.7v-11h-2.1zM152.5 1.2h3l1.4 3.7.2.7.3-1 1.2-3.4h3l-3.1 7.1v6.4h-2.7V8.3zM57.6 22.2h5.8V24h-3.7v5.1H63v1.8h-3.3v7.3h-2.1zM68.2 22.3c.5-.2 1-.3 1.5-.3.6 0 1.1.1 1.5.3.5.2.8.5 1.1.8.3.3.5.7.7 1.2.2.5.4 1 .5 1.4.1.4.2 1 .2 1.6.1.6.1 1.1.1 1.5v2.8c0 .4 0 .8-.1 1.5-.1.6-.1 1.2-.2 1.6-.1.4-.3.9-.5 1.4-.2.5-.5.9-.7 1.2-.3.3-.7.6-1.1.8-.5.2-1 .3-1.5.3-.6 0-1.1-.1-1.5-.3-.5-.2-.8-.5-1.1-.8-.3-.3-.5-.7-.7-1.2-.2-.5-.4-1-.5-1.4-.1-.4-.2-1-.2-1.6-.1-.6-.1-1.1-.1-1.5v-2.8c0-.4 0-.8.1-1.5.1-.6.1-1.2.2-1.6.1-.4.2-.9.5-1.4.2-.5.4-.9.7-1.2.3-.3.6-.6 1.1-.8m3 3.3c-.2-1.1-.7-1.6-1.5-1.6s-1.3.5-1.5 1.6c-.3 1.1-.4 2.6-.4 4.6s.1 3.6.4 4.6c.3 1.1.8 1.6 1.5 1.6.8 0 1.3-.5 1.5-1.6.3-1.1.4-2.6.4-4.6s-.1-3.5-.4-4.6"/><path fill="#97ABB5" d="M77.1 22.2h2.1V34c0 1 .1 1.6.4 2 .3.3.6.5 1.1.5.7 0 1.1-.2 1.3-.5.2-.4.3-.9.3-1.7v-12h2.1v12.4s0 .5-.1.9c0 .4-.1.7-.2.9-.1.2-.2.5-.4.8-.2.3-.4.5-.7.7-.3.2-.6.3-1 .4-.4.1-.8.2-1.4.2-.7 0-1.2-.1-1.7-.3-.5-.2-.8-.4-1.1-.7-.3-.3-.5-.7-.6-1.1-.1-.5-.2-.9-.3-1.4 0-.4-.1-1-.1-1.7V22.2zM89.8 25.9l.1 1.1.3 5.3v5.9h-2.1v-16h2.1l3.7 12.2v-.1l-.5-6.4v-5.7h2.2v16h-2l-3.8-12.3zM99.2 22.2h3.5c.3 0 .6.1 1.1.2.4.1.8.3 1 .5.3.2.5.5.9.9.3.4.5.9.7 1.5.2.6.3 1.3.4 2.2.1.9.2 1.9.2 3 0 1-.1 2-.2 2.8-.1.8-.2 1.5-.4 2s-.4 1-.7 1.4c-.3.4-.6.7-.9.9-.3.2-.7.4-1.2.5s-.9.2-1.3.2h-3.1V22.2zm5.5 8.3V29c0-.3 0-.7-.1-1.2 0-.5-.1-.9-.2-1.2-.1-.3-.2-.6-.4-1s-.4-.7-.6-.9c-.2-.2-.5-.4-.9-.5-.4-.1-.8-.2-1.3-.2v12.4c.5 0 .9 0 1.2-.2.4-.1.7-.3.9-.4.2-.2.4-.4.6-.8.2-.3.3-.6.4-.9.1-.3.1-.6.2-1.1 0-.5.1-.8.1-1.1v-1.4zM112.5 22.2h1.7l3.4 16h-2.1l-.6-3.1h-3.2l-.6 3.1H109l3.5-16zm2 11.2l-.4-2.3-.8-5.8-1.3 8.1h2.5zM117.9 22.2h7V24h-2.4v14.2h-2.1V24h-2.5zM127.2 22.2h2.1v16h-2.1zM135.2 22.3c.5-.2 1-.3 1.5-.3s1.1.1 1.5.3c.5.2.8.5 1.1.8.3.3.5.7.7 1.2.2.5.4 1 .5 1.4.1.4.2 1 .2 1.6.1.6.1 1.1.1 1.5v2.8c0 .4 0 .8-.1 1.5-.1.6-.1 1.2-.2 1.6-.1.4-.2.9-.5 1.4-.2.5-.4.9-.7 1.2-.3.3-.7.6-1.1.8-.5.2-1 .3-1.5.3s-1.1-.1-1.5-.3c-.5-.2-.8-.5-1.1-.8-.3-.3-.5-.7-.7-1.2-.2-.5-.4-1-.5-1.4-.1-.4-.2-1-.2-1.6-.1-.6-.1-1.1-.1-1.5v-2.8c0-.4 0-.8.1-1.5.1-.6.1-1.2.2-1.6.1-.4.3-.9.5-1.4.2-.5.4-.9.7-1.2.3-.3.7-.6 1.1-.8m3.1 3.3c-.3-1.1-.8-1.6-1.5-1.6-.8 0-1.3.5-1.5 1.6-.3 1.1-.4 2.6-.4 4.6s.1 3.6.4 4.6c.3 1.1.8 1.6 1.5 1.6.8 0 1.3-.5 1.5-1.6.3-1.1.4-2.6.4-4.6s-.2-3.5-.4-4.6"/><path fill="#97ABB5" d="M145.8 25.9l.2 1.1.3 5.3v5.9h-2.1v-16h2l3.7 12.2.1-.1-.5-6.4v-5.7h2.1v16h-2l-3.7-12.3zM160.2 22.5v2.1c-.6-.5-1.2-.7-1.8-.7-.6 0-1 .2-1.4.6-.3.4-.5.9-.5 1.5s.2 1.2.6 1.7l1.6 1.8c.8.8 1.4 1.6 1.8 2.2.3.6.5 1.5.5 2.5 0 1.2-.3 2.2-1 3-.7.8-1.6 1.2-2.7 1.2-.9 0-1.7-.3-2.3-.8v-2.1c.8.6 1.5.8 2.1.8.6 0 1.1-.2 1.4-.6.3-.4.5-1 .5-1.6 0-.6-.2-1.1-.5-1.6s-.7-1-1.1-1.4c-.4-.4-.9-.8-1.3-1.3-.4-.4-.8-1-1.1-1.6-.3-.6-.5-1.3-.5-2.1 0-1.2.3-2.2.9-2.9.6-.8 1.5-1.2 2.7-1.2.8 0 1.5.2 2.1.5"/></svg>