<svg xmlns="http://www.w3.org/2000/svg" width="177.9" height="82.4" viewBox="0 0 177.9 82.4"><g fill="#97ABB5"><path d="M16.8 4.2c-.2 0-.5.1-.9.1-.4.1-.7.2-1 .4-.2.2-.4.5-.5 1-.1.5-.1 1.2-.1 1.9v6.8c0 .9-.2 1.6-.5 2.2-.4.6-.8 1.2-1.4 1.6-.6.4-1.2.7-1.8.8-.6.2-1.2.3-1.8.3-.9 0-1.8-.1-2.5-.4-.7-.2-1.3-.6-1.8-1s-.9-.9-1.1-1.4-.4-1.1-.4-1.7V5.7c0-.3 0-.5-.1-.6-.3-.2-.4-.4-.7-.5-.2-.1-.4-.2-.7-.3-.3 0-.5-.1-.7-.1v-.8h6.5v.8c-.2 0-.5 0-.8.1s-.5.1-.7.2c-.2.1-.4.2-.5.4-.1.2-.1.4-.1.7v8.6c0 .4 0 .9.1 1.3.1.5.3.9.5 1.3.3.4.7.7 1.2 1s1.2.4 2 .4 1.5-.1 2-.4c.5-.3 1-.6 1.3-1 .3-.4.5-.8.6-1.2s.2-.9.2-1.3V7.8c0-.8-.1-1.5-.2-2s-.3-.9-.5-1c-.3-.2-.6-.3-1-.4-.4-.1-.8-.2-1-.2v-.8h6.3v.8zM34 4.2c-.2 0-.5.1-.9.2s-.7.2-.9.3c-.3.2-.4.5-.5 1-.1.5-.1 1.2-.1 2v11.4h-1L21.1 6.4v8c0 .9.1 1.6.2 2.1s.3.8.5 1c.2.2.5.3 1 .4.5.1.9.2 1 .2v.9h-6.4v-.8c.2 0 .5-.1 1-.2s.8-.2.9-.3c.3-.2.4-.5.5-.9.1-.4.1-1.1.1-2.1V6.9c0-.3-.1-.7-.2-1-.1-.3-.3-.6-.5-.8-.3-.2-.6-.4-1.1-.6-.4-.2-.8-.3-1.1-.3v-.8h4.4l8.7 11.8V7.9c0-.9-.1-1.6-.2-2.1s-.3-.8-.5-1c-.2-.1-.5-.3-1-.4-.5-.1-.8-.2-1.1-.2v-.8H34v.8zM42 19h-7v-.8c.2 0 .5 0 .9-.1.4 0 .6-.1.8-.1.2-.1.4-.2.5-.4s.2-.4.2-.7V5.7c0-.3 0-.5-.1-.6-.1-.2-.3-.3-.6-.4-.2-.1-.5-.2-.8-.2-.3-.1-.6-.1-.8-.1v-1h7v.8c-.2 0-.5 0-.8.1-.3 0-.6.1-.8.2-.3.1-.5.2-.6.4s-.1.4-.1.7v11.2c0 .2.1.5.2.6.1.2.3.3.5.4.2.1.4.1.7.2.3.1.6.1.9.1v.9zM56.6 7.7h-.8c-.1-.3-.2-.6-.4-.9-.2-.4-.4-.7-.6-1-.2-.3-.5-.6-.7-.9-.3-.3-.5-.4-.8-.4-.2 0-.5-.1-.9-.1H51v12.4c0 .2.1.5.2.7.1.2.3.4.5.5.1.1.4.1.8.2s.7.1 1 .1v.7h-7.3v-.8c.2 0 .5 0 .9-.1s.7-.1.9-.2c.2-.1.4-.2.5-.4.1-.2.2-.4.2-.7V4.3h-1.5c-.3 0-.7 0-1 .1-.2 0-.5.2-.7.4s-.5.6-.7.9c-.2.3-.4.7-.6 1-.2.4-.3.7-.4.9H43V3.4h13.5v4.3zM70.9 14.4l-.3 4.6H57.7v-.8c.2 0 .5 0 .9-.1.4 0 .6-.1.7-.1.2-.1.4-.3.5-.4s.1-.4.1-.7V5.7c0-.2 0-.5-.1-.6-.1-.2-.2-.3-.5-.5-.2-.1-.5-.2-.8-.3-.3-.1-.6-.1-.8-.1v-.8h12v3.7h-.8c-.1-.6-.5-1.1-.9-1.8-.5-.6-.9-1-1.4-1-.2 0-.5-.1-.8-.1h-3.5v6.2H64c.6 0 1-.1 1.2-.2.3-.1.5-.3.7-.5.2-.2.3-.5.4-.8.1-.4.2-.7.2-1h.8V14h-.8c0-.4-.1-.7-.2-1.1-.1-.4-.3-.7-.4-.8-.2-.3-.5-.5-.8-.6s-.7-.1-1.1-.1h-1.8V16c0 .5 0 .8.1 1.1s.2.5.4.6c.2.1.4.2.8.3.3 0 .8.1 1.4.1h2c.3 0 .6-.1.9-.2s.5-.2.6-.3c.3-.4.7-.9 1.1-1.6.4-.7.6-1.2.7-1.6h.7zM87.3 11.3c0 1.3-.2 2.5-.7 3.4-.5 1-1.1 1.8-1.9 2.4-.8.6-1.7 1.1-2.7 1.4-1 .3-2 .5-3.1.5h-6.4v-.8c.2 0 .5 0 .8-.1s.6-.1.7-.1c.2-.1.4-.2.5-.4.1-.2.1-.4.1-.7V5.7c0-.2 0-.5-.1-.7-.1-.2-.2-.4-.5-.5-.2-.1-.5-.2-.7-.2s-.5-.1-.7-.1v-.8h6.8c.9 0 1.9.1 2.8.4s1.7.7 2.4 1.2c.9.6 1.6 1.5 2.1 2.5.4 1.1.6 2.4.6 3.8zm-2.7 0c0-1-.1-2-.4-2.8-.3-.8-.7-1.6-1.2-2.2-.5-.6-1.1-1.1-1.9-1.4-.7-.3-1.5-.5-2.4-.5h-1.8v11.9c0 .7.2 1.1.6 1.4.4.3 1 .4 1.8.4.9 0 1.7-.2 2.4-.5s1.3-.8 1.7-1.4c.5-.6.8-1.3 1-2.1.1-.8.2-1.8.2-2.8zM104.3 11.8c.3.4.6.8.7 1.2.2.4.2.9.2 1.5 0 1.4-.5 2.5-1.5 3.4-1 .9-2.3 1.3-3.8 1.3-.7 0-1.4-.1-2.1-.3-.7-.2-1.3-.5-1.8-.8l-.4.9h-.9l-.2-5.3h.9c.2.7.4 1.2.6 1.8.2.5.6 1 1 1.5.4.4.8.8 1.3 1 .5.3 1.1.4 1.8.4.5 0 .9-.1 1.3-.2s.7-.3.9-.6c.2-.2.4-.5.5-.8.1-.3.2-.7.2-1.1 0-.6-.2-1.2-.5-1.7-.4-.5-.9-.9-1.6-1.2-.5-.2-1-.4-1.6-.6s-1.1-.4-1.6-.6c-.9-.4-1.6-.9-2-1.5-.4-.9-.7-1.7-.7-2.8 0-.6.1-1.1.4-1.7.2-.5.6-1 1-1.4.4-.4.9-.7 1.5-.9.6-.2 1.2-.3 1.8-.3.7 0 1.4.1 1.9.3.6.2 1.1.5 1.5.8l.4-.7h.9l.1 5.2h-.9c-.2-.6-.3-1.2-.5-1.7s-.5-1-.8-1.5c-.3-.4-.7-.8-1.1-1-.5-.3-1-.4-1.7-.4s-1.3.2-1.8.7c-.5.4-.7 1-.7 1.6 0 .7.2 1.2.5 1.7.3.4.8.8 1.4 1.1.5.3 1.1.5 1.6.7l1.5.6c.4.2.9.4 1.3.6.3.2.7.5 1 .8zM119.8 7.7h-.8c-.1-.3-.2-.6-.4-.9s-.4-.7-.6-1c-.2-.3-.5-.6-.7-.9-.3-.3-.5-.4-.8-.4-.2 0-.5-.1-.9-.1H114v12.4c0 .2.1.5.2.7.1.2.3.4.5.5.1.1.4.1.8.2s.7.1 1 .1v.7h-7.3v-.8c.2 0 .5 0 .9-.1s.7-.1.9-.2c.2-.1.4-.2.5-.4.1-.2.2-.4.2-.7V4.3h-1.4c-.3 0-.7 0-1 .1-.2 0-.5.2-.7.4s-.5.6-.7.9c-.2.3-.4.7-.6 1-.2.4-.3.7-.4.9h-.8V3.4h13.5v4.3zM135.5 19H129v-.8c.6 0 1-.1 1.4-.2s.6-.2.6-.4v-.2c0-.1 0-.2-.1-.3l-1.3-3.5h-5.5c-.2.5-.4 1-.5 1.3-.1.4-.2.7-.3 1-.1.3-.2.6-.2.8 0 .2-.1.4-.1.5 0 .3.2.5.7.7.5.2 1 .3 1.6.3v.8h-5.8v-.8c.2 0 .4-.1.7-.1s.5-.2.7-.3c.3-.2.5-.4.7-.6.2-.2.3-.5.5-.9.8-1.9 1.6-4.1 2.6-6.6.9-2.4 1.8-4.6 2.5-6.5h.9l5.2 13.4c.1.3.2.5.4.7s.3.3.6.5c.2.1.4.2.7.3s.5.1.7.1v.8zm-6.2-6.4l-2.4-6-2.3 6h4.7zM148.7 7.7h-.7c-.1-.3-.2-.6-.4-.9s-.4-.7-.6-1c-.2-.3-.5-.6-.7-.9-.3-.3-.5-.4-.8-.4-.2 0-.5-.1-.9-.1H143v12.4c0 .2.1.5.2.7.1.2.3.4.5.5.1.1.4.1.8.2s.7.1 1 .1v.7h-7.3v-.8c.2 0 .5 0 .9-.1s.7-.1.9-.2c.2-.1.4-.2.5-.4.1-.2.2-.4.2-.7V4.3h-1.4c-.3 0-.7 0-1 .1-.2 0-.5.2-.7.4s-.5.6-.7.9c-.2.3-.4.7-.6 1-.2.4-.3.7-.4.9h-.8V3.4h13.5v4.3zM163 14.4l-.3 4.6h-12.9v-.8c.2 0 .5 0 .9-.1.4 0 .6-.1.7-.1.2-.1.4-.3.5-.4s.1-.4.1-.7V5.7c0-.2 0-.5-.1-.6-.1-.2-.2-.3-.5-.5-.2-.1-.5-.2-.8-.3-.3-.1-.6-.1-.8-.1v-.8h12v3.7h-.8c-.1-.6-.5-1.1-.9-1.8-.5-.6-.9-1-1.4-1-.2 0-.5-.1-.8-.1h-3.5v6.2h1.8c.6 0 1-.1 1.2-.2.3-.1.5-.3.7-.5.2-.2.3-.5.4-.8.1-.4.2-.7.2-1h.8V14h-.8c0-.4-.1-.7-.2-1.1-.1-.4-.3-.7-.4-.8-.2-.3-.5-.5-.8-.6s-.7-.1-1.1-.1h-1.8V16c0 .5 0 .8.1 1.1.1.3.2.5.4.6.2.1.4.2.8.3.3 0 .8.1 1.4.1h2c.3 0 .6-.1.9-.2s.5-.2.6-.3c.3-.4.7-.9 1.1-1.6.4-.7.6-1.2.7-1.6h.6zM174.3 11.8c.3.4.6.8.7 1.2.2.4.2.9.2 1.5 0 1.4-.5 2.5-1.5 3.4s-2.3 1.3-3.8 1.3c-.7 0-1.4-.1-2.1-.3-.7-.2-1.3-.5-1.8-.8l-.5.8h-.9l-.2-5.3h.9c.2.7.4 1.2.6 1.8.2.5.6 1 1 1.5.4.4.8.8 1.3 1 .5.3 1.1.4 1.8.4.5 0 .9-.1 1.3-.2s.7-.3.9-.6c.2-.2.4-.5.5-.8.1-.3.2-.7.2-1.1 0-.6-.2-1.2-.5-1.7s-.9-.9-1.6-1.2c-.5-.2-1-.4-1.6-.6s-1.1-.4-1.6-.6c-.9-.4-1.6-.9-2-1.5-.5-.6-.7-1.5-.7-2.5 0-.6.1-1.1.4-1.7.2-.5.6-1 1-1.4.4-.4.9-.7 1.5-.9.6-.2 1.2-.3 1.8-.3.7 0 1.4.1 1.9.3.6.2 1.1.5 1.5.8l.4-.7h.9l.1 5.2h-.9c-.2-.6-.3-1.2-.5-1.7s-.5-1-.8-1.5c-.3-.4-.7-.8-1.1-1-.5-.3-1-.4-1.7-.4s-1.3.2-1.8.7c-.5.4-.7 1-.7 1.6 0 .7.2 1.2.5 1.7.3.4.8.8 1.4 1.1.5.3 1.1.5 1.6.7l1.5.6c.4.2.9.4 1.3.6.4 0 .8.3 1.1.6z"/></g><g fill="#97ABB5"><path d="M29.7 54.8H18.5v-1.3c.3 0 .7-.1 1.3-.1s1-.1 1.2-.2c.4-.2.7-.4.8-.7.2-.3.3-.7.3-1.2v-9.6H9.5V51c0 .4.1.8.2 1.1.1.3.4.6.9.8.2.1.6.2 1.1.3.6.1 1 .2 1.3.2v1.3H1.9v-1.3c.3 0 .7-.1 1.3-.1.6-.1 1-.1 1.2-.2.4-.2.7-.4.8-.7.2-.3.3-.7.3-1.2V31.8c0-.4-.1-.8-.2-1.1-.2-.3-.4-.6-.9-.8-.3-.2-.8-.3-1.2-.4-.5-.1-.9-.2-1.3-.2V28H13v1.3c-.4 0-.8.1-1.3.2s-.9.2-1.1.3c-.4.2-.7.4-.9.8-.1.4-.2.7-.2 1.2v8.3h12.6v-8.2c0-.4-.1-.8-.2-1.1-.2-.3-.4-.6-.9-.8-.3-.2-.8-.3-1.2-.4-.5-.1-.9-.2-1.3-.2v-1.3h11.2v1.3c-.4 0-.8.1-1.3.2s-.9.2-1.1.3c-.4.2-.7.4-.9.8-.1.4-.2.7-.2 1.2V51c0 .4.1.8.2 1.1.1.3.4.6.9.8.2.1.6.2 1.1.3.5.1 1 .2 1.3.2v1.4zM55.2 31c1.2 1.2 2.1 2.7 2.8 4.5.7 1.8 1 3.7 1 5.8 0 2.1-.3 4.1-1 5.8-.7 1.7-1.6 3.2-2.8 4.5-1.2 1.2-2.5 2.2-4.1 2.8-1.6.7-3.2 1-5 1-1.9 0-3.6-.3-5.2-1.1-1.6-.7-2.9-1.7-4.1-2.9-1.1-1.2-2-2.7-2.7-4.5-.7-1.8-1-3.6-1-5.6 0-2.2.3-4.1 1-5.9.7-1.7 1.6-3.2 2.8-4.4 1.2-1.2 2.6-2.2 4.1-2.8s3.2-1 4.9-1c1.8 0 3.5.3 5 1 1.8.7 3.2 1.6 4.3 2.8zm-2.8 19.1c.7-1.2 1.2-2.5 1.5-3.9.3-1.5.5-3.1.5-4.9 0-1.8-.2-3.5-.5-5.1-.4-1.5-.9-2.9-1.6-3.9-.7-1.1-1.6-1.9-2.6-2.5s-2.3-.9-3.6-.9c-1.5 0-2.8.3-3.9 1s-1.9 1.6-2.6 2.8c-.6 1.1-1.1 2.4-1.4 3.9-.3 1.5-.5 3.1-.5 4.7 0 1.8.2 3.5.5 4.9s.8 2.8 1.6 3.9c.7 1.1 1.5 2 2.6 2.6 1 .6 2.3.9 3.7.9 1.4 0 2.6-.3 3.7-.9 1.1-.6 1.9-1.4 2.6-2.6zM89.6 29.2c-.4 0-.9.1-1.6.2-.7.1-1.2.3-1.7.6-.4.3-.7.9-.9 1.8-.2.9-.2 2-.2 3.3v11.7c0 1.5-.3 2.8-.9 3.9-.6 1.1-1.4 2-2.4 2.7-1 .7-2.1 1.2-3.2 1.5-1.1.3-2.2.4-3.2.4-1.6 0-3.1-.2-4.3-.6-1.3-.4-2.3-1-3.2-1.7-.8-.7-1.5-1.5-1.9-2.5-.4-.9-.6-1.9-.6-2.9V31.8c0-.4-.1-.8-.2-1.1-.1-.3-.4-.6-.9-.8-.3-.2-.7-.3-1.2-.4s-.9-.2-1.2-.2V28h11.2v1.3c-.4 0-.8.1-1.3.2s-.9.2-1.2.3c-.4.2-.7.4-.9.8s-.2.7-.2 1.2v14.9c0 .7.1 1.5.2 2.3s.5 1.5.9 2.2c.5.7 1.2 1.3 2 1.7.8.4 2 .7 3.5.7 1.4 0 2.6-.2 3.5-.7.9-.4 1.7-1 2.2-1.7.5-.7.9-1.4 1.1-2.1.2-.7.3-1.5.3-2.3v-11c0-1.4-.1-2.5-.3-3.4-.2-.9-.5-1.5-.9-1.8-.4-.3-1-.6-1.8-.7-.8-.2-1.3-.3-1.8-.3v-1.3h11v.9zM108.5 42.4c.6.6 1 1.3 1.3 2.1.3.8.4 1.6.4 2.6 0 2.4-.9 4.3-2.6 5.9-1.8 1.5-3.9 2.3-6.5 2.3-1.2 0-2.4-.2-3.6-.6-1.2-.4-2.2-.8-3.1-1.4l-.8 1.4H92l-.3-9.2h1.5c.3 1.1.7 2.2 1.1 3.1s1 1.8 1.7 2.6c.7.7 1.4 1.3 2.3 1.8.9.4 1.9.7 3.1.7.9 0 1.6-.1 2.3-.3.7-.2 1.2-.6 1.6-1s.7-.9.9-1.5c.2-.6.3-1.2.3-1.9 0-1.1-.3-2.1-.9-3-.6-.9-1.5-1.6-2.7-2.1-.8-.3-1.8-.7-2.8-1.1s-2-.8-2.8-1.1c-1.5-.7-2.7-1.6-3.5-2.7-.8-1.1-1.3-2.5-1.3-4.3 0-1 .2-2 .6-2.9.4-.9 1-1.7 1.8-2.4.7-.7 1.6-1.2 2.6-1.5 1-.4 2-.6 3.1-.6 1.2 0 2.3.2 3.3.6 1 .4 1.9.8 2.7 1.3l.8-1.3h1.5l.2 8.9h-1.5c-.3-1-.6-2-.9-2.9s-.8-1.8-1.4-2.5c-.5-.7-1.2-1.3-2-1.8-.8-.4-1.7-.7-2.9-.7s-2.2.4-3.1 1.2c-.8.8-1.3 1.7-1.3 2.8 0 1.2.3 2.1.8 2.9.5.8 1.3 1.4 2.4 1.9.9.4 1.8.8 2.7 1.1.9.3 1.8.7 2.6 1 .8.3 1.5.7 2.2 1.1.7.5 1.3 1 1.8 1.5zM136.2 46.8l-.5 7.9h-22.3v-1.3c.4 0 .9-.1 1.5-.2s1-.2 1.2-.3c.4-.2.7-.4.8-.7.2-.3.2-.7.2-1.2V31.8c0-.4-.1-.8-.2-1.1s-.4-.6-.9-.8c-.3-.2-.8-.3-1.4-.4-.6-.1-1-.2-1.4-.2V28H134v6.5h-1.4c-.3-1-.8-2-1.6-3.1s-1.6-1.7-2.4-1.8c-.4-.1-.9-.1-1.4-.1h-6.1v10.7h3c1 0 1.7-.1 2.1-.3.4-.2.8-.5 1.2-.9.3-.4.5-.9.7-1.5.2-.6.3-1.2.4-1.7h1.4v10.5h-1.4c-.1-.6-.2-1.2-.4-1.9s-.5-1.2-.7-1.5c-.4-.5-.8-.8-1.3-1s-1.2-.2-2-.2h-3v8.1c0 .8.1 1.4.2 1.9s.3.8.7 1.1.8.4 1.3.5c.6.1 1.4.1 2.4.1h1.6s1.3 0 1.7-.1c.5-.1 1-.1 1.5-.3.5-.1.9-.3 1.1-.5.6-.6 1.2-1.5 1.8-2.8.6-1.2 1-2.1 1.2-2.7h1.6z"/></g><g fill="#97ABB5"><path d="M13.6 76.8h-3.5c-.8-1.2-1.5-2.3-2.1-3.2-.6-.9-1.3-1.8-2-2.7H4.6V75c0 .2 0 .4.1.6.1.2.2.3.4.4h.6s.5.1.7.1v.7H.9v-.7c.1 0 .4 0 .6-.1.3 0 .5 0 .6-.1.2-.1.3-.2.4-.3s.1-.3.1-.6v-9.4c0-.2 0-.4-.1-.6-.1-.2-.2-.3-.4-.4-.2-.1-.4-.1-.6-.2-.2 0-.5-.1-.6-.1v-.7h6c.5 0 1.1.1 1.5.2.5.1.9.3 1.3.5s.7.6.9 1c.2.4.3.9.3 1.4 0 .5-.1.9-.2 1.3s-.4.7-.7 1c-.3.3-.6.5-1 .7-.4.2-.8.4-1.3.5.6.8 1.2 1.6 1.6 2.1.4.6.9 1.3 1.6 2.1.3.4.5.6.7.8.2.2.4.3.6.4.2.1.4.1.6.2.2 0 .4.1.6.1v.9zm-4.9-9.7c0-.8-.2-1.4-.7-1.9-.5-.5-1.1-.7-1.9-.7H4.6v5.6h1.2c.8 0 1.5-.3 2.1-.8.6-.6.8-1.3.8-2.2zM25 72.9l-.2 3.8H14V76c.2 0 .4 0 .7-.1.3 0 .5-.1.6-.1.2-.1.3-.2.4-.4.1-.1.1-.3.1-.6v-9.3c0-.2 0-.4-.1-.5-.1-.2-.2-.3-.4-.4-.2-.1-.4-.1-.7-.2-.3-.1-.5-.1-.7-.1v-.7H24v3.1h-.7c-.1-.5-.4-1-.8-1.5s-.8-.8-1.2-.9c-.2 0-.4 0-.7-.1s-.6 0-.9 0h-2v5.2h1.5c.5 0 .8 0 1-.1.2-.1.4-.2.6-.4.1-.2.2-.4.3-.7s.2-.6.2-.8h.7v5.1h-.7c0-.3-.1-.6-.2-.9-.1-.3-.2-.6-.3-.7-.2-.2-.4-.4-.6-.5-.2-.1-.6-.1-1-.1h-1.5v3.9c0 .4 0 .7.1.9.1.2.2.4.3.5.2.1.4.2.7.2h2.8c.2 0 .5-.1.7-.1s.4-.2.5-.3c.3-.3.6-.7.9-1.3s.5-1 .6-1.3h.7zM36.3 67c0 .7-.1 1.3-.4 1.8-.3.5-.6 1-1.1 1.3-.5.3-1 .6-1.5.8-.6.1-1.2.1-1.8.1H30v4c0 .2 0 .4.1.6s.2.3.4.4c.1 0 .3.1.6.1s.5.1.8.1v.7h-5.6v-.7c.1 0 .4 0 .6-.1.3 0 .5-.1.6-.1.2-.1.3-.2.4-.3s.1-.3.1-.6v-9.4c0-.2 0-.4-.1-.6-.1-.2-.2-.3-.4-.4-.2-.1-.5-.1-.7-.2-.2 0-.4-.1-.6-.1v-.7h5.9c1.2 0 2.2.3 2.9.9s1.3 1.4 1.3 2.4zm-2.8 2.2c.2-.3.3-.6.4-.9s.1-.6.1-.8c0-.3 0-.7-.1-1.1-.1-.4-.2-.7-.4-.9-.2-.3-.5-.5-.8-.7-.3-.2-.8-.2-1.3-.2H30v5.7h1c.7 0 1.2-.1 1.6-.3.4-.3.7-.5.9-.8zM50.4 76.8h-3.5c-.8-1.2-1.5-2.3-2.1-3.2-.6-.9-1.3-1.8-2-2.7h-1.3V75c0 .2 0 .4.1.6.1.2.2.3.4.4.1 0 .3.1.6.1s.5.1.7.1v.7h-5.5v-.7c.1 0 .4 0 .6-.1.3 0 .5-.1.6-.1.2-.1.3-.2.4-.3s.1-.3.1-.6v-9.4c0-.2 0-.4-.1-.6-.1-.2-.2-.3-.4-.4-.2-.1-.4-.1-.6-.2-.2 0-.5-.1-.6-.1v-.7h6c.5 0 1.1.1 1.5.2.5.1.9.3 1.3.5s.7.6.9 1c.2.4.3.9.3 1.4 0 .5-.1.9-.2 1.3s-.4.7-.7 1c-.3.3-.6.5-1 .7-.4.2-.8.4-1.3.5.6.8 1.2 1.6 1.6 2.1.4.6.9 1.3 1.6 2.1.3.4.5.6.7.8.2.2.4.3.6.4.2.1.4.1.6.2.2 0 .4.1.6.1v.8zm-4.8-9.7c0-.8-.2-1.4-.7-1.9-.5-.5-1.1-.7-1.9-.7h-1.6v5.6h1.2c.8 0 1.5-.3 2.1-.8.6-.6.9-1.3.9-2.2zM61.9 72.9l-.2 3.8H50.8V76c.2 0 .4 0 .7-.1.3 0 .5-.1.6-.1.2-.1.3-.2.4-.4.1-.1.1-.3.1-.6v-9.3c0-.2 0-.4-.1-.5-.1-.2-.2-.3-.4-.4-.2-.1-.4-.1-.7-.2-.3-.1-.5-.1-.7-.1v-.7h10.1v3.1h-.7c-.1-.5-.4-1-.8-1.5s-.8-.8-1.2-.9c-.2 0-.4 0-.7-.1s-.6 0-.9 0h-2v5.2H56c.5 0 .8 0 1-.1.2-.1.4-.2.6-.4.1-.2.2-.4.3-.7s.2-.6.2-.8h.7v5.1h-.7c0-.3-.1-.6-.2-.9-.1-.3-.2-.6-.3-.7-.2-.2-.4-.4-.6-.5-.2-.1-.6-.1-1-.1h-1.5v3.9c0 .4 0 .7.1.9.1.2.2.4.3.5.2.1.4.2.7.2h2.8c.2 0 .5-.1.7-.1s.4-.2.5-.3c.3-.3.6-.7.9-1.3s.5-1 .6-1.3h.8zM71.3 70.8c.3.3.5.6.6 1 .1.4.2.8.2 1.3 0 1.1-.4 2.1-1.3 2.8S68.9 77 67.7 77c-.6 0-1.2-.1-1.7-.3-.6-.2-1.1-.4-1.5-.7l-.5.8h-.7l-.1-4.5h.7c.2.5.3 1 .5 1.5.2.4.5.9.8 1.2.3.4.7.6 1.1.9.4.2.9.3 1.5.3.4 0 .8-.1 1.1-.2.3-.1.6-.3.8-.5.2-.2.3-.4.4-.7.1-.3.1-.6.1-.9 0-.5-.1-1-.4-1.5-.3-.4-.7-.8-1.3-1-.4-.2-.9-.3-1.4-.5s-1-.4-1.3-.5c-.7-.3-1.3-.8-1.7-1.3-.4-.5-.6-1.2-.6-2.1 0-.5.1-1 .3-1.4s.5-.8.9-1.1c.4-.3.8-.6 1.3-.7.5-.2 1-.3 1.5-.3.6 0 1.1.1 1.6.3.5.2.9.4 1.3.6l.4-.6h.7l.1 4.3h-.7c-.1-.5-.3-1-.5-1.4-.2-.5-.4-.9-.7-1.2-.3-.4-.6-.6-1-.8-.4-.2-.8-.3-1.4-.3-.6 0-1.1.2-1.5.6-.4.4-.6.8-.6 1.4 0 .6.1 1 .4 1.4s.6.7 1.1.9c.4.2.9.4 1.3.6s.8.3 1.3.5c.4.2.7.3 1.1.5.4 0 .6.2.9.5zM84.7 72.9l-.2 3.8H73.6V76c.2 0 .4 0 .7-.1.3 0 .5-.1.6-.1.2-.1.3-.2.4-.4.1-.1.1-.3.1-.6v-9.3c0-.2 0-.4-.1-.5-.1-.2-.2-.3-.4-.4-.2-.1-.4-.1-.7-.2-.3-.1-.5-.1-.7-.1v-.7h10.1v3.1H83c-.1-.5-.4-1-.8-1.5s-.8-.8-1.2-.9c-.2 0-.4 0-.7-.1s-.6 0-.9 0h-2v5.2h1.5c.5 0 .8 0 1-.1.2-.1.4-.2.6-.4.1-.2.2-.4.3-.7s.2-.6.2-.8h.7v5.1H81c0-.3-.1-.6-.2-.9-.1-.3-.2-.6-.3-.7-.2-.2-.4-.4-.6-.5-.2-.1-.6-.1-1-.1h-1.5v3.9c0 .4 0 .7.1.9.1.2.2.4.3.5.2.1.4.2.7.2h2.8c.2 0 .5-.1.7-.1s.4-.2.5-.3c.3-.3.6-.7.9-1.3s.5-1 .6-1.3h.7zM99.3 64.4c-.2 0-.4.1-.8.1s-.6.2-.8.3c-.2.2-.4.4-.4.9-.1.4-.1 1-.1 1.7v9.5h-.8l-7.9-10.6V73c0 .8 0 1.3.1 1.7.1.4.2.7.4.9.1.1.4.3.9.4.4.1.7.2.9.2v.7h-5.3v-.7c.2 0 .4-.1.8-.2s.6-.2.7-.3c.2-.2.4-.4.4-.8s.1-1 .1-1.8v-6.4c0-.3 0-.6-.1-.8s-.2-.5-.4-.7c-.2-.2-.5-.4-.9-.5-.4-.1-.7-.2-.9-.2v-.7H89l7.3 9.9v-6.2c0-.8 0-1.3-.1-1.7s-.2-.7-.4-.8c-.2-.1-.5-.2-.8-.3s-.7-.2-.9-.2v-.7h5.3v.6zM111 67.3h-.6c-.1-.2-.2-.5-.3-.8-.1-.3-.3-.6-.5-.9-.2-.3-.4-.5-.6-.7s-.4-.3-.6-.4c-.2 0-.4 0-.7-.1h-1.3v10.4c0 .2 0 .4.1.6s.2.3.4.4c.1 0 .3.1.7.2.4.1.6.1.8.1v.7h-6.1v-.7c.2 0 .4 0 .8-.1.4 0 .6-.1.7-.1.2-.1.3-.2.4-.3.1-.1.1-.3.1-.6V64.5h-1.2c-.3 0-.5 0-.8.1-.2 0-.4.1-.6.4s-.4.5-.6.7c-.2.3-.3.6-.5.9s-.2.6-.3.8h-.6v-3.5H111v3.4zM124.1 76.8h-5.4v-.7c.5 0 .9-.1 1.2-.2.3-.1.5-.2.5-.3v-.2c0-.1 0-.1-.1-.2l-1.1-2.9h-4.6c-.2.4-.3.8-.4 1.1l-.3.9c-.1.3-.1.5-.2.6v.4c0 .2.2.4.6.6s.8.2 1.3.2v.7h-4.9v-.7c.2 0 .4 0 .6-.1s.4-.1.6-.2c.2-.2.4-.3.6-.5.1-.2.3-.4.4-.7.7-1.6 1.4-3.5 2.2-5.5.8-2 1.5-3.8 2.1-5.4h.7l4.3 11.2.3.6s.3.3.5.4c.1.1.3.2.6.2.2.1.4.1.6.1v.6zm-5.2-5.4l-2-5-1.9 5h3.9zM135.2 67.3h-.6c-.1-.2-.2-.5-.3-.8-.1-.3-.3-.6-.5-.9-.2-.3-.4-.5-.6-.7s-.4-.3-.6-.4c-.2 0-.4 0-.7-.1h-1.3v10.4c0 .2 0 .4.1.6s.2.3.4.4c.1 0 .3.1.7.2.4.1.6.1.8.1v.7h-6.1v-.7c.2 0 .4 0 .8-.1.4 0 .6-.1.7-.1.2-.1.3-.2.4-.3.1-.1.1-.3.1-.6V64.5h-1.2c-.3 0-.5 0-.8.1-.2 0-.4.1-.6.4s-.4.5-.6.7c-.2.3-.3.6-.5.9s-.2.6-.3.8h-.6v-3.5h11.3v3.4zM141.9 76.8H136v-.7c.2 0 .4 0 .7-.1.3 0 .5-.1.7-.1.2-.1.3-.2.4-.3s.1-.3.1-.6v-9.4c0-.2 0-.4-.1-.5-.1-.1-.2-.3-.5-.4-.2-.1-.4-.1-.7-.2-.3-.1-.5-.1-.7-.1v-.7h5.9v.7c-.2 0-.4 0-.7.1-.3 0-.5.1-.7.2-.2.1-.4.2-.5.4-.1.2-.1.3-.1.5V75c0 .2 0 .4.1.5.1.2.2.3.5.4.1 0 .3.1.6.2s.5.1.7.1v.6zM155.5 64.4c-.2 0-.4 0-.6.1s-.4.1-.6.2c-.2.1-.4.3-.5.5-.1.2-.2.4-.4.7l-1.8 4.5c-.8 2.1-1.7 4.2-2.5 6.4h-.8c-.9-2.4-1.7-4.6-2.5-6.8s-1.4-3.7-1.7-4.4c-.1-.2-.2-.4-.3-.5-.1-.1-.3-.3-.5-.4-.2-.1-.3-.2-.6-.2-.2-.1-.4-.1-.6-.1v-.7h5.4v.7c-.5 0-.8.1-1.2.1-.3.1-.5.2-.5.4v.2c0 .1 0 .2.1.2.2.6.6 1.6 1.1 2.9.5 1.4 1.2 3.3 2.2 5.8.5-1.1 1-2.5 1.6-4s1-2.6 1.2-3.2l.4-1.2v-.5c0-.1-.1-.3-.2-.4-.1-.1-.3-.2-.5-.2-.2-.1-.4-.1-.6-.1-.2 0-.4-.1-.6-.1v-.7h4.8v.8zM167 72.9l-.2 3.8H156V76c.2 0 .4 0 .7-.1.3 0 .5-.1.6-.1.2-.1.3-.2.4-.4s.1-.3.1-.6v-9.3c0-.2 0-.4-.1-.5-.1-.2-.2-.3-.4-.4-.2-.1-.4-.1-.7-.2-.3-.1-.5-.1-.7-.1v-.7H166v3.1h-.7c-.1-.5-.4-1-.8-1.5s-.8-.8-1.2-.9c-.2 0-.4 0-.7-.1h-2.9v5.2h1.5c.5 0 .8 0 1-.1.2-.1.4-.2.6-.4.1-.2.2-.4.3-.7.1-.3.2-.6.2-.8h.7v5.1h-.7c0-.3-.1-.6-.2-.9-.1-.3-.2-.6-.3-.7-.2-.2-.4-.4-.6-.5-.2-.1-.6-.1-1-.1h-1.5v3.9c0 .4 0 .7.1.9.1.2.2.4.3.5s.4.2.7.2h2.8c.2 0 .5-.1.7-.1.2-.1.4-.2.5-.3.3-.3.6-.7.9-1.3s.5-1 .6-1.3h.7zM176.4 70.8c.3.3.5.6.6 1 .1.4.2.8.2 1.3 0 1.1-.4 2.1-1.3 2.8S174 77 172.8 77c-.6 0-1.2-.1-1.7-.3-.6-.2-1.1-.4-1.5-.7l-.4.7h-.7l-.1-4.5h.7c.2.5.3 1 .5 1.5s.5.9.8 1.2c.3.4.7.6 1.1.9.4.2.9.3 1.5.3.4 0 .8-.1 1.1-.2.3-.1.6-.3.8-.5s.3-.4.4-.7c.1-.3.1-.6.1-.9 0-.5-.1-1-.4-1.5-.3-.4-.7-.8-1.3-1-.4-.2-.9-.3-1.4-.5s-1-.4-1.3-.5c-.7-.3-1.3-.8-1.7-1.3-.4-.5-.6-1.2-.6-2.1 0-.5.1-1 .3-1.4.2-.4.5-.8.9-1.1.4-.3.8-.6 1.3-.7.5-.2 1-.3 1.5-.3.6 0 1.1.1 1.6.3s.9.4 1.3.6l.4-.6h.7l.1 4.3h-.7c-.1-.5-.3-1-.5-1.4-.2-.5-.4-.9-.7-1.2-.3-.4-.6-.6-1-.8s-.8-.3-1.4-.3c-.6 0-1.1.2-1.5.6-.4.4-.6.8-.6 1.4 0 .6.1 1 .4 1.4.3.4.6.7 1.1.9.4.2.9.4 1.3.6s.8.3 1.3.5c.4.2.7.3 1.1.5.2.1.5.3.8.6z"/></g><g fill="#97ABB5"><path d="M157.2 39.8c0 .8-.1 1.5-.4 2.3-.3.8-.6 1.4-1.1 2-.5.6-1.1 1.1-1.8 1.4s-1.5.5-2.5.5c-1.1 0-2-.3-2.6-1s-1-1.6-1-2.8c0-.9.1-1.7.4-2.4s.7-1.4 1.2-2c.5-.6 1.1-1 1.8-1.4.7-.3 1.5-.5 2.3-.5 1.2 0 2.1.4 2.7 1.1.7.8 1 1.7 1 2.8zm-2-.3c0-.9-.2-1.6-.5-2.1s-.8-.7-1.4-.7c-.5 0-1 .2-1.5.5s-.9.9-1.2 1.6c-.3.6-.5 1.2-.6 1.9-.1.7-.2 1.3-.2 1.9 0 .9.2 1.6.5 2.1s.8.7 1.5.7c.6 0 1.1-.2 1.5-.5.4-.4.8-.8 1.1-1.4.3-.5.5-1.2.6-1.9.2-.7.2-1.4.2-2.1zM162.7 37.2l-1.7 8.1c-.3 1.4-.9 2.6-1.9 3.5-1 .9-2 1.4-3 1.4-.6 0-1-.1-1.3-.3-.3-.2-.4-.5-.4-.8 0-.3.1-.5.3-.7.2-.2.4-.3.7-.3.2 0 .4 0 .5.1.2.1.3.2.4.3.1.1.2.3.3.4.1.2.2.4.3.5.5 0 .9-.4 1.3-1s.7-1.5.9-2.7l1.8-8.4H159l.2-.9h1.9l.1-.7c.2-.8.4-1.4.7-2 .3-.6.7-1.1 1.2-1.5.4-.4.9-.7 1.4-1 .5-.2 1.1-.4 1.5-.4.6 0 1 .1 1.3.3s.4.5.4.8c0 .3-.1.5-.2.7s-.4.3-.7.3c-.2 0-.4 0-.5-.1-.2-.1-.3-.2-.4-.3-.1-.2-.2-.3-.3-.5-.1-.1-.2-.3-.3-.5-.5 0-.8.3-1.2.9s-.7 1.5-.9 2.9l-.2 1h2.5l-.2.9h-2.6z"/></g></svg>