<svg xmlns="http://www.w3.org/2000/svg" width="151" height="68.7" viewBox="0 0 151 68.7"><path fill="#97ABB5" d="M151 67.8c-.1 0-.1 0 0 0-.1-.1-.2-.1-.2-.1H0v.8h150.9c.1-.2.1-.4.1-.7"/><path fill="#97ABB5" d="M0 19.5c.1.1.1.1 0 0H120.7v-.8H0v.8zM0 44.1c.1 0 .1 0 0 0 .1 0 .2.1.2.1H96.1V43.4c-.1 0-.2-.1-.3-.1H.1c-.1.2-.1.4-.1.8zM106.5 13.5h3.7c.1 0 .1 0 .1-.1v-.1c0-.1-.1-.1-.1-.1H109.9c-.1 0-.3 0-.4-.1-.3-.1-.5-.2-.6-.6-.1-.2-.1-.4-.1-.6 0-.4-.1-.9-.1-1.5-.1-1.8-.1-3.6-.2-5.5V2.7c.1.1.1.2.2.2 2.1 2.4 4.9 5.5 7.9 8.5l1.6 1.6c.1.1.3.2.4.4.1 0 .1.1.2.1s.2-.1.2-.2V1.9c0-.3 0-.5.1-.8.1-.4.2-.6.6-.7H120c.1 0 .1-.1.2-.1V.2c0-.1-.1-.1-.1-.1h-3.9c-.1 0-.1.1-.1.2s.1.1.1.1H116.5c.2 0 .3 0 .5.1.4 0 .6.3.7.7 0 .3.1.5.1.8 0 .8 0 1.6.1 2.3v1.1c0 .9 0 1.8.1 2.6 0 .9 0 1.8.1 2.6v.2c-.1-.1-.2-.2-.3-.2-.3-.4-.7-.7-1-1.1-.6-.6-1.2-1.3-1.8-2-1.4-1.5-2.7-2.9-4.1-4.4-.7-.8-1.4-1.5-2.1-2.3-.1-.1-.2-.2-.2-.3-.1-.2-.3-.3-.4-.4-.1-.1-.1-.1-.3-.2-.1 0-.2 0-.2.1s-.1.1-.1.2V11.8c0 .2 0 .5-.1.7-.1.3-.3.5-.6.6h-.5c-.1 0-.2 0-.2.1v.1c.1.2.2.2.3.2M34.1 27.6c0 .1.1.1 0 0 2.3 2.6 4.3 4.8 6.5 7 .8.8 1.5 1.6 2.3 2.4l.5.5.5.5c.1.1.2.1.3.1h.1V26.3c0-.2 0-.5.1-.8s.2-.5.5-.5h.5c.1 0 .1 0 .2-.1v-.1s-.1-.1-.2-.1H41.8c-.1 0-.1.1-.1.1v.1l.1.1h.8c.3.1.6.3.6.6 0 .2.1.4.1.6v1l.2 7.8V35.3c-.1-.1-.2-.1-.2-.2V35c-.4-.5-.9-1-1.3-1.5-.8-.8-1.5-1.7-2.3-2.5-1.3-1.5-2.7-2.9-4.1-4.4l-1.7-1.9-.1.3c-.1-.1-.1-.2-.2-.2l-.2-.2h-.1c-.1 0-.1.1-.2.1 0 .1-.1.3-.1.4v10.4c0 .4 0 .9-.1 1.3 0 .1 0 .3-.1.4-.1.2-.2.3-.4.4-.1 0-.3 0-.4.1h-.2c-.1 0-.2 0-.2.1v.1c0 .1.1.1.2.1H35.7l.1-.1s0-.1-.1-.1h-.5c-.1 0-.3 0-.4-.1-.2 0-.4-.2-.5-.4 0-.1-.1-.2-.1-.3v-.2c0-.3-.1-.5-.1-.8 0-.5 0-1.1-.1-1.6v-.5c0-1.6-.1-3.2-.1-4.8v-1.6c.1 0 .2.1.2.1M48.7 13.5h3.9l.1-.1v-.2H52.1c-.1 0-.3 0-.4-.1-.3 0-.5-.2-.6-.5 0-.1-.1-.3-.1-.4 0-.3-.1-.5-.1-.8 0-1.4-.1-2.8-.1-4.1V5.8c0-.9 0-1.7-.1-2.6V2.9c.2 0 .3.1.3.2l.1.1c1.7 1.8 3.5 3.9 5.4 5.9 1 1 1.9 2 2.9 3l.9.9c.2.2.4.4.6.5.1.1.2.2.3.2.1-.1.1-.2.1-.3V1.6c0-.1 0-.3.1-.4.1-.2.2-.4.4-.4.1 0 .2 0 .3-.1h.2c.1 0 .2-.1.2-.2-.1-.1-.2-.1-.3-.1h-3.4c-.1 0-.2 0-.2.2v.1s.1.1.2.1H59.1c.2 0 .3 0 .5.1.3.1.5.2.6.5V1.7c0 .2 0 .4.1.7v1.4l.2 7.3v.2l-.1-.1-.2-.2-2-2.2C57 7.3 56 6.1 54.9 5c-1.2-1.3-2.4-2.5-3.5-3.8l-.8-.8c-.1-.1-.2-.2-.3-.2 0-.2-.1-.2-.1-.2s-.1 0-.2.2V12.7c-.1.3-.3.5-.6.6h-.1c-.1 0-.3 0-.4.1-.1 0-.1.1-.1.1v.1c-.2-.1-.2-.1-.1-.1M69.6 13.5h4c.1 0 .1-.1.1-.1 0-.1-.1-.1-.1-.1H73c-.5-.1-.7-.2-.8-.7v-.4c0-.2 0-.4-.1-.5 0-1.1-.1-2.3-.1-3.7 0-1.1-.1-2.2-.1-3.3V3.1l.2.2v.1c2.1 2.4 4.7 5.2 7.3 7.9l2.1 2.1.5.5s.1.1.2.1h.1c.1-.1.1-.3.1-.4V1.9c0-.2 0-.3.1-.5s.2-.3.4-.4c.1 0 .2 0 .3-.1H83.5s.1 0 .1-.1V.7h-.2c-.1 0-.1 0-.1-.1H79.8l-.1.1v.1s.1.1.2.1H80.2c.2 0 .3 0 .5.1.3.1.5.2.6.5v.9c0 2.2.1 4.4.1 6.6V11.3l-.2-.3c-.1-.1-.3-.3-.4-.5L77.6 7c-2.1-2.2-4.1-4.5-6.2-6.7-.1-.1-.2-.2-.3-.2H71c-.1.1-.1.3-.1.4v11.7c0 .2 0 .4-.1.6-.1.3-.2.4-.5.5h-.6l-.1.1c-.1 0-.1.1 0 .1M23 49.5c-1.1-.3-2.2-.4-3.4-.3-1.2.1-2.1.5-3 1.1-1.8 1.3-2.9 3.2-3 5.5-.1 1.1.2 2.2.7 3.4.7 1.5 1.8 2.6 3.3 3.2.9.4 1.8.5 3 .5h.1c.5 0 1.2-.1 1.7-.2 2.3-.6 3.8-2.1 4.6-4.4.4-1.1.5-2.3.4-3.5-.1-1.1-.5-2.1-1.1-2.9-.7-1.2-1.9-2-3.3-2.4m2.5 9c-.1.6-.3 1.1-.6 1.5-.7 1.1-1.7 1.8-3 2.1-.3.1-.7.1-1 .1-1.6 0-3.2-.8-4.2-2.2-.6-.8-1-1.7-1.2-2.8-.2-1.1-.2-2.2 0-3.2.1-.6.3-1.2.6-1.7.7-1.3 1.8-2.1 3.2-2.4.2 0 .5-.1.7-.1h.2c1.8 0 3.2.7 4.2 2.1.5.7.9 1.5 1 2.5.4 1.4.4 2.8.1 4.1"/><path fill="#97ABB5" d="M16.5.5h.3c.2 0 .4 0 .6.1.2.1.4.3.4.5s.1.3.1.4v9.9c0 .4-.1.8-.1 1.1-.1.3-.3.5-.6.5-.1 0-.3 0-.4.1l-.1.1s0 .1.1.1H20.9s.1 0 .1-.1c0 0 .1-.1 0-.1 0 0 0-.1-.1-.1H20.2c-.4 0-.5-.2-.6-.6v-.6c0-.3 0-.5-.1-.8V7.8c0-.1 0-.1.1-.1h2c.1 0 .2.1.3.2.1.2.2.3.4.5l.6.9c.5.7 1.1 1.5 1.6 2.2.3.3.6.7.9 1 .5.5 1.1.8 1.8.8h2.2s.1 0 .1-.1v-.1l-.1-.1H29.1c-.8 0-1.5-.3-2.1-.9l-.5-.5c-.2-.2-.4-.4-.6-.7-.8-.9-1.6-1.9-2.3-2.9-.2-.2-.4-.5-.6-.8 0 0 0-.1-.1-.1l.2-.2c.5-.5.8-.9 1.1-1.3.4-.6.6-1.2.7-1.9.2-1.4-.6-2.8-1.9-3.3-.4-.2-.9-.3-1.4-.3-.6-.1-1.2-.1-1.9 0H16.4c-.1 0-.2 0-.2.1.2.1.2.2.3.3-.1 0 0 0 0 0m2.9.9v-.2c0-.2.1-.3.2-.3.3 0 .6-.1.9-.1h.4c.2 0 .4.1.5.1.8.2 1.4.7 1.8 1.4.2.4.3.8.4 1.4.1.7 0 1.3-.2 1.9l-.3.6c-.3.6-.8.9-1.5 1-.6 0-1.2 0-1.8-.1h-.1c-.3-.1-.3-.1-.3-.4V1.4zM84.6 32.5c.1 0 .1 0 0 0h2c.2 0 .3.1.4.2.2.3.5.7.7 1 .8 1 1.4 1.9 2.1 2.8.3.3.5.6.8.9.4.4.9.6 1.5.6.4 0 .8.1 1.1.1h1.3c.1 0 .2 0 .3-.2h-.1s-.1 0-.1-.1h-.4c-.5 0-1-.2-1.5-.5-.3-.2-.6-.4-.8-.7-.3-.3-.5-.5-.7-.8l-2.4-3c-.2-.3-.4-.5-.6-.8v-.1l.1-.1.2-.2c.4-.4.8-.8 1-1.2.4-.6.6-1.1.7-1.7.1-.6.1-1.1 0-1.6-.3-1.1-1-1.8-2-2.2-.5-.2-1.1-.3-1.7-.3h-4.7l-.1.1s0 .1.1.1h.4c.1 0 .2 0 .4.1.3.1.5.3.6.6 0 .3.1.6.1.9v8.8c0 .4 0 .8-.1 1.1v.1c0 .2-.1.3-.1.5-.1.3-.2.4-.5.5h-.4c-.1 0-.1.1-.1.2.1.1.2.1.3.1h3.7c.1 0 .2 0 .3-.1l.1-.1s0-.1-.1-.1h-.8c-.4-.1-.6-.2-.7-.7v-.5c0-.3 0-.6-.1-.9V32.4c-.2.2-.2.1-.2.1m0-6.5c0-.3 0-.4.4-.5.2 0 .5-.1.8-.1.4 0 .7 0 1 .1.7.2 1.2.6 1.6 1.3.2.3.3.7.4 1.1.1.8.1 1.6-.1 2.3-.1.3-.2.6-.4.8-.3.5-.7.7-1.3.8-.6.1-1.2 0-2-.1h-.1c-.3-.1-.3-.1-.3-.5V26M35.5 57.1H37.6c.2 0 .3.1.4.2.3.4.5.7.7 1l.1.1c.7.9 1.4 1.8 2 2.7.3.3.6.7.9.9.5.4 1 .6 1.6.7h2.3s.1 0 .1-.1v-.1s0-.1-.1-.1H45.3c-.6 0-1.1-.2-1.6-.5-.3-.2-.6-.5-.9-.8l-.1-.1c-.2-.2-.4-.4-.5-.6l-2.4-3-.5-.6-.1-.1.1-.1.3-.3c.5-.5.9-1 1.2-1.5.3-.6.5-1.3.5-2 0-1-.6-2.3-1.9-2.9-.2-.1-.5-.2-.8-.2-.5-.1-1-.2-1.6-.2h-4.3c-.1 0-.2 0-.2.1v.1c0 .1.1.1.2.1h.2c.1 0 .3 0 .4.1.3.1.5.3.6.6v7.6c0 .9 0 1.9-.1 2.8v.1c0 .3 0 .5-.1.8 0 .2-.1.3-.1.4l-.3.3h-.5c-.1 0-.1 0-.1.1v.2c.1.1.2.1.3.1h3.9l.1-.1s0-.1-.1-.1H36.6c-.2 0-.3 0-.5-.1-.3 0-.5-.2-.6-.5 0-.1-.1-.2-.1-.4v-.1c0-.2 0-.4-.1-.6v-3.5c.2-.3.2-.3.2-.4m0-6.6c0-.4 0-.4.4-.4.2 0 .5-.1.9-.1.3 0 .6 0 .8.1.8.2 1.4.7 1.8 1.4.2.4.3.9.4 1.4.1.7 0 1.2-.1 1.8-.1.4-.2.7-.4 1-.3.5-.8.7-1.3.8h-.6c-.5 0-.9-.1-1.3-.2H36c-.3-.1-.4-.1-.4-.5v-3.4c-.1-.6-.1-1.3-.1-1.9M.7.5h.4c.2 0 .3.1.5.1.2.2.3.3.4.5v10.4c0 .5 0 .8-.1 1.2-.1.3-.2.5-.5.5H.9l-.1.1v.1s.1.1.2.1h3c.3 0 .6 0 1 .1h.2c.4 0 .8 0 1.3-.1.9-.2 1.6-.6 2.1-1.2 1.2-1.2 1.5-3.4.1-5-.5-.5-1-.9-1.7-1.2-.1 0-.2 0-.2-.1h-.1v-.1l.2-.2c.3-.3.5-.6.8-.9.3-.5.5-1 .6-1.6.1-1-.2-1.8-1-2.4C6.9.6 6.5.5 6 .4 5.6.3 5.1.2 4.6.2h-4C.5.2.5.3.5.4s.2.1.2.1m4.9 12.4c-.4 0-.8-.1-1.1-.1-.1 0-.3-.1-.4-.2-.2-.1-.4-.3-.4-.6v-.1c0-.2-.1-.5-.1-.7V6.7c0-.1 0-.2.1-.3h1.2c.2 0 .4 0 .5.1.6.2 1.2.5 1.7 1.1.5.6.8 1.3.9 2.1.1.5.1.9 0 1.4-.2.9-.8 1.6-1.8 1.8h-.6m-.1-7H3.6V1.3c0-.3 0-.3.4-.4h1c.5 0 1 .3 1.4.9.2.3.4.7.4 1.2.1.6.1 1.2 0 1.6-.1.4-.3.7-.6 1-.2.2-.4.3-.7.3M77.8 50.7c0-.2 0-.3.1-.5s.2-.4.5-.5h.5l.1-.1s0-.1-.1-.1h-3.6c-.1 0-.1 0-.2.1v.2c.1 0 .1.1.2.1h.2c.1 0 .3 0 .4.1.3.1.5.3.6.6v7.5c0 .8-.2 1.4-.4 2-.4 1.1-1.2 1.8-2.5 2.2-.3.1-.5.1-.9.1h-.5c-.6 0-1.2-.2-1.6-.6-.7-.5-1.1-1.2-1.4-2-.2-.6-.3-1.3-.3-1.9v-6.8c0-.2 0-.3.1-.5.1-.3.2-.5.5-.5.1 0 .3 0 .4-.1.1 0 .1-.1.1-.1v-.1s0-.1-.1-.1h-4l-.1.1c0 .1.1.1.1.1H66.2c.1 0 .2 0 .4.1.4.1.6.3.6.7V57.9c0 .8.2 1.6.4 2.3.5 1.3 1.4 2.2 2.6 2.6.6.2 1.3.3 2.1.3h.6c.7-.1 1.3-.2 1.8-.5 1.1-.5 1.8-1.2 2.2-2.2.2-.5.4-1 .5-1.6.1-.6.2-1.3.2-2.1v-4.4c.2-.6.2-1.1.2-1.6M88.5 13.5H92.3l.1-.1c0-.1-.1-.1-.1-.1h-.4c-.4-.1-.5-.3-.5-.6s.1-.6.2-.9c.3-.8.5-1.6.8-2.3l.2-.7c.1-.3.1-.3.4-.3H96.4c.2 0 .2 0 .3.3l.7 1.8c.3.7.5 1.3.8 2 0 .1.1.1.1.2.1.2 0 .3-.1.4l-.1.1v.1h.1c.2.1.4.1.6.1h2.9l.1-.1c0-.1-.1-.1-.1-.1h-.5c-.4-.1-.8-.3-1-.6-.2-.3-.3-.5-.4-.7-.2-.3-.3-.7-.5-1.1-1-2.6-2-5.3-3.1-7.9l-.7-1.9c-.1-.2-.1-.4-.2-.6 0-.1-.1-.1-.1-.2-.2-.3-.4-.3-.4-.2 0 .1-.1.1-.1.2-.1.1-.1.3-.2.5L91 10.2c-.2.5-.4 1.1-.6 1.6-.1.3-.3.6-.4.8-.2.3-.6.5-.9.5-.2 0-.3 0-.5.1-.1 0-.1.1-.1.1-.1.1 0 .2 0 .2M93 7.6V7.3c.3-.8.5-1.6.8-2.3l.2-.4c0-.3.1-.6.2-.8.1-.3.2-.5.3-.8v-.1c0-.1 0-.2.1-.2 0 0 .1 0 .1.1s0 .1.1.2l.5 1.5c.3.9.7 1.9 1 2.8v.1c0 .1.1.2.1.3h-1.8c-.8 0-1.4-.1-1.6-.1M126 61.1c.8.7 1.7 1.2 2.7 1.4.9.2 1.8.3 2.8.3H131.8c.8 0 1.7-.1 2.3-.2.2 0 .4-.1.6-.2h.1c.3-.1.5-.3.5-.6V61.5c.1-.6.2-1.1.3-1.7v-.3s0-.2-.1-.3c-.1 0-.2.1-.2.2v.2c0 .1 0 .1-.1.2 0 .2-.1.3-.2.5-.2.6-.6 1-1.2 1.2-.2.1-.3.1-.5.2-.5.1-.9.2-1.5.2h-.4c-.4 0-.8-.1-1.1-.1-3-.6-4.7-3.2-4.9-5.4-.1-.6-.1-1.3 0-2.1.1-.5.2-1 .3-1.4.6-1.5 1.6-2.4 3-2.8 1.3-.3 2.6-.4 4 0 .5.1.9.3 1.3.5s.7.6.9 1.1c.1.3.1.5.2.9v.3c0 .1.1.1.1.1.1 0 .1-.1.1-.1 0-.2.1-.3.1-.5V52c0-.7 0-1.4.1-2.1v-.2s-.1-.1-.2-.1h-.3c-.2 0-.3 0-.5-.1-.2 0-.3-.1-.5-.1-.6-.1-1.3-.2-1.9-.3h-1c-.8 0-1.5.1-2.2.2-1 .2-1.7.5-2.4 1-1.6 1.1-2.5 2.8-2.7 4.9-.1.7 0 1.5.1 2.3.4 1.5 1.1 2.7 2.1 3.6M2.1 28.6c.5-1.6 1.6-2.6 3.1-3 1.2-.3 2.5-.3 3.8-.1.5.1 1 .3 1.4.5.5.3.8.7 1 1.2.1.2.1.4.1.6v.4c0 .1.1.2.1.2.1 0 .1-.1.1-.1v-.7c0-.7 0-1.5.1-2.2v-.2c0-.1-.1-.2-.1-.2h-.2c-.1 0-.3 0-.4-.1-.3 0-.6-.1-.9-.1-.9-.2-1.8-.2-2.9-.3-.9 0-1.7.1-2.4.3-1.9.5-3.4 1.6-4.2 3.4-.7 1.4-.9 2.9-.6 4.6.4 2.1 1.5 3.6 3.4 4.6 1 .5 2.1.8 3.5.9H8.9c.5 0 1.1-.1 1.6-.2.2-.1.5-.1.7-.2.2-.1.3-.2.3-.4v-.1c0-.1.1-.2.1-.3.1-.4.2-.8.2-1.3 0-.2.1-.4.1-.7 0-.1 0-.2-.1-.3-.1 0-.2.1-.2.3v.1c-.1.2-.1.5-.2.7-.2.5-.6.9-1.1 1.1-.1.1-.3.1-.5.2-.3.1-.7.1-1.1.2-.8.1-1.5 0-2.2-.1-3.1-.7-4.6-3.3-4.8-5.6v-1.5c.1-.7.2-1.2.4-1.6M34 .5h.3c.2 0 .4 0 .6.1.2.1.4.2.4.5v8.4c0 .7 0 1.4-.1 2.3 0 .3-.1.6-.1.8-.1.3-.2.4-.5.4-.1 0-.3 0-.4.1h-.1v.2l.1.1h6.6c.3 0 .4-.1.5-.4V12.7c.1-.4.1-.9.2-1.4 0-.1 0-.2-.1-.3-.1 0-.2 0-.2.1s0 .2-.1.2v.2c-.2.7-.5 1-1.2 1.1-.3 0-.6.1-1 .1h-.8c-.2 0-.4-.1-.6-.1-.4-.1-.6-.3-.7-.7 0-.2-.1-.5-.1-.7V7.8L37 7v-.2c.1-.1.2-.1.3 0h1.6c.2 0 .5 0 .8.1.1 0 .2 0 .3.1.2.1.4.3.5.5 0 .1 0 .2.1.3V8.1l.1.1s.1 0 .1-.1v-.3c0-.2 0-.5.1-.7 0-.3 0-.6.1-.9v-.5s0-.2-.1-.2l-.1.1c-.2.3-.4.4-.6.4h-2.9c-.1 0-.1 0-.2-.1V.9h.7c.5 0 1.1 0 1.8.1.2 0 .5.1.6.2.2.1.4.2.4.5 0 .1 0 .2.1.3v.4l.1.1s.1 0 .1-.1 0-.2.1-.2v-.6c0-.4.1-.8.1-1.1V.1H41c-.7.2-.9.2-1.7.2h-5.1c-.1 0-.2 0-.3.1.1-.1.1 0 .1.1M68.9 36.3c0 .3 0 .5-.1.8-.1.5-.2.6-.7.6h-.3l-.1.1s0 .1.1.1h2.5c.8 0 1.6 0 2.4.1h1.7c.2 0 .4-.1.5-.4V37.3c0-.3.1-.5.1-.8 0-.2.1-.4.1-.7v-.2l-.1-.1s-.1 0-.1.1c-.1.2-.1.3-.1.4-.2.8-.5 1.1-1.3 1.2-.7.1-1.4.1-2.1 0-.6-.1-.9-.2-1-1V31.3h.7c.6 0 1.2 0 1.8.1.2 0 .4.1.5.1.2.1.4.2.4.5 0 .1 0 .2.1.3V32.6c0 .1.1.2.2.1.1 0 .1-.1.1-.2v-.4c0-.5.1-.9.1-1.4v-.4c0-.1 0-.2-.1-.2l-.1.1c-.1.2-.3.2-.5.3H70.5v-5.1h2.1c.3 0 .6.1.9.2.3.1.4.3.5.6 0 .1 0 .2.1.3V26.8l.1.1c.1 0 .2 0 .2-.1V26c0-.4.1-.8.2-1.2V24.5c-.4.1-.7.1-1.1.2h-5.9c-.1 0-.1 0-.1.1v.1c.1.1.3.1.4.1h.2c.6.1.8.3.9.9V34c-.1 1-.1 1.7-.1 2.3M19.4 35.8v.5c0 .4-.1.7-.1 1-.1.3-.2.4-.5.5H18.5c-.1 0-.1 0-.2.1v.1c0 .1.2.1.2.1H21c.7 0 1.5 0 2.2.1H25.1c.1 0 .3-.1.3-.3 0-.1.1-.2.1-.3.1-.3.1-.6.1-.9 0-.2.1-.4.1-.7v-.2l-.1-.1h-.1c0 .1-.1.2-.1.3 0 .1 0 .1-.1.2 0 .1-.1.3-.1.4-.1.3-.3.5-.6.6-.2.1-.4.1-.6.1-.7.1-1.3.1-2 0-.1 0-.3 0-.4-.1-.3-.1-.4-.3-.5-.5 0-.2-.1-.3-.1-.4V31.5h.1c.8 0 1.5 0 2.3.1h.2c.6.1.8.3.9.9V32.8l.1.1c.1 0 .1 0 .2-.1v-1c0-.5.1-.8.2-1.2 0-.1 0-.2-.1-.3 0 0-.1 0-.1.1-.2.2-.4.3-.8.3h-3V25.8c0-.1 0-.1.1-.2h2.1c.2 0 .5 0 .7.1.6.1.8.4.8 1V27c0 .1.1.1.1.1.1 0 .1-.1.1-.1 0-.1 0-.2.1-.3v-.4c0-.4.1-.8.2-1.2 0-.1 0-.2-.1-.3h-.2c-.1 0-.3.1-.4.1H17.9l-.1.1s0 .1.1.1h.5c.1 0 .3 0 .4.1.2.1.4.2.5.5 0 .2.1.3.1.4V34c.1.6 0 1.2 0 1.8M141.8 49.7h.4c.1 0 .3 0 .4.1.3.1.5.3.6.6 0 .2.1.4.1.7v9.3c0 .3 0 .7-.1 1.1 0 .2-.1.3-.1.5-.1.2-.2.3-.4.4-.2 0-.3 0-.5.1-.1 0-.1.1-.1.1v.1l.1.1h3c.9 0 1.8 0 2.7.1h.9c.4 0 .6-.1.7-.6.1-.4.1-.8.2-1.3v-.5c0-.1-.1-.1-.1-.1s-.1 0-.1.1-.1.1-.1.2v.2c0 .1-.1.3-.1.4-.1.3-.4.6-.7.7-.3.1-.6.1-.8.1H146.5c-.2 0-.3 0-.5-.1-.5-.1-.7-.3-.8-.8 0-.2-.1-.5-.1-.6v-4.5h.1c.8 0 1.7 0 2.5.1.1 0 .3.1.4.1.2.1.4.2.4.4 0 .1 0 .2.1.3V57.3l.1.1s.1 0 .1-.1.1-.2.1-.3c0-.8.1-1.4.2-2 0-.1 0-.2-.1-.2h-.1c-.1 0-.1.1-.2.1-.2.2-.5.3-.7.3H145.1c-.1-.1-.1-.2-.1-.3v-4.7c0-.1 0-.1.2-.2h2.3c.2 0 .5.1.7.1.3.1.5.3.6.6v.5l.1.1s.1 0 .1-.1.1-.2.1-.3V50.3c0-.4.1-.7.2-1.1V49l-.1-.1h-.1c-.3.1-.5.1-.9.1H142l-.1.1c-.2.5-.2.6-.1.6M103.5 50.2c.1 0 .1 0 0 0h2.5c.2 0 .5 0 .8.1.1 0 .3.1.5.2.3.1.5.4.5.7V51.5l.1.1s.1 0 .1-.1.1-.2.1-.2v-2h-.2c-.5.1-1 .1-1.5.1h-5.9c-.7 0-1.2 0-1.8-.1-.2 0-.5-.1-.7-.2h-.2c-.1.1-.2.3-.2.4l-.3 1.2-.1.3v.2c0 .1 0 .2.1.2s.1 0 .1-.1 0-.1.1-.1V51c.1-.1.1-.2.2-.3.1-.2.3-.4.6-.4.2-.1.5-.1.7-.1.8 0 1.6 0 2.4-.1h.7v8.5c0 .8 0 1.6-.1 2.4 0 .2-.1.5-.1.8-.1.3-.2.4-.5.4-.2 0-.3 0-.4.1l-.1.1s0 .1.1.1h4c.1 0 .1 0 .2-.1v-.1s0-.1-.1-.1h-.8c-.4 0-.6-.2-.7-.6V61c0-.3-.1-.6-.1-.9V50.2c0 .1 0 .1 0 0M57.3 25.7h1.8c.3 0 .7 0 1.1.1.3 0 .5.1.8.2.3.2.5.4.5.7v.2s0 .1.1.1c0 .1.2.1.2 0s.1-.1.1-.2v-2.1h-.2c-.7.2-1.3.2-1.9.2h-5.5c-.7 0-1.2 0-1.8-.1-.4 0-.7-.1-1-.2h-.2v.1c0 .1-.1.1-.1.2-.1.6-.3 1.3-.4 1.8v.1c0 .1.2.1.2.1l.1-.1c.1-.1.1-.2.2-.4.2-.4.5-.6 1-.6.2 0 .4-.1.6-.1h2.7v9.5c0 .5 0 1-.1 1.5 0 .2-.1.4-.1.5-.1.3-.2.4-.5.5H54.6s-.1 0-.1.1l-.1.1s0 .1.1.1.1.1.2.1h4.2c.1 0 .1-.1.1-.1 0-.1-.1-.1-.1-.1h-.5c-.1 0-.3 0-.4-.1-.2 0-.4-.2-.4-.4 0-.1-.1-.1-.1-.2v-.1c0-.2-.1-.3-.1-.5v-.2c0-.5 0-1.1-.1-1.6v-8.7c-.1-.3-.1-.3 0-.4-.1 0-.1 0 0 0M3.7 50.2H6.3c.2 0 .3 0 .5.1.5.1.8.4.9.9V51.5s0 .1.1.1.2 0 .2-.1 0-.2.1-.3v-.4c0-.4.1-.8.2-1.2v-.1c0-.1 0-.1-.1-.1 0 0-.1-.1-.2 0-.2.1-.4.1-.6.1H.7l-.1.1s0 .1.1.1h.2c.2 0 .4 0 .6.1.2.1.4.2.4.5.1.2.1.3.1.4v9.9c0 .3 0 .6-.1.9 0 .2-.1.4-.1.5-.1.2-.2.3-.4.3h-.2c-.1 0-.2 0-.3.1-.1 0-.1.1-.1.1 0 .1.1.1.1.1h4.3v-.1s0-.1-.1-.1h-.8c-.4-.1-.6-.2-.7-.6v-.4c0-.2 0-.5-.1-.7V56.3c0-.1 0-.2.1-.2h2.7c.6.1.9.3 1 .9V57.3c0 .1.1.1.1.1h.1V56.7c0-.5.1-1 .2-1.5V55c0-.1-.1-.1-.2-.1 0 0-.1 0-.1.1-.1.2-.3.3-.6.3H3.6c-.1-.1 0-.2 0-.3v-4.7c0-.1.1-.1.1-.1M88.4 62.1c-.7.2-1.4.2-2.1-.1-.7-.3-1.2-.8-1.3-1.6v-.8l-.1-.1s-.1 0-.1.1-.1.2-.1.3c0 .4-.1.7-.1 1v.9c0 .3.1.5.4.6.1 0 .1 0 .2.1.1 0 .2.1.2.1.6.2 1.2.3 1.8.3.5 0 1.1-.1 1.6-.2.9-.2 1.5-.7 2-1.4.8-1.3.9-2.6.2-3.9-.2-.4-.5-.8-.8-1.1-.4-.5-.9-.9-1.4-1.3l-.1-.1c-.4-.3-.8-.7-1.2-1-.3-.2-.5-.5-.7-.7-.3-.3-.4-.8-.5-1.3 0-1 .5-1.8 1.5-2 .4-.1.8-.1 1.3 0 .3 0 .5.1.8.2.5.2.8.6.9 1.1v.2c0 .1 0 .2.1.3 0 .1.1.1.1.1h.1v-.1c0-.6.1-1.3.1-1.9V49.5h-.3c-.2 0-.3-.1-.5-.1-.6-.1-1.3-.2-1.9-.2-.6 0-1.2.2-1.7.4-.8.4-1.4 1.1-1.6 2-.1.5-.1 1.1 0 1.7.1.5.4 1.1.8 1.6.3.4.7.8 1.3 1.3l.3.2c.3.3.7.6 1 .9.4.3.7.6.9.9.4.5.6 1.1.6 1.8-.1 1-.7 1.8-1.7 2.1M57.4 63.6c-.2.9-.6 1.7-1.2 2.3-.2.2-.5.5-.8.7-.1 0-.1.1-.2.2v.2l.1.1c.1 0 .2-.1.3-.2.5-.3 1.1-.7 1.6-1.2l.7-.7c.3-.4.6-.8.8-1.3.2-.5.3-1.1.3-1.6 0-.6.1-1.2.1-1.8v-9.9c.1-.3.2-.5.5-.5h.5s.1 0 .1-.1v-.2c-.1-.1-.2-.1-.3-.1h-4l-.1.1s0 .1.1.1h.2c.2 0 .4 0 .6.1.2.1.4.2.4.5V59.1c0 .9 0 1.8-.1 2.7.5.7.5 1.3.4 1.8M115 60.4v.5c0 .3-.1.7-.1.9-.1.3-.2.4-.5.4h-.4c-.1 0-.1 0-.1.1v.2c.1.1.2.1.3.1h4l.1-.1s0-.1-.1-.1H117.9c-.2 0-.3 0-.5-.1-.3 0-.5-.2-.5-.5 0-.1-.1-.3-.1-.4v-.2c0-.4-.1-.7-.1-1.1V51c0-.2 0-.5.1-.7.1-.3.2-.5.6-.6h.1c.1 0 .2 0 .4-.1.1 0 .1-.1.1-.1v-.1s0-.1-.1-.1H114l-.1.1s0 .1.1.1h.7c.2 0 .4.2.5.4 0 .2.1.3.1.5v7.9c-.3.9-.3 1.5-.3 2.1"/></svg>