<svg xmlns="http://www.w3.org/2000/svg" width="84.6" height="41.1" viewBox="0 0 84.6 41.1"><path fill="#90A4AE" d="M0 15.6v24.1h8.5L26.8.4h-7l-12.9 27V15.6z"/><g fill="#90A4AE"><path d="M31.8.2h5.8c1.9 0 3.2.5 4 1.3.7.7 1.1 1.7 1.1 2.9 0 1.9-1 3.1-2.5 3.8l2.9 4.3h-3.9l-2.5-3.7h-1.5v3.7h-3.4V.2zm5.6 6c1.2 0 1.8-.6 1.8-1.5 0-1-.7-1.5-1.9-1.5h-2.2v3h2.3zM44.3 6.5C44.3 2.9 47.2 0 51 0c3.8 0 6.6 2.8 6.6 6.4 0 3.5-2.9 6.4-6.7 6.4-3.8 0-6.6-2.8-6.6-6.3zm9.8 0c0-1.8-1.3-3.4-3.2-3.4-1.9 0-3.1 1.5-3.1 3.3 0 1.8 1.3 3.3 3.2 3.3 1.8 0 3.1-1.5 3.1-3.2zM59.2 6.5C59.2 2.9 62 0 65.7 0c2.5 0 4.1 1.1 5.2 2.6l-2.6 2c-.7-.9-1.5-1.4-2.7-1.4-1.7 0-2.9 1.5-2.9 3.3 0 1.9 1.2 3.3 2.9 3.3 1.3 0 2-.6 2.8-1.5L71 10c-1.2 1.6-2.7 2.8-5.5 2.8-3.5 0-6.3-2.7-6.3-6.3zM72.7.2h3.4v5l4.2-5h4.1l-4.7 5.3 4.8 7h-4.1l-3-4.5-1.3 1.4v3.2h-3.4V.2zM34.8 17.4h-3.7v-3h10.8v3h-3.7v9.3h-3.4v-9.3zM43.7 14.4h3.4V19h4.4v-4.6h3.4v12.3h-3.4V22h-4.4v4.7h-3.4V14.4zM57.3 14.4h9.9v2.9h-6.5v1.9h5.9v2.7h-5.9v2h6.6v2.9h-10V14.4zM30.8 28.5h3.8l2.8 7.8 2.8-7.8H44l-5 12.4h-3.2l-5-12.4zM44.2 34.7c0-3.6 2.9-6.5 6.7-6.5 3.8 0 6.6 2.8 6.6 6.4 0 3.5-2.9 6.4-6.7 6.4-3.8.1-6.6-2.8-6.6-6.3zm9.8 0c0-1.8-1.3-3.4-3.2-3.4-1.9 0-3.1 1.5-3.1 3.3 0 1.8 1.3 3.3 3.2 3.3 1.9.1 3.1-1.4 3.1-3.2zM62 31.5h-3.7v-3h10.8v3h-3.7v9.3H62v-9.3zM70.9 28.5h9.9v2.9h-6.5v1.9h5.9V36h-5.9v2h6.6v2.9h-10V28.5z"/></g></svg>