<svg xmlns="http://www.w3.org/2000/svg" width="212.8" height="34.3" viewBox="0 0 212.8 34.3"><path fill="#97ABB5" d="M13 30.1c-1.1-1.7-2.2-3.3-3-5.2-1.2.5-2.3 1.1-3.3 1.7 1.6 1.8 3.6 3.1 5.9 3.9.5.2.6 0 .5-.2 0 .1 0 0-.1-.2M15.9 3.5c-.2.1-.2.2-.2.2-1.7 1.8-3.2 3.9-4.1 6.2 1.5.4 3.1.7 4.7.8V4c0-.6-.4-.5-.4-.5M11.6 24.4c1 2.3 2.4 4.5 4.1 6.2 0 0 0 .1.2.2 0 0 .4.1.4-.4v-6.7c-1.6 0-3.2.3-4.7.7"/><path fill="#97ABB5" d="M9.4 23.4c-.5-1.7-.8-3.5-.9-5.4H3c.2 2.7 1.1 5.2 2.6 7.3 1.2-.7 2.5-1.4 3.8-1.9zM16.3 18h-6.1c.1 1.7.4 3.3.8 4.8 1.7-.5 3.4-.8 5.3-.9V18zM24.9 11c.5 1.7.8 3.5.9 5.3h5.5c-.2-2.7-1.1-5.2-2.6-7.3-1.1.8-2.4 1.4-3.8 2zM9.4 11c-1.3-.5-2.6-1.2-3.8-2-1.5 2.1-2.4 4.6-2.6 7.3h5.5c.1-1.8.4-3.6.9-5.3M10 9.4c.8-1.9 1.9-3.5 3-5.2.1-.1.1-.2.1-.2 0-.2 0-.4-.5-.2-2.3.8-4.3 2.1-5.9 3.9 1 .6 2.1 1.2 3.3 1.7"/><path fill="#97ABB5" d="M16.3 12.4c-1.8-.1-3.6-.4-5.3-.9-.5 1.5-.7 3.1-.8 4.8h6.1v-3.9zM22.7 9.9c-1-2.3-2.4-4.5-4.1-6.2 0 0 0-.1-.2-.2 0 0-.4-.1-.4.4v6.7c1.6 0 3.2-.2 4.7-.7M24.9 23.4c1.3.5 2.6 1.2 3.8 2 1.5-2.1 2.4-4.6 2.6-7.3h-5.5c0 1.8-.4 3.6-.9 5.3M24.4 25c-.8 1.9-1.9 3.5-3 5.2-.1.1-.1.2-.1.2 0 .2 0 .4.6.2 2.3-.8 4.3-2.2 5.9-3.9-1.2-.7-2.3-1.3-3.4-1.7M17.2 0C7.7 0 0 7.7 0 17.2s7.7 17.2 17.2 17.2 17.2-7.7 17.2-17.2C34.3 7.7 26.6 0 17.2 0m0 33.1C8.4 33.1 1.3 26 1.3 17.2S8.4 1.3 17.2 1.3s15.9 7.1 15.9 15.9c0 8.7-7.2 15.9-15.9 15.9M21.3 4.2c1.1 1.7 2.2 3.3 3 5.2 1.2-.5 2.3-1.1 3.3-1.7C26 5.9 24 4.6 21.7 3.8c-.5-.2-.6 0-.6.2.1 0 .2.1.2.2M22.7 24.4c-1.5-.4-3.1-.7-4.7-.8v6.7c0 .5.4.4.4.4.2-.1.2-.2.2-.2 1.8-1.6 3.2-3.7 4.1-6.1"/><path fill="#97ABB5" d="M23.3 22.8c.5-1.5.8-3.1.8-4.8H18v3.9c1.8.1 3.6.4 5.3.9zM23.3 11.5c-1.7.5-3.5.8-5.3.9v3.9h6.1c-.1-1.6-.3-3.3-.8-4.8"/><path fill="#97ABB5" d="M43.2 10.4h10.9v2.2h-4v11.3h-2.9V12.6h-4zM55.7 23.9V10.4h2.9v5.3h5.1v-5.3h2.9v13.5h-2.9V18h-5.1v5.9zM69 10.4h9.1v2.2h-6.2v3.2h5.8v2.3h-5.8v3.6h6.4v2.2H69zM92.5 10.4h3.3l2.4 10.2 2.2-10.2h2.8l-3.5 13.5h-3.2L94 13.6l-2.6 10.3h-3.3l-3.3-13.5h3l2.1 10.2zM107.2 17.2c0 2.3.5 4.9 3.4 4.9s3.4-2.6 3.4-4.9c0-2.3-.5-5-3.4-5-2.8 0-3.4 2.6-3.4 5m-3.1 0c0-4 2-7.1 6.5-7.1s6.5 3.1 6.5 7.1c0 4-2 7-6.5 7-4.4 0-6.5-3-6.5-7"/><path fill="#97ABB5" d="M122 16.2h2.4c1.3 0 2-.7 2-1.9s-.7-1.7-2-1.7H122v3.6zm0 7.7h-2.9V10.4h5.8c2.3 0 4.7.8 4.7 3.5 0 1.8-1.1 2.9-2.8 3.3 2.2.2 2.2 1.6 2.5 3.5.1.9.2 2.5.8 3.2h-3.2c-.2-1.2-.4-2.4-.5-3.6-.1-.8-.3-1.8-1.2-1.8H122v5.4zM131.7 23.9V10.4h3v11.3h5.8v2.2zM145 21.7h1.5c3.4 0 4-2.4 4-4.5 0-2.2-.5-4.6-4-4.5H145v9zm-2.9-11.3h4.6c4.2 0 6.8 2.1 6.8 6.8 0 4.7-2.6 6.8-6.8 6.8h-4.6V10.4zM166.1 15.8c1.2 0 1.9-.5 1.9-1.6s-.7-1.6-1.9-1.6h-2.3v3.2h2.3zm0 5.9c1.4 0 2.3-.2 2.3-1.8s-.9-1.8-2.3-1.8h-2.3v3.6h2.3zm-5.2 2.2V10.4h5.1c2.4-.1 4.9.9 4.9 3.5 0 1.5-1 2.5-2.4 3 1.7.4 3 1.5 3 3.5 0 2.7-3.4 3.7-5.5 3.5h-5.1zM180.8 18.8L179 13l-2 5.8h3.8zm-8.4 5.1l4.9-13.5h3.5l4.7 13.5h-2.9l-1-2.9h-5.4l-1 2.9h-2.8zM195 23.9l-5.3-11.2h-.1v11.2h-2.7V10.4h4.3l5.2 10.6V10.4h2.8v13.5zM204.4 16.2h.1l4.5-5.8h3.4l-5 6 5.4 7.5h-3.6l-4.7-6.9h-.1v6.9h-2.9V10.4h2.9z"/></svg>