<svg xmlns="http://www.w3.org/2000/svg" width="965.2" height="264.2" viewBox="3 148.8 965.2 264.2" enable-background="new 3 148.8 965.2 264.2"><path fill="#4E9DA5" d="M308.7 286h140.7v126.6H308.7z"/><path fill="#FBF9F3" d="M332.4 305h18.1v24.2h-18.1zM369.6 305h18.1v24.2h-18.1zM406.9 305H425v24.2h-18.1z"/><path fill="#092930" d="M169.4 286h140.7v126.6H169.4z"/><path fill="#FBF9F3" d="M329.9 356.9h57.9v40.8h-57.9zM398.4 356.9h31.3v55.7h-31.3z"/><path fill="#092930" d="M323.1 339.5h111.1v9.1H323.1z"/><path fill="#FBF9F3" d="M195.2 335.2v-16.8c0-5.8 4.7-10.4 10.4-10.4 5.8 0 10.4 4.7 10.4 10.4v16.8"/><path fill="#4E9DA5" d="M192.8 333h25.6v4.8h-25.6z"/><path fill="#FBF9F3" d="M230.4 335.2v-16.8c0-5.8 4.7-10.4 10.4-10.4 5.8 0 10.4 4.7 10.4 10.4v16.8"/><path fill="#4E9DA5" d="M228 333h25.6v4.8H228z"/><path fill="#FBF9F3" d="M265.5 335.2v-16.8c0-5.8 4.7-10.4 10.4-10.4 5.8 0 10.4 4.7 10.4 10.4v16.8"/><path fill="#4E9DA5" d="M263.1 333h25.6v4.8h-25.6z"/><path fill="#FBF9F3" d="M195.2 382v-16.8c0-5.8 4.7-10.4 10.4-10.4 5.8 0 10.4 4.7 10.4 10.4V382"/><path fill="#4E9DA5" d="M192.8 379.9h25.6v4.8h-25.6z"/><path fill="#FBF9F3" d="M230.4 382v-16.8c0-5.8 4.7-10.4 10.4-10.4 5.8 0 10.4 4.7 10.4 10.4V382"/><path fill="#4E9DA5" d="M228 379.9h25.6v4.8H228z"/><path fill="#FBF9F3" d="M265.5 382v-16.8c0-5.8 4.7-10.4 10.4-10.4 5.8 0 10.4 4.7 10.4 10.4V382"/><path fill="#4E9DA5" d="M263.1 379.9h25.6v4.8h-25.6z"/><path fill="#092930" d="M292.6 274.7h7.9V286h-7.9zM377 274.7h7.9V286H377zM275.7 226.3H398v42.8H275.7zM275.7 269H398v8H275.7z"/><g enable-background="new" fill="#FBF9F3"><path d="M296.1 247.8c0 2 1.5 3.6 3.5 3.6.9 0 1.7-.3 2.3-.8v-2.2h-2.7v-1.8h4.7v4.6c-.9 1.2-2.5 2-4.4 2-3.2 0-5.5-2.4-5.5-5.3 0-3 2.2-5.3 5.5-5.3 1.5 0 2.9.6 3.8 1.5l-1.3 1.4c-.6-.6-1.5-1.1-2.5-1.1-1.9-.2-3.4 1.4-3.4 3.4zM313.8 242.5c3.2 0 5.4 2.4 5.4 5.3s-2.2 5.3-5.4 5.3-5.4-2.4-5.4-5.3 2.2-5.3 5.4-5.3zm0 8.9c2 0 3.4-1.6 3.4-3.6s-1.5-3.6-3.4-3.6c-2 0-3.4 1.6-3.4 3.6s1.5 3.6 3.4 3.6zM329.5 242.6h2.1l2.8 7.1 2.8-7.1h2.1l-4.2 10.4h-1.4l-4.2-10.4zM347.9 242.5c3.2 0 5.4 2.4 5.4 5.3s-2.2 5.3-5.4 5.3-5.4-2.4-5.4-5.3 2.2-5.3 5.4-5.3zm0 8.9c2 0 3.4-1.6 3.4-3.6s-1.5-3.6-3.4-3.6c-2 0-3.4 1.6-3.4 3.6s1.5 3.6 3.4 3.6zM364.4 242.6v1.8h-2.7v8.6h-2v-8.6H357v-1.8h7.4zM371 244.4v2.1h3.2v1.8H371v2.9h4.4v1.8H369v-10.4h6.2v1.8H371z"/></g><path fill="#092930" d="M258.4 281.1v-2.6c1.2-.3 2.4-.9 3.3-1.8l-10-10c-2.8 2.8-2.8 7.3 0 10 .3.3.6.6 1 .8v3.6h-4.5v5h15v-5h-4.8zM414.2 281.1v-2.6c-1.2-.3-2.4-.9-3.3-1.8l10-10c2.8 2.8 2.8 7.3 0 10-.3.3-.6.6-1 .8v3.6h4.5v5h-15v-5h4.8z"/><path fill="#4E9DA5" d="M275.7 264.3H398v4.7H275.7z"/></svg>