<svg xmlns="http://www.w3.org/2000/svg" width="965.2" height="264.2" viewBox="0 0 965.2 264.2"><path fill="#4E9DA5" d="M25.6 111.9h21.5v37.8H25.6zM7.3 161.5H169v102.7H7.3z"/><g fill="#FBF9F3"><path d="M25.6 182h21.5v21.5H25.6zM60.6 182h21.5v21.5H60.6zM95.7 182h21.5v21.5H95.7z"/></g><g fill="#FBF9F3"><path d="M25.6 221h21.5v21.5H25.6zM60.6 221h21.5v21.5H60.6zM95.7 221h21.5v21.5H95.7z"/></g><path fill="#FBF9F3" d="M130.8 182h21.5v21.5h-21.5zM130.8 221h21.5v21.5h-21.5z"/><path fill="#092930" d="M0 148.8h178.7v16.1H0zM72.2 78.2v-3.4h-9.1c-3.3 0-6 2.7-6 6v3.4h9.1c3.3.1 6-2.6 6-6zM102 71.4v-5.7H87c-5.5 0-10 4.5-10 10v5.7h15c5.5 0 10-4.4 10-10zM56.1 88.8H39c-.4 0-.9 0-1.3.1-.5-.1-1-.1-1.5-.1-7.9 0-14.4 6.4-14.4 14.4 0 7.9 6.4 14.4 14.4 14.4 7.3 0 13.3-5.5 14.3-12.5l.9-.6h6.1c5.5 0 10-4.5 10-10v-5.7H56.1z"/></svg>