<svg xmlns="http://www.w3.org/2000/svg" width="965.2" height="264.2" viewBox="0 0 965.2 264.2"><path fill="#092930" d="M556.5 67h5.9v21.6h-5.9zM545.8 48.5c-2.2 0-4-1.8-4-4s1.8-4 4-4 4 1.8 4 4-1.8 4-4 4zM446.2 85.3h140.7v178.9H446.2z"/><path fill="#4E9DA5" d="M439.2 84.3h154.7V95H439.2z"/><path fill="#FBF9F3" d="M469.9 156.5H488v24.2h-18.1zM507.1 156.5h18.1v24.2h-18.1zM544.4 156.5h18.1v24.2h-18.1zM469.9 116.2H488v24.2h-18.1zM507.1 116.2h18.1v24.2h-18.1zM544.4 116.2h18.1v24.2h-18.1zM571.7 204.9H460.6l3.7-7.4h104.5zM467.3 208.4h57.9v40.8h-57.9zM535.8 208.5h31.3v55.7h-31.3z"/><path fill="#092930" d="M460.6 204.9h111.1v9.1H460.6zM446.2 95h140.7v4.6H446.2zM570.7 43.7c6.9 6.9 6.9 18 0 24.9-6.9 6.9-18 6.9-24.9 0"/><path fill="#092930" d="M557.15 58.787L544.28 45.92l2.757-2.758 12.87 12.867z"/></svg>