<svg xmlns="http://www.w3.org/2000/svg" width="965.2" height="264.2" viewBox="0 0 965.2 264.2"><path fill="#324C56" d="M538.8 116h160.7v148.2H538.8zM958.5 137.4H720.6l9.8-18.6h218.2zM720.6 151.3h237.9v112.9H720.6z"/><path fill="#FBF9F3" d="M744.6 168h18.9v22.7h-18.9zM778.8 168h18.9v22.7h-18.9zM813 168h18.9v22.7H813zM847.2 168h18.9v22.7h-18.9zM881.4 168h18.9v22.7h-18.9zM915.5 168h18.9v22.7h-18.9zM744.6 205.4h18.9v22.7h-18.9zM778.8 205.4h18.9v22.7h-18.9zM881.4 205.4h18.9v22.7h-18.9zM915.5 205.4h18.9v22.7h-18.9z"/><path fill="#092930" d="M870.5 118.9v-.1h-.1l-30.9-14.6-30.8 14.6h-.2v32.5h62v-32.4z"/><path fill="#FBF9F3" d="M845.8 123.7c0 3.6-2.9 6.5-6.5 6.5s-6.5-2.9-6.5-6.5 2.9-6.5 6.5-6.5c3.6-.1 6.5 2.9 6.5 6.5z"/><path fill="#4E9DA5" d="M839.4 204.6h26.4v50.7h-26.4z"/><path fill="#FBF9F3" d="M813 204.6h26.4v49.8H813z"/><path fill="#092930" d="M713.4 134.1h251.8v17.2H713.4zM638.2 13.8h2.4v22.5h-2.4zM638.2 13.8h20.6v9.5h-20.6z"/><path fill="#4E9DA5" d="M580.8 118.1c0-32.9 26.7-59.6 59.7-59.6 32.9 0 59.6 26.7 59.6 59.6"/><path fill="#FBF9F3" d="M614.9 58.5c0-13.5 11-24.5 24.5-24.5s24.5 11 24.5 24.5"/><path fill="#092930" d="M607.6 54.4h65.8v15h-65.8zM603.1 156.3h118v77.3h-118z"/><path fill="#FBF9F3" d="M603.1 156.3h15.3v80.9h-15.3zM671.6 156.3h15.3v80.9h-15.3zM637.3 156.3h15.3v80.9h-15.3zM705.8 156.3h15.3v80.9h-15.3zM603.1 156.3h15.3v80.9h-15.3zM579.7 248.9h164.8v15.3H579.7z"/><path fill="#092930" d="M586.8 233.6h150.5v15.3H586.8zM721.2 191.5l-100.1-35.2h100.1z"/><path fill="#FBF9F3" d="M586.8 142.4h150.5v15.3H586.8z"/><path fill="#092930" d="M586.8 142.6l75.3-35.6 75.2 35.6z"/><circle fill="#FBF9F3" cx="661.5" cy="126.9" r="7.2"/><path fill="#092930" d="M800.4 256.2h78.3v8h-78.3zM806.7 248.9h65.7v8h-65.7z"/></svg>