<svg xmlns="http://www.w3.org/2000/svg" xmlns:xlink="http://www.w3.org/1999/xlink" width="324.7" height="432.6" viewBox="0 0 324.7 432.6"><path fill="none" stroke="#1B3E4C" stroke-width="4.989" stroke-miterlimit="10" d="M13.9 198.3l55-55"/><path fill="none" stroke="#1B3E4C" stroke-width="4.989" stroke-miterlimit="10" d="M16.5 202.3c0 3.9-3.1 7-7 7s-7-3.1-7-7 3.1-7 7-7c3.8 0 7 3.1 7 7z"/><path fill="none" stroke="#5BBCC9" stroke-width="4.989" stroke-miterlimit="10" d="M348.8 85.1L240.5 193.4"/><path fill="#fff" d="M231.1 185.6h17.2v17.2h-17.2z"/><path fill="none" stroke="#5BBCC9" stroke-width="4.989" stroke-miterlimit="10" d="M231.1 185.6h17.2v17.2h-17.2zM353.1 209.5l-156.9 157c-8.6 8.6-22.4 8.6-31 0-8.6-8.6-8.6-22.4 0-31l27.6-27.6M51.6 387.1l107.8-107.8c8.6-8.6 22.4-8.6 31 0 8.6 8.6 8.6 22.4 0 31l-3.5 3.5M104.4 105.9L36.5 38.1M35 56.5c5.5-5.5 5.1-14.9-1-21M54.9 36.5c-5.5 5.5-14.9 5.1-21-1M132.5 77.9l-39.9 39.9c-6.8 6.8-6.8 17.8 0 24.6 6.8 6.8 17.8 6.8 24.6 0 6.8-6.8 6.8-17.8 0-24.6l-12.3-12.3M107.3 102.8L218.8-8.7"/><path fill="none" stroke="#1B3E4C" stroke-width="4.989" stroke-miterlimit="10" d="M375.5 256.3L206.4 425.4M228.9 429.5c-7.1-7.1-19.2-6.5-27.1 1.3M203.1 403.8c7.1 7.1 6.5 19.3-1.3 27.1M346.7 13.8L51.4 309.1"/><path fill="none" stroke="#1B3E4C" stroke-width="4.989" stroke-miterlimit="10" d="M55.9 315.1c0 5.5-4.5 10-10 10s-10-4.5-10-10 4.5-10 10-10c5.6 0 10 4.4 10 10z"/><path fill="#5BBCC9" d="M238.1 267c3.3.6 5.5 3.7 5 7-.6 3.3-3.7 5.5-7 5-3.3-.6-5.5-3.7-5-7 .6-3.4 3.7-5.6 7-5"/><path fill="none" stroke="#5BBCC9" stroke-width="5.672" stroke-miterlimit="10" d="M238.1 267c3.3.6 5.5 3.7 5 7-.6 3.3-3.7 5.5-7 5-3.3-.6-5.5-3.7-5-7 .6-3.4 3.7-5.6 7-5z"/><path fill="#1B3E4C" d="M294.9 192.9c6.6 1.1 11.1 7.4 10 14-1.1 6.6-7.4 11.1-14 10-6.6-1.1-11.1-7.4-10-14 1-6.7 7.3-11.2 14-10"/><path fill="none" stroke="#1B3E4C" stroke-width="3.613" stroke-miterlimit="10" d="M294.9 192.9c6.6 1.1 11.1 7.4 10 14-1.1 6.6-7.4 11.1-14 10-6.6-1.1-11.1-7.4-10-14 1-6.7 7.3-11.2 14-10z"/><path fill="#5BBCC9" d="M204 226.6c3.3.6 5.5 3.7 5 7-.6 3.3-3.7 5.5-7 5-3.3-.6-5.5-3.7-5-7 .5-3.4 3.7-5.6 7-5"/><path fill="none" stroke="#5BBCC9" stroke-width="5.672" stroke-miterlimit="10" d="M204 226.6c3.3.6 5.5 3.7 5 7-.6 3.3-3.7 5.5-7 5-3.3-.6-5.5-3.7-5-7 .5-3.4 3.7-5.6 7-5z"/><path fill="none" stroke="#1B3E4C" stroke-width="3.613" stroke-miterlimit="10" d="M251.2 227.8c4.4.7 7.4 4.9 6.7 9.3-.7 4.4-4.9 7.4-9.3 6.7-4.4-.7-7.4-4.9-6.7-9.3.7-4.5 4.9-7.4 9.3-6.7z"/><defs><path id="a" d="M12.8 390.5h33.4v33.4H12.8z"/></defs><clipPath id="b"><use xlink:href="#a" overflow="visible"/></clipPath><path clip-path="url(#b)" fill="#1B3E4C" d="M45.2 405.1L34 393.9c-1.2-1.2-3.2-1.2-4.5 0l-1.1 1.1-2.2-2.2c-3.1-3.1-8.1-3.1-11.2 0-3.1 3.1-3.1 8.1 0 11.2l2.2 2.2-1.1 1.1c-1.2 1.2-1.2 3.2 0 4.5L27.4 423c1.2 1.2 3.2 1.2 4.5 0l6.7-6.7 6.7-6.7c1.1-1.3 1.1-3.3-.1-4.5m-25.8-1l-2.2-2.2c-1.9-1.9-1.9-5 0-6.9 1.9-1.9 5-1.9 6.9 0l2.2 2.2-3.5 3.5-3.4 3.4zm13.5 6.6c-1.2 1.2-3.2 1.2-4.5 0-1.2-1.2-1.2-3.2 0-4.5 1.2-1.2 3.2-1.2 4.5 0 1.3 1.3 1.3 3.3 0 4.5"/><path fill="none" stroke="#5BBCC9" stroke-width="4.989" stroke-miterlimit="10" d="M47.2 380.4l12.2 12.3"/><path fill="#1B3E4C" d="M101.6 202.9c0-1.2-.6-2.2-1.5-2.7l-14.6-8.5-14.6 8.5c-.9.6-1.5 1.6-1.5 2.7V219c0 1.8 1.4 3.2 3.2 3.2h25.8c1.8 0 3.2-1.5 3.2-3.2v-16.1z"/><path fill="#fff" d="M85.5 211l-13.3-8.3 13.3-7.8 13.3 7.8z"/><path fill="#5BBCC9" d="M170.1 125.9L314.8-18.9"/><path fill="none" stroke="#5BBCC9" stroke-width="4.989" stroke-miterlimit="10" d="M170.1 125.9L314.8-18.9"/><defs><path id="c" d="M147.8 139.6h9.1v9.1h-9.1z"/></defs><clipPath id="d"><use xlink:href="#c" overflow="visible"/></clipPath><path clip-path="url(#d)" fill="#5BBCC9" d="M156.9 144.1c0 2.5-2 4.6-4.6 4.6-2.5 0-4.6-2-4.6-4.6 0-2.5 2-4.6 4.6-4.6 2.6.1 4.6 2.1 4.6 4.6"/><defs><path id="e" d="M135.1 152h9.1v9.1h-9.1z"/></defs><clipPath id="f"><use xlink:href="#e" overflow="visible"/></clipPath><path clip-path="url(#f)" fill="#5BBCC9" d="M144.3 156.6c0 2.5-2 4.6-4.6 4.6-2.5 0-4.6-2-4.6-4.6 0-2.5 2-4.6 4.6-4.6 2.5 0 4.6 2.1 4.6 4.6"/><defs><path id="g" d="M122.5 165.5h9.1v9.1h-9.1z"/></defs><clipPath id="h"><use xlink:href="#g" overflow="visible"/></clipPath><path clip-path="url(#h)" fill="#5BBCC9" d="M131.6 170.1c0 2.5-2 4.6-4.6 4.6-2.5 0-4.6-2-4.6-4.6 0-2.5 2-4.6 4.6-4.6 2.6 0 4.6 2.1 4.6 4.6"/><defs><path id="i" d="M109.9 177.5h9.1v9.1h-9.1z"/></defs><clipPath id="j"><use xlink:href="#i" overflow="visible"/></clipPath><path clip-path="url(#j)" fill="#5BBCC9" d="M119 182c0 2.5-2 4.6-4.6 4.6-2.5 0-4.6-2-4.6-4.6 0-2.5 2-4.6 4.6-4.6 2.6.1 4.6 2.1 4.6 4.6"/><path fill="none" stroke="#1B3E4C" stroke-width="4.157" stroke-miterlimit="10" d="M33.6 99.5c-3.2 1.8-7.2.7-9-2.5-1.8-3.2-.7-7.2 2.5-9 3.2-1.8 7.2-.7 9 2.5 1.7 3.2.6 7.2-2.5 9z"/><path fill="#1B3E4C" d="M50.1 117.4c-1.7.9-3.8.3-4.7-1.3-.9-1.7-.3-3.8 1.3-4.7 1.7-.9 3.8-.3 4.7 1.3 1 1.6.4 3.7-1.3 4.7"/><path fill="none" stroke="#1B3E4C" stroke-width="4.157" stroke-miterlimit="10" d="M50.1 117.4c-1.7.9-3.8.3-4.7-1.3-.9-1.7-.3-3.8 1.3-4.7 1.7-.9 3.8-.3 4.7 1.3 1 1.6.4 3.7-1.3 4.7zM21.8 134.8c-6.1 3.5-13.9 1.3-17.4-4.9-3.4-6.1-1.2-13.9 4.9-17.3 6.1-3.5 13.9-1.3 17.4 4.9 3.4 6.1 1.3 13.8-4.9 17.3z"/><path fill="#5BBCC9" d="M298 401.1l53.4-53.3"/><path fill="none" stroke="#5BBCC9" stroke-width="4.989" stroke-miterlimit="10" d="M298 401.1l53.4-53.3"/><path fill="#5BBCC9" d="M300.1 405.8c-2 1.1-4.5.4-5.7-1.6-1.1-2-.4-4.5 1.6-5.7 2-1.1 4.5-.4 5.7 1.6 1.1 2.1.4 4.6-1.6 5.7"/><path fill="none" stroke="#5BBCC9" stroke-width="5.672" stroke-miterlimit="10" d="M300.1 405.8c-2 1.1-4.5.4-5.7-1.6-1.1-2-.4-4.5 1.6-5.7 2-1.1 4.5-.4 5.7 1.6 1.1 2.1.4 4.6-1.6 5.7z"/><path fill="#1B3E4C" d="M93.6 60.6l8.4-8.4h16.9v-6.1H93.6zM93.6 35.4h25.3v6.3H93.6z"/></svg>