<svg xmlns="http://www.w3.org/2000/svg" width="333.9" height="452.4" viewBox="0 0 333.9 452.4"><path fill="none" stroke="#5CBCC9" stroke-width="5.632" stroke-miterlimit="10" d="M-13.9 364.6L152.6 198"/><g stroke="#1C3E4C" stroke-miterlimit="10"><path fill="none" stroke-width="4.827" d="M320.3 393.3c-4.3 0-7.9-3.5-7.9-7.8s3.5-7.9 7.8-7.9 7.9 3.5 7.9 7.8c.1 4.4-3.4 7.9-7.8 7.9z"/><path fill="#1C3E4C" stroke-width="5.632" d="M327 425.2c-2.3 0-4.1-1.8-4.1-4.1s1.8-4.1 4.1-4.1 4.1 1.8 4.1 4.1-1.9 4.1-4.1 4.1z"/><path fill="none" stroke-width="4.827" d="M284.6 426.3c-8.4 0-15.2-6.7-15.2-15.1 0-8.4 6.7-15.2 15.1-15.2 8.4 0 15.2 6.7 15.2 15.1.1 8.3-6.7 15.1-15.1 15.2z"/></g><path fill="#5CBCC9" stroke="#5CBCC9" stroke-width="5.632" stroke-miterlimit="10" d="M144.9 188.8h16.9v16.9h-16.9z"/><path fill="#5CBCC9" d="M199.9 142.5c-8.2 0-15.2 5.1-18 12.3 2.8 7.2 9.8 12.3 18 12.3s15.2-5.1 18-12.3c-2.8-7.2-9.8-12.3-18-12.3zm0 20.5c-4.5 0-8.2-3.7-8.2-8.2 0-4.5 3.7-8.2 8.2-8.2 4.5 0 8.2 3.7 8.2 8.2 0 4.5-3.7 8.2-8.2 8.2zm0-13.1c-2.7 0-4.9 2.2-4.9 4.9s2.2 4.9 4.9 4.9 4.9-2.2 4.9-4.9-2.2-4.9-4.9-4.9z"/><path fill="#5CBCC9" stroke="#5CBCC9" stroke-width="4.954" stroke-miterlimit="10" d="M142.1 487.1L257.2 372"/><g fill="none" stroke="#5CBCC9" stroke-width="4.954" stroke-miterlimit="10"><path d="M282.7 228L153.5 357.3c-8.2 8.2-8.2 21.4 0 29.6 8.2 8.2 21.4 8.2 29.6 0l39.4-39.4M257.2 372l19.8-19.8c8.2-8.2 8.2-21.4 0-29.6-8.2-8.2-21.4-8.2-29.6 0l-29.5 29.5"/></g><path fill="#fff" stroke="#5CBCC9" stroke-width="4.954" stroke-miterlimit="10" d="M275.7 218.6h18.9v18.9h-18.9z"/><path fill="none" stroke="#1C3E4C" stroke-width="4.954" stroke-miterlimit="10" d="M-33 464.9l331.2-331.2"/><path fill="#1C3E4C" d="M316.9 128.9l3.5-3.5c1.3-1.3 1.3-3.4 0-4.6l-9.2-9.3c-1.3-1.3-3.4-1.3-4.6 0L303 115l-1.2-1.2-6.9 6.9-3.5 10.4-3.5 3.5 9.3 9.3 3.5-3.5 10.4-3.5 6.9-6.9-1.1-1.1zm-8.1-15.1l9.3 9.2-3.5 3.5-2.3-2.3 2.3-2.3-1.2-1.2-2.3 2.3-2.3-2.3 2.3-2.3-1.2-1.2-2.3 2.3-2.3-2.3 3.5-3.4z"/><path fill="none" stroke="#5CBCC9" stroke-width="4.954" stroke-miterlimit="10" d="M-53.6 139L78.3 7.1"/><path fill="#1C3E4C" d="M104.8 393.7h14.3l5.7 5.7v-20c0-.8-.6-1.4-1.4-1.4h-18.6c-.8 0-1.4.6-1.4 1.4v12.8c0 .9.7 1.5 1.4 1.5zM103.2 415.3v-12.8c0-.8-.6-1.4-1.4-1.4H83.2c-.8 0-1.4.6-1.4 1.4v20l5.7-5.7h14.3c.8 0 1.4-.7 1.4-1.5z"/><g fill="none" stroke="#1C3E4C" stroke-width="4.954" stroke-miterlimit="10"><path d="M-16.9 171.6L76 78.7c8.4-8.4 22-8.4 30.5 0 8.4 8.4 8.4 22 0 30.5l-27.2 27.1M210.5 65.9l-98.3 98.3c-8.4 8.4-22 8.4-30.4 0-8.4-8.4-8.4-22 0-30.4l3.4-3.4"/></g><g fill="#1C3E4C"><path d="M213.6 62.9c-2-2-5.2-2-7.2 0s-2 5.2 0 7.2 5.2 2 7.2 0 2-5.2 0-7.2zM220.8 55.7c-5.9-5.9-15.6-5.9-21.5 0-2.7 2.7-4.1 6.1-4.4 9.6h5.1c.2-2.2 1.2-4.3 2.9-6 4-4 10.4-4 14.3 0 4 4 4 10.4 0 14.3-2 2-4.6 2.9-7.2 2.9v5.1c3.9 0 7.8-1.5 10.8-4.4 5.9-5.9 5.9-15.5 0-21.5zM227.9 48.6c-9.9-9.9-26-9.9-35.8 0-4.7 4.7-7.1 10.7-7.4 16.8h5.1c.3-4.8 2.2-9.5 5.9-13.2 7.9-7.9 20.8-7.9 28.7 0 7.9 7.9 7.9 20.8 0 28.7-4 4-9.1 5.9-14.3 5.9v5.1c6.5 0 13-2.5 17.9-7.4 9.8-10 9.8-26.1-.1-35.9z"/></g><g fill="none" stroke="#5CBCC9" stroke-width="4.954" stroke-miterlimit="10"><path d="M56.2 3.1c7 7 18.9 6.4 26.6-1.3M81.5 28.4c-7-7-6.4-18.9 1.3-26.6"/></g><path fill="none" stroke="#5CBCC9" stroke-width="4.319" stroke-miterlimit="10" d="M42.9 235.4h28.3M57.1 186v49.4M34.2 196.8h45.7"/><path fill="#5CBCC9" d="M87.5 202.3l-7.5-7.5-7.5 7.5c-2 2-3.1 4.7-3.1 7.5s1.1 5.5 3.1 7.5 4.7 3.1 7.5 3.1 5.5-1.1 7.5-3.1c4.1-4.1 4.1-10.8 0-15zm-7.6-2.5l5 5c1.1 1.1 1.8 2.5 2 4.1h-14c.2-1.6.9-3 2-4.1l5-5zM41.7 202.3l-7.5-7.5-7.5 7.5c-2 2-3.1 4.7-3.1 7.5s1.1 5.5 3.1 7.5 4.7 3.1 7.5 3.1 5.5-1.1 7.5-3.1c4.2-4.1 4.2-10.8 0-15zm-7.5-2.5l5 5c1.1 1.1 1.8 2.5 2 4.1h-14c.2-1.6.9-3 2-4.1l5-5z"/><g fill="#5CBCC9"><path d="M125.12 47.536l-3.393-3.394 13.435-13.435 3.394 3.395zM131.852 54.228l-3.394-3.394 22.344-22.344 3.394 3.394zM118.33 40.688l-3.393-3.394 6.788-6.788 3.394 3.394zM139.065 60.536l-3.394-3.394 28.285-28.284 3.394 3.394z"/></g></svg>