<svg xmlns="http://www.w3.org/2000/svg" xmlns:xlink="http://www.w3.org/1999/xlink" width="120.8" height="120.8" viewBox="0 0 120.8 120.8"><defs><path id="a" d="M0 0v60.4c0 33.3 27.1 60.4 60.4 60.4s60.4-27.1 60.4-60.4S93.7 0 60.4 0H0z"/></defs><use xlink:href="#a" overflow="visible" fill="#5BBCC9"/><clipPath><use xlink:href="#a" overflow="visible"/></clipPath><linearGradient id="b" gradientUnits="userSpaceOnUse" x1="17.25" y1="158.42" x2="62.805" y2="33.258"><stop offset=".193" stop-color="#0097A7" stop-opacity="0"/><stop offset=".856" stop-color="#0097A7"/></linearGradient><path opacity=".5" fill="url(#b)" d="M97.8 53.1L87.7 42.3H36.3l-11.1 6.6L1.3 72.8c4.7 22.3 21.7 40.1 43.5 46l53.5-53.5-.5-12.2z"/><path fill="#FFE082" d="M58.1 26h5.8v60.8h-5.8z"/><path fill="#FFCA28" d="M48 83.9h26v5.8H48zM35.5 37.6h50.9v5.8H35.5z"/><circle fill="#FFCA28" cx="60.7" cy="26" r="5.3"/><path fill="#37474F" d="M96.5 47.7l-10-10-10 10c-2.7 2.7-4.2 6.2-4.2 10s1.5 7.4 4.2 10c2.7 2.7 6.2 4.2 10 4.2s7.4-1.5 10-4.2c5.5-5.4 5.5-14.4 0-20z"/><path fill="#5BBCC9" d="M86.4 44.4l6.7 6.7c1.5 1.5 2.4 3.4 2.7 5.4H77.1c.3-2.1 1.2-4 2.7-5.4l6.6-6.7z"/><path fill="#37474F" d="M45.6 47.7l-10-10-10 10c-2.7 2.7-4.2 6.2-4.2 10s1.5 7.4 4.2 10c2.7 2.7 6.2 4.2 10 4.2s7.4-1.5 10-4.2c5.5-5.4 5.5-14.4 0-20z"/><path fill="#5BBCC9" d="M35.5 44.4l6.7 6.7c1.5 1.5 2.4 3.4 2.7 5.4H26.2c.3-2.1 1.2-4 2.7-5.4l6.6-6.7z"/></svg>