<svg xmlns="http://www.w3.org/2000/svg" xmlns:xlink="http://www.w3.org/1999/xlink" width="120.8" height="120.8" viewBox="0 0 120.8 120.8"><defs><path id="a" d="M0 0v60.4c0 33.3 27.1 60.4 60.4 60.4s60.4-27.1 60.4-60.4S93.7 0 60.4 0H0z"/></defs><use xlink:href="#a" overflow="visible" fill="#5BBCC9"/><clipPath><use xlink:href="#a" overflow="visible"/></clipPath><linearGradient id="b" gradientUnits="userSpaceOnUse" x1="25.073" y1="146.984" x2="67.622" y2="30.082"><stop offset=".193" stop-color="#0097A7" stop-opacity="0"/><stop offset=".856" stop-color="#0097A7"/></linearGradient><path opacity=".5" fill="url(#b)" d="M83.4 70.6L43.7 21.4.2 64.9c2.3 31.2 28.4 56 60.2 56 11.9 0 23.1-3.5 32.4-9.5L69.5 86.6l13.9-16z"/><path fill="#FFAB40" d="M90 70.2l-25.9-26-15.3-9.4L58.2 50l20.1 20.1-16.5 16.5 27 27c2.5-1.3 4.9-2.8 7.1-4.5L73.5 86.6 90 70.2z"/><path fill="#1B3E4C" d="M53.3 24.3l-3.7-3.7c-1.4-1.4-3.6-1.4-5 0l-10 9.9c-1.4 1.4-1.4 3.6 0 5l3.7 3.7-1.2 1.2 7.5 7.5 11.2 3.7 3.7 3.7 10-9.9-3.7-3.7L62 30.5 54.6 23l-1.3 1.3z"/><path fill="#CFD8DC" d="M37.2 33l9.9-10 3.8 3.8-10 9.9z"/></svg>