<svg xmlns="http://www.w3.org/2000/svg" xmlns:xlink="http://www.w3.org/1999/xlink" width="120.8" height="120.8" viewBox="0 0 120.8 120.8"><defs><path id="a" d="M0 0v60.4c0 33.3 27.1 60.4 60.4 60.4s60.4-27.1 60.4-60.4S93.7 0 60.4 0H0z"/></defs><use xlink:href="#a" overflow="visible" fill="#5BBCC9"/><clipPath><use xlink:href="#a" overflow="visible"/></clipPath><linearGradient id="b" gradientUnits="userSpaceOnUse" x1="26.43" y1="133.335" x2="58.082" y2="46.371"><stop offset=".193" stop-color="#0097A7" stop-opacity="0"/><stop offset=".856" stop-color="#0097A7"/></linearGradient><path opacity=".5" fill="url(#b)" d="M25 34.3l-25 25v1.1c0 33.3 27.1 60.4 60.4 60.4 1.4 0 2.7-.1 4.1-.2l31.3-31.3-70.8-55z"/><path fill="#D50000" d="M25 33.8h70.9v55.5H25z"/><path fill="#BDBDBD" d="M31.1 40.1h58.6v7.3H31.1z"/><path fill="#FF1744" d="M25 53.9h70.9v35.4H25z"/><path fill="#fff" d="M39.4 24.2h43v23.2h-43z"/><path fill="#42A5F5" d="M67.3 29.9l-7.9 7.9-3.1-3.1-2.4 2.4 5.5 5.4 10.2-10.2z"/></svg>