<svg xmlns="http://www.w3.org/2000/svg" xmlns:xlink="http://www.w3.org/1999/xlink" width="120.8" height="120.8" viewBox="0 0 120.8 120.8"><defs><path id="a" d="M0 0v60.4c0 33.3 27.1 60.4 60.4 60.4s60.4-27.1 60.4-60.4S93.7 0 60.4 0H0z"/></defs><use xlink:href="#a" overflow="visible" fill="#5BBCC9"/><clipPath><use xlink:href="#a" overflow="visible"/></clipPath><linearGradient id="b" gradientUnits="userSpaceOnUse" x1="33.944" y1="115.046" x2="54.432" y2="58.753"><stop offset="0" stop-color="#0097A7" stop-opacity="0"/><stop offset=".856" stop-color="#0097A7"/></linearGradient><path opacity=".5" fill="url(#b)" d="M31.5 50.4L2.9 78.9c6.7 20.8 24.5 36.7 46.3 40.8L91.9 77 31.5 50.4z"/><path fill="#fff" d="M62.9 35.7c-17.6 0-32.6 11-38.7 26.4 6.1 15.5 21.1 26.4 38.7 26.4s32.6-11 38.7-26.4c-6-15.4-21.1-26.4-38.7-26.4z"/><path fill="#4FC3F7" d="M62.9 79.7c-9.7 0-17.6-7.9-17.6-17.6 0-9.7 7.9-17.6 17.6-17.6s17.6 7.9 17.6 17.6c0 9.7-7.9 17.6-17.6 17.6z"/><path fill="#092930" d="M62.9 51.6c-5.8 0-10.6 4.7-10.6 10.6 0 5.8 4.7 10.6 10.6 10.6 5.8 0 10.6-4.7 10.6-10.6 0-5.9-4.8-10.6-10.6-10.6z"/><path fill="#fff" d="M66.2 55.1c-2.1 0-3.7 1.7-3.7 3.7 0 2.1 1.7 3.7 3.7 3.7s3.7-1.7 3.7-3.7c.1-2.1-1.6-3.7-3.7-3.7z"/></svg>