<svg xmlns="http://www.w3.org/2000/svg" xmlns:xlink="http://www.w3.org/1999/xlink" width="120.8" height="120.8" viewBox="0 0 120.8 120.8"><defs><path id="a" d="M0 0v60.4c0 33.3 27.1 60.4 60.4 60.4s60.4-27.1 60.4-60.4S93.7 0 60.4 0H0z"/></defs><use xlink:href="#a" overflow="visible" fill="#5BBCC9"/><clipPath><use xlink:href="#a" overflow="visible"/></clipPath><linearGradient id="b" gradientUnits="userSpaceOnUse" x1="6.93" y1="183.488" x2="59.232" y2="39.791"><stop offset=".193" stop-color="#0097A7" stop-opacity="0"/><stop offset=".856" stop-color="#0097A7"/></linearGradient><path opacity=".5" fill="url(#b)" d="M27.9 28.4L0 56.3v4.1c0 33.3 27.1 60.4 60.4 60.4 1.3 0 2.5-.1 3.8-.1l29.6-29.6-65.9-62.7z"/><path fill="#90A4AE" d="M30.6 30.8h8.5v6.8h-8.5z"/><circle fill="#CFD8DC" cx="30.6" cy="32.4" r="5.2"/><path fill="#90A4AE" d="M81.3 82.6h8.5v6.8h-8.5z"/><path fill="#fff" d="M84.6 87.8V32.4c0-.5-.1-1-.2-1.5-.6-2-2.3-3.5-4.4-3.7H31.2c2.6.3 4.6 2.5 4.6 5.2v55.3c0 .5.1 1 .2 1.5.6 2 2.3 3.5 4.4 3.7h48.7c-2.5-.2-4.5-2.4-4.5-5.1z"/><circle fill="#CFD8DC" cx="89.8" cy="87.8" r="5.2"/><path fill="none" stroke="#90A4AE" stroke-width="2.035" stroke-miterlimit="10" d="M47.6 76.3H72M47.6 81.4H72"/><g fill="none" stroke="#90A4AE" stroke-width="2.035" stroke-miterlimit="10"><path d="M53.1 40.4H67M49.6 45.1h20.9"/></g><path fill="none" stroke="#FF5722" stroke-width="3" stroke-miterlimit="10" d="M68.2 54.9l5.8 5-5.8 4.9M51.3 54.9l-5.7 5 5.7 4.9M62.2 52.4l-5.4 14.9"/></svg>