<svg xmlns="http://www.w3.org/2000/svg" xmlns:xlink="http://www.w3.org/1999/xlink" width="120.8" height="120.8" viewBox="0 0 120.8 120.8"><defs><path id="a" d="M0 0v60.4c0 33.3 27.1 60.4 60.4 60.4s60.4-27.1 60.4-60.4S93.7 0 60.4 0H0z"/></defs><use xlink:href="#a" overflow="visible" fill="#5BBCC9"/><clipPath><use xlink:href="#a" overflow="visible"/></clipPath><linearGradient id="b" gradientUnits="userSpaceOnUse" x1="141.632" y1="-102.961" x2="161.965" y2="-155.106" gradientTransform="matrix(1.455 -.352 -.352 1.455 -238.182 345.24)"><stop offset=".193" stop-color="#0097A7" stop-opacity="0"/><stop offset=".856" stop-color="#0097A7"/></linearGradient><path opacity=".5" fill="url(#b)" d="M33.5 59.5L6.1 86.9c7.1 14.5 19.9 25.8 35.4 30.9l25.2-25.2-33.2-33.1z"/><path fill="#4CAF50" d="M46.4 59.9l28.2-28.2-3.4-3.4-3.4-3.4-35 35.1 29.4 29.4L36 115.6c3.2 1.4 6.6 2.6 10.1 3.5l29.8-29.8-29.5-29.4z"/><path fill="#CDDC39" d="M57 26.1l21.5-4.7-4.7 21.5z"/><circle fill="#CDDC39" cx="40.6" cy="59.5" r="2.9"/><circle fill="#009688" cx="70.2" cy="29.9" r="2.9"/><circle fill="#CDDC39" cx="68.1" cy="89.3" r="2.9"/></svg>