<svg xmlns="http://www.w3.org/2000/svg" width="965.2" height="264.2" viewBox="0 0 965.2 264.2"><path fill="#092930" d="M177 36.5c1.8-1.7 2.9-4.2 2.9-6.9 0-5.3-4.3-9.6-9.6-9.6s-9.6 4.3-9.6 9.6c0 3 1.4 5.8 3.7 7.5l-31.5 115.4 3.1 4.1h69.6l3.1-4.1-31.7-116zm14 76l-29.6-22.1H185l6 22.1zM163 84l15.9-15.9 4.3 15.9H163zm-7.5 10l31.4 23.5h-37.8l6.4-23.5zM177 60.9L159.8 78l10.6-38.8h.7l5.9 21.7zm-6.7-34.4c1.8 0 3.2 1.4 3.2 3.2 0 1.8-1.4 3.2-3.2 3.2s-3.2-1.4-3.2-3.2c0-1.8 1.4-3.2 3.2-3.2zm-30.1 123.7l7.2-26.4h46.8l7.2 26.4h-61.2z"/></svg>